<?xml version="1.0" standalone="no"?>
<!DOCTYPE svg PUBLIC "-//W3C//DTD SVG 1.1//EN" "http://www.w3.org/Graphics/SVG/1.1/DTD/svg11.dtd" >
<svg>
<metadata>
Created by FontForge 20090914 at Mon Jan 12 15:14:12 2015
 By www-data
Copyright 2002 Adobe Systems Incorporated. All rights reserved.
</metadata>
<defs>
<font id="PragmaticaLightC" horiz-adv-x="566" >
  <font-face 
    font-family="PragmaticaLightC"
    font-weight="200"
    font-stretch="normal"
    units-per-em="1000"
    panose-1="4 0 3 0 0 0 0 0 0 0"
    ascent="776"
    descent="-224"
    x-height="508"
    cap-height="700"
    bbox="-7 -224 1197 900"
    underline-thickness="50"
    underline-position="-50"
    stemh="35"
    stemv="44"
    unicode-range="U+0020-U+2122"
  />
<missing-glyph horiz-adv-x="233" 
 />
    <glyph glyph-name=".notdef" horiz-adv-x="233" 
 />
    <glyph glyph-name="space" unicode=" " horiz-adv-x="233" 
 />
    <glyph glyph-name="space" unicode="&#xa0;" horiz-adv-x="233" 
 />
    <glyph glyph-name="exclam" unicode="!" horiz-adv-x="275" 
d="M111 700h53v-307l-12 -217h-29l-12 217v307zM110 0v74h55v-74h-55z" />
    <glyph glyph-name="quotedbl" unicode="&#x22;" horiz-adv-x="310" 
d="M130 700l-25 -192h-30l-25 192h80zM260 700l-25 -192h-30l-25 192h80z" />
    <glyph glyph-name="numbersign" unicode="#" horiz-adv-x="627" 
d="M376 60h-36l23 153h-143l-23 -153h-36l23 153h-134l8 50h134l28 179h-134l8 50h134l23 152h36l-23 -152h143l23 152h36l-23 -152h134l-8 -50h-134l-28 -179h134l-8 -50h-134zM371 263l28 179h-143l-28 -179h143z" />
    <glyph glyph-name="dollar" unicode="$" 
d="M53 219h50c0 -140 92 -190 170 -194v322c-126 39 -194 75 -194 194c0 129 102 178 194 181v55h35v-55c119 -3 181 -84 186 -172h-48c-3 54 -36 121 -138 130v-297c138 -37 205 -87 205 -206c0 -166 -130 -195 -205 -194v-76h-35v76c-162 3 -221 130 -220 236zM308 338
v-313c61 2 155 25 155 149c0 63 -23 137 -155 164zM273 393v287c-59 -4 -146 -28 -146 -142c0 -66 28 -113 146 -145z" />
    <glyph glyph-name="percent" unicode="%" horiz-adv-x="870" 
d="M165 0l499 700h41l-499 -700h-41zM53 508c0 160 103 200 160 200s160 -40 160 -200s-103 -200 -160 -200s-160 40 -160 200zM99 508c0 -79 32 -165 114 -165s114 86 114 165s-32 165 -114 165s-114 -86 -114 -165zM497 192c0 160 103 200 160 200s160 -40 160 -200
s-103 -200 -160 -200s-160 40 -160 200zM543 192c0 -79 32 -165 114 -165s114 86 114 165s-32 165 -114 165s-114 -86 -114 -165z" />
    <glyph glyph-name="ampersand" unicode="&#x26;" horiz-adv-x="632" 
d="M505 295h45c-7 -70 -20 -116 -45 -162l114 -133h-60l-80 94c-53 -80 -126 -115 -223 -115c-149 0 -216 95 -216 203c0 118 74 177 180 221c-47 61 -77 95 -77 160c0 68 46 137 143 137c76 0 136 -48 136 -131c0 -54 -22 -123 -137 -175l191 -227c11 26 27 69 29 128z
M452 125l-206 248c-91 -42 -156 -93 -156 -195c0 -90 67 -157 166 -157c98 0 159 46 196 104zM261 425c44 17 113 62 113 143c0 45 -31 90 -89 90c-56 0 -94 -38 -94 -95c0 -41 19 -77 70 -138z" />
    <glyph glyph-name="quotesingle" unicode="'" horiz-adv-x="180" 
d="M130 700l-25 -192h-30l-25 192h80z" />
    <glyph glyph-name="parenleft" unicode="(" horiz-adv-x="333" 
d="M219 700h31c-83 -144 -129 -288 -129 -442s46 -298 129 -442h-31c-87 140 -148 270 -148 442s61 302 148 442z" />
    <glyph glyph-name="parenright" unicode=")" horiz-adv-x="333" 
d="M114 -184h-31c83 144 129 288 129 442s-46 298 -129 442h31c87 -140 148 -270 148 -442s-61 -302 -148 -442z" />
    <glyph glyph-name="asterisk" unicode="*" horiz-adv-x="486" 
d="M243 505l-85 -117l-28 20l84 117l-135 43l11 32l137 -43v143h33v-143l136 43l11 -32l-135 -43l84 -117l-28 -20z" />
    <glyph glyph-name="plus" unicode="+" horiz-adv-x="600" 
d="M50 370h235v235h30v-235h235v-30h-235v-235h-30v235h-235v30z" />
    <glyph glyph-name="comma" unicode="," horiz-adv-x="275" 
d="M110 74h55v-113c0 -36 -5 -82 -55 -96v36c11 4 27 14 27 60v39h-27v74z" />
    <glyph glyph-name="hyphen" unicode="-" horiz-adv-x="404" 
d="M70 230v70h264v-70h-264z" />
    <glyph glyph-name="hyphen" unicode="&#xad;" horiz-adv-x="404" 
d="M70 230v70h264v-70h-264z" />
    <glyph glyph-name="period" unicode="." horiz-adv-x="275" 
d="M110 0v74h55v-74h-55z" />
    <glyph glyph-name="slash" unicode="/" horiz-adv-x="394" 
d="M0 -185l357 885h37l-357 -885h-37z" />
    <glyph glyph-name="zero" unicode="0" 
d="M283 -21c-47 0 -238 11 -238 371s191 371 238 371s238 -11 238 -371s-191 -371 -238 -371zM283 21c120 0 188 132 188 329s-68 329 -188 329s-188 -132 -188 -329s68 -329 188 -329z" />
    <glyph glyph-name="one" unicode="1" 
d="M160 548v27h17c128 0 155 81 160 125h29v-700h-50v548h-156z" />
    <glyph glyph-name="two" unicode="2" 
d="M506 42v-42h-432c-2 131 55 196 159 267c26 18 53 34 80 51c61 38 138 89 138 198c0 84 -54 163 -162 163c-62 0 -161 -32 -161 -173v-16h-50v16c0 157 111 215 214 215c123 0 209 -75 209 -203s-81 -183 -157 -230c-88 -54 -216 -117 -218 -246h380z" />
    <glyph glyph-name="three" unicode="3" 
d="M51 196h48c3 -66 36 -175 175 -175c153 0 177 113 177 176c0 65 -27 151 -170 151h-48v42h29c26 0 162 0 162 144c0 86 -62 145 -156 145c-136 0 -157 -110 -156 -181h-48c-2 92 37 223 205 223c145 0 203 -95 203 -188c0 -103 -73 -145 -108 -159v-2
c67 -10 137 -65 137 -177c0 -130 -84 -216 -229 -216c-161 0 -218 115 -221 217z" />
    <glyph glyph-name="four" unicode="4" 
d="M362 174h-320v42l316 484h52v-484h114v-42h-114v-174h-48v174zM94 216h268v415z" />
    <glyph glyph-name="five" unicode="5" horiz-adv-x="540" 
d="M53 165h50c7 -69 60 -144 164 -144c98 0 183 64 183 196c0 105 -60 185 -172 185c-66 0 -118 -24 -157 -66h-45l52 364h335v-42h-295l-40 -269c41 39 103 55 154 55c128 0 218 -81 218 -225c0 -150 -95 -240 -234 -240c-142 0 -205 96 -213 186z" />
    <glyph glyph-name="six" unicode="6" 
d="M497 553h-48c-10 67 -58 126 -148 126c-157 0 -196 -164 -194 -356h2c21 75 98 119 189 119c141 0 210 -101 210 -225c0 -163 -103 -238 -213 -238c-186 0 -236 162 -236 348c0 298 107 394 244 394c62 0 168 -23 194 -168zM124 213c0 -133 85 -192 171 -192
c100 0 163 81 163 198c0 128 -82 181 -165 181c-85 0 -169 -57 -169 -187z" />
    <glyph glyph-name="seven" unicode="7" 
d="M51 656v44h464v-32c-61 -74 -130 -178 -190 -334c-37 -96 -70 -221 -82 -334h-54c6 55 24 181 87 340c43 109 108 225 181 316h-406z" />
    <glyph glyph-name="eight" unicode="8" 
d="M201 384c-72 21 -116 81 -116 155c0 107 80 182 198 182s198 -75 198 -182c0 -74 -44 -134 -116 -155c75 -15 145 -81 145 -191c0 -118 -76 -214 -227 -214s-227 96 -227 214c0 110 70 176 145 191zM283 403c89 0 149 56 149 137c0 72 -50 139 -149 139
s-149 -67 -149 -139c0 -81 60 -137 149 -137zM283 21c105 0 177 67 177 172c0 94 -56 168 -177 168s-177 -74 -177 -168c0 -105 72 -172 177 -172z" />
    <glyph glyph-name="nine" unicode="9" 
d="M69 147h48c10 -67 58 -126 148 -126c157 0 196 164 194 356h-2c-21 -75 -98 -119 -189 -119c-141 0 -210 101 -210 225c0 163 103 238 213 238c186 0 236 -162 236 -348c0 -298 -107 -394 -244 -394c-62 0 -168 23 -194 168zM442 487c0 133 -85 192 -171 192
c-100 0 -163 -81 -163 -198c0 -128 82 -181 165 -181c85 0 169 57 169 187z" />
    <glyph glyph-name="colon" unicode=":" horiz-adv-x="275" 
d="M110 434v74h55v-74h-55zM110 0v74h55v-74h-55z" />
    <glyph glyph-name="semicolon" unicode=";" horiz-adv-x="275" 
d="M110 434v74h55v-74h-55zM110 74h55v-113c0 -36 -5 -82 -55 -96v36c11 4 27 14 27 60v39h-27v74z" />
    <glyph glyph-name="less" unicode="&#x3c;" horiz-adv-x="656" 
d="M100 342l472 -279l-17 -30l-495 294v30l495 294l16 -30z" />
    <glyph glyph-name="equal" unicode="=" horiz-adv-x="600" 
d="M50 460h500v-30h-500v30zM50 260h500v-30h-500v30z" />
    <glyph glyph-name="greater" unicode="&#x3e;" horiz-adv-x="656" 
d="M556 342l-472 279l17 30l495 -294v-30l-495 -294l-16 30z" />
    <glyph glyph-name="question" unicode="?" horiz-adv-x="538" 
d="M240 0v74h55v-74h-55zM116 496h-50c-3 92 28 225 207 225c161 0 199 -105 199 -180c0 -92 -56 -139 -114 -192c-40 -36 -71 -69 -71 -144v-18h-39c-1 6 -1 12 -1 18c0 86 32 125 74 165c52 49 101 90 101 169c0 102 -78 140 -149 140c-159 0 -159 -150 -157 -183z" />
    <glyph glyph-name="at" unicode="@" horiz-adv-x="860" 
d="M598 56l19 -27c-61 -36 -116 -50 -186 -50c-205 0 -371 131 -371 372c0 220 165 370 371 370c251 0 369 -167 369 -350c0 -159 -93 -224 -169 -224c-36 0 -75 20 -79 68c-23 -51 -81 -74 -132 -74c-111 0 -183 82 -183 197c0 138 96 197 186 197c50 0 110 -20 127 -75h2
v61h44v-272c0 -59 28 -67 52 -67c79 0 112 106 112 189c0 206 -148 320 -329 320c-207 0 -331 -164 -331 -340c0 -238 175 -342 331 -342c48 0 107 12 167 47zM552 337c0 84 -32 163 -131 163c-86 0 -128 -68 -128 -163c0 -53 16 -161 127 -161c50 0 132 23 132 161z" />
    <glyph glyph-name="A" unicode="A" horiz-adv-x="600" 
d="M142 227l-86 -227h-53l267 700h60l267 -700h-53l-86 227h-316zM157 269h286l-143 391z" />
    <glyph glyph-name="B" unicode="B" horiz-adv-x="674" 
d="M92 700h275c167 0 204 -94 204 -174c0 -99 -65 -143 -118 -156v-2c84 -9 149 -75 149 -174c0 -95 -49 -194 -242 -194h-268v700zM140 658v-273h216c139 0 167 80 167 144c0 127 -127 129 -156 129h-227zM140 343v-301h221c47 0 191 1 191 152c0 116 -80 149 -195 149
h-217z" />
    <glyph glyph-name="C" unicode="C" horiz-adv-x="717" 
d="M617 222h50c-10 -95 -75 -243 -287 -243c-293 0 -314 293 -314 359c0 229 104 383 317 383s271 -132 276 -223h-50c-5 92 -74 181 -226 181c-172 0 -267 -131 -267 -339c0 -188 98 -319 265 -319c163 0 227 113 236 201z" />
    <glyph glyph-name="D" unicode="D" horiz-adv-x="701" 
d="M92 700h229c62 0 327 0 327 -348c0 -299 -174 -352 -376 -352h-180v700zM140 658v-616h148c130 0 310 20 310 308c0 274 -183 308 -274 308h-184z" />
    <glyph glyph-name="E" unicode="E" horiz-adv-x="592" 
d="M140 385h383v-42h-383v-301h428v-42h-476v700h464v-42h-416v-273z" />
    <glyph glyph-name="F" unicode="F" horiz-adv-x="547" 
d="M140 381h345v-42h-345v-339h-48v700h435v-42h-387v-277z" />
    <glyph glyph-name="G" unicode="G" horiz-adv-x="735" 
d="M382 351h287v-351h-48v137h-2c-34 -81 -115 -157 -255 -157c-193 0 -311 146 -311 372c0 225 102 373 333 373c202 0 261 -132 270 -219h-50c-10 91 -77 177 -220 177c-236 0 -283 -187 -283 -328c0 -102 34 -333 266 -333c210 0 253 187 253 287h-240v42z" />
    <glyph glyph-name="H" unicode="H" horiz-adv-x="688" 
d="M140 350v-350h-48v700h48v-308h408v308h48v-700h-48v350h-408z" />
    <glyph glyph-name="I" unicode="I" horiz-adv-x="232" 
d="M92 700h48v-700h-48v700z" />
    <glyph glyph-name="J" unicode="J" horiz-adv-x="493" 
d="M30 217h48v-29c1 -41 12 -166 148 -166c71 0 140 24 140 212v466h48v-466c0 -91 -9 -254 -190 -254c-158 0 -194 119 -194 205v32z" />
    <glyph glyph-name="K" unicode="K" horiz-adv-x="625" 
d="M140 310l400 390h64l-293 -285l314 -415h-62l-287 383l-136 -133v-250h-48v700h48v-390z" />
    <glyph glyph-name="L" unicode="L" horiz-adv-x="516" 
d="M516 42v-42h-424v700h48v-658h376z" />
    <glyph glyph-name="M" unicode="M" horiz-adv-x="844" 
d="M398 0l-258 634h-2l2 -27v-607h-48v700h73l257 -637l257 637h73v-700h-48v607l2 27h-2l-258 -634h-48z" />
    <glyph glyph-name="N" unicode="N" horiz-adv-x="712" 
d="M140 633v-633h-48v700h60l420 -633v633h48v-700h-59z" />
    <glyph glyph-name="O" unicode="O" horiz-adv-x="778" 
d="M66 350c0 231 118 371 323 371s323 -141 323 -371s-118 -371 -323 -371s-323 140 -323 371zM116 350c0 -245 134 -329 273 -329s273 84 273 329s-134 329 -273 329s-273 -84 -273 -329z" />
    <glyph glyph-name="P" unicode="P" horiz-adv-x="614" 
d="M92 700h256c74 0 226 -11 226 -190c0 -200 -187 -202 -238 -202h-196v-308h-48v700zM140 658v-308h196c140 0 188 66 188 159c0 136 -117 149 -188 149h-196z" />
    <glyph glyph-name="Q" unicode="Q" horiz-adv-x="778" 
d="M603 54l94 -83l-28 -31l-99 87c-40 -26 -96 -48 -181 -48c-205 0 -323 141 -323 371c0 231 118 371 323 371s323 -141 323 -371c0 -166 -61 -251 -109 -296zM482 160l86 -76c71 71 94 161 94 266c0 245 -134 329 -273 329s-273 -84 -273 -329s134 -329 273 -329
c77 0 125 25 145 38l-80 70z" />
    <glyph glyph-name="R" unicode="R" horiz-adv-x="673" 
d="M92 0v700h279c79 0 231 -9 231 -178c0 -89 -46 -157 -124 -177v-2c91 -23 96 -98 99 -155c7 -119 3 -146 30 -188h-55c-21 41 -18 65 -25 187c-4 64 -11 136 -140 136h-247v-323h-48zM140 658v-293h251c54 0 161 21 161 155c0 135 -123 138 -181 138h-231z" />
    <glyph glyph-name="S" unicode="S" horiz-adv-x="634" 
d="M53 219h50c-1 -87 51 -193 224 -193c187 0 204 116 204 161c0 102 -95 130 -168 146l-89 18c-87 18 -208 44 -208 175c0 84 49 197 252 197c182 0 236 -115 243 -199h-50c-4 47 -32 157 -196 157c-126 0 -199 -62 -199 -150c0 -102 81 -120 201 -142
c85 -15 264 -36 264 -203c0 -78 -34 -202 -255 -202c-218 0 -274 133 -273 235z" />
    <glyph glyph-name="T" unicode="T" horiz-adv-x="536" 
d="M244 658h-238v42h524v-42h-238v-658h-48v658z" />
    <glyph glyph-name="U" unicode="U" horiz-adv-x="676" 
d="M79 700h48v-425c0 -124 26 -247 211 -247c184 0 211 121 211 247v425h48v-426c0 -123 -23 -288 -259 -288c-242 0 -259 163 -259 288v426z" />
    <glyph glyph-name="V" unicode="V" horiz-adv-x="572" 
d="M286 48l228 652h54l-250 -700h-64l-250 700h54z" />
    <glyph glyph-name="W" unicode="W" horiz-adv-x="846" 
d="M424 643l-175 -643h-62l-181 700h54l159 -637l175 637h60l173 -637l159 637h54l-181 -700h-62z" />
    <glyph glyph-name="X" unicode="X" horiz-adv-x="542" 
d="M271 395l203 305h58l-228 -342l234 -358h-62l-205 320l-205 -320h-62l234 358l-228 342h58z" />
    <glyph glyph-name="Y" unicode="Y" horiz-adv-x="580" 
d="M290 353l227 347h59l-262 -391v-309h-48v309l-262 391h59z" />
    <glyph glyph-name="Z" unicode="Z" 
d="M51 700h471v-44l-443 -614h461v-42h-514v48l445 610h-420v42z" />
    <glyph glyph-name="bracketleft" unicode="[" horiz-adv-x="343" 
d="M106 700h184v-35h-136v-815h136v-35h-184v885z" />
    <glyph glyph-name="backslash" unicode="\" horiz-adv-x="394" 
d="M394 -185h-37l-357 885h37z" />
    <glyph glyph-name="bracketright" unicode="]" horiz-adv-x="343" 
d="M53 700h184v-885h-184v35h136v815h-136v35z" />
    <glyph glyph-name="asciicircum" unicode="^" horiz-adv-x="374" 
d="M187 670l-95 -188h-36l111 218h40l111 -218h-36z" />
    <glyph glyph-name="underscore" unicode="_" horiz-adv-x="500" 
d="M0 -185v30h500v-30h-500z" />
    <glyph glyph-name="grave" unicode="`" horiz-adv-x="266" 
d="M102 700l70 -132h-35l-95 132h60z" />
    <glyph glyph-name="a" unicode="a" horiz-adv-x="537" 
d="M114 367h-44c1 65 33 161 194 161c163 0 181 -96 180 -159l-5 -278c0 -11 -1 -60 39 -60c6 0 13 1 19 3v-34c-7 -2 -19 -5 -33 -5c-60 0 -71 51 -69 94c-24 -47 -76 -101 -181 -101c-77 0 -168 29 -168 146c0 139 144 147 211 153c128 12 143 5 143 88
c0 116 -110 118 -136 118c-126 0 -149 -71 -150 -126zM395 218l1 63c-29 -23 -60 -20 -144 -30c-107 -13 -160 -33 -160 -117c0 -67 48 -111 123 -111c81 0 178 47 180 195z" />
    <glyph glyph-name="b" unicode="b" horiz-adv-x="570" 
d="M79 700h44v-277c27 57 85 105 176 105c160 0 218 -130 218 -267c0 -143 -58 -281 -220 -281c-99 0 -148 50 -172 101h-2v-81h-44v700zM121 251c0 -172 92 -236 178 -236c69 0 172 37 172 247c0 137 -60 231 -170 231c-113 0 -180 -94 -180 -242z" />
    <glyph glyph-name="c" unicode="c" horiz-adv-x="527" 
d="M444 174h43c-21 -183 -143 -194 -203 -194c-160 0 -231 120 -231 282c0 145 64 266 231 266c146 0 190 -96 197 -165h-43c-9 68 -58 130 -154 130c-118 0 -185 -89 -185 -228c0 -199 103 -250 185 -250c131 0 155 118 160 159z" />
    <glyph glyph-name="d" unicode="d" horiz-adv-x="568" 
d="M445 700h44v-700h-44v81h-2c-8 -20 -46 -101 -172 -101c-209 0 -218 225 -218 281c0 190 100 267 216 267c76 0 144 -37 176 -105v277zM99 262c0 -237 132 -247 170 -247c86 0 178 64 178 236c0 148 -67 242 -180 242c-126 0 -168 -123 -168 -231z" />
    <glyph glyph-name="e" unicode="e" horiz-adv-x="558" 
d="M455 147h44c-12 -65 -61 -167 -212 -167c-42 0 -234 1 -234 281c0 47 6 267 234 267c77 0 221 -23 218 -279h-406c1 -88 32 -234 190 -234c98 0 153 61 166 132zM99 284h359c0 76 -27 209 -174 209c-151 0 -183 -135 -185 -209z" />
    <glyph glyph-name="f" unicode="f" horiz-adv-x="257" 
d="M251 508v-35h-107v-473h-44v473h-94v35h94v76c0 98 48 118 104 118c5 0 15 0 47 -2v-35c-28 1 -38 2 -47 2c-60 0 -60 -58 -60 -80v-79h107z" />
    <glyph glyph-name="g" unicode="g" horiz-adv-x="565" 
d="M78 -68h50c13 -48 56 -90 148 -90c38 0 166 10 166 190v60c-26 -65 -91 -100 -167 -100c-216 0 -222 225 -222 268c0 171 80 268 210 268c102 0 154 -51 177 -102h2v82h44v-470c0 -68 -3 -231 -214 -231c-56 0 -166 8 -194 125zM280 27c78 0 164 43 164 227
c0 156 -61 239 -177 239c-161 0 -168 -180 -168 -232c0 -185 99 -234 181 -234z" />
    <glyph glyph-name="h" unicode="h" horiz-adv-x="540" 
d="M79 700h44v-269c52 92 149 97 175 97c151 0 163 -117 163 -178v-350h-44v323c0 63 0 170 -121 170c-82 0 -173 -52 -173 -199v-294h-44v700z" />
    <glyph glyph-name="i" unicode="i" horiz-adv-x="202" 
d="M79 508h44v-508h-44v508zM76 627v73h50v-73h-50z" />
    <glyph glyph-name="j" unicode="j" horiz-adv-x="202" 
d="M79 508h44v-571c0 -81 -22 -124 -99 -124c-12 0 -23 1 -31 2v37c5 -1 9 -1 14 -1c43 0 72 9 72 92v565zM76 627v73h50v-73h-50z" />
    <glyph glyph-name="k" unicode="k" horiz-adv-x="479" 
d="M123 240l284 268h55l-203 -193l220 -315h-51l-201 286l-104 -100v-186h-44v700h44v-460z" />
    <glyph glyph-name="l" unicode="l" horiz-adv-x="202" 
d="M79 700h44v-700h-44v700z" />
    <glyph glyph-name="m" unicode="m" horiz-adv-x="824" 
d="M79 508h44v-74c20 41 66 94 157 94c69 0 128 -37 143 -102c21 44 69 102 169 102c152 0 153 -143 153 -188v-340h-44v335c0 32 0 158 -110 158c-69 0 -157 -42 -157 -176v-317h-44v335c0 27 0 158 -112 158c-85 0 -155 -77 -155 -183v-310h-44v508z" />
    <glyph glyph-name="n" unicode="n" horiz-adv-x="540" 
d="M79 508h44v-77c52 92 149 97 175 97c151 0 163 -117 163 -178v-350h-44v323c0 63 0 170 -121 170c-82 0 -173 -52 -173 -199v-294h-44v508z" />
    <glyph glyph-name="o" unicode="o" horiz-adv-x="574" 
d="M53 254c0 151 67 274 234 274s234 -123 234 -274s-67 -274 -234 -274s-234 123 -234 274zM99 254c0 -144 61 -239 188 -239s188 95 188 239s-61 239 -188 239s-188 -95 -188 -239z" />
    <glyph glyph-name="p" unicode="p" horiz-adv-x="570" 
d="M79 508h44v-81h2c32 70 103 101 174 101c159 0 218 -126 218 -267s-58 -281 -220 -281c-77 0 -139 32 -174 105v-270h-44v693zM121 251c0 -172 92 -236 178 -236c69 0 172 37 172 247c0 137 -60 231 -170 231c-113 0 -180 -94 -180 -242z" />
    <glyph glyph-name="q" unicode="q" horiz-adv-x="570" 
d="M473 508h44v-693h-44v270c-27 -57 -85 -105 -176 -105c-214 0 -218 244 -218 281c0 141 63 267 218 267c71 0 142 -31 174 -101h2v81zM125 262c0 -210 103 -247 172 -247c86 0 178 64 178 236c0 148 -67 242 -180 242c-110 0 -170 -94 -170 -231z" />
    <glyph glyph-name="r" unicode="r" horiz-adv-x="318" 
d="M318 518v-45h-22c-65 -2 -173 -24 -173 -230v-243h-44v508h44v-105h2c24 63 87 115 170 115h23z" />
    <glyph glyph-name="s" unicode="s" horiz-adv-x="470" 
d="M40 145h45c0 -68 51 -130 154 -130c114 0 145 66 145 115c0 68 -56 86 -122 103c-18 5 -37 9 -55 13c-89 21 -152 50 -152 146c0 34 13 136 174 136c154 0 182 -95 186 -150h-45c-2 44 -27 115 -139 115c-95 0 -130 -49 -130 -103c0 -80 61 -89 155 -112
c100 -24 174 -46 174 -143c0 -88 -57 -155 -197 -155c-133 0 -193 80 -193 165z" />
    <glyph glyph-name="t" unicode="t" horiz-adv-x="274" 
d="M6 508h101v152h44v-152h110v-35h-110v-380c0 -38 0 -72 45 -72c22 0 48 7 65 14v-35c-19 -7 -47 -14 -71 -14c-78 0 -83 50 -83 102v385h-101v35z" />
    <glyph glyph-name="u" unicode="u" horiz-adv-x="540" 
d="M461 0h-44v75h-2c-32 -58 -96 -95 -173 -95c-151 0 -163 117 -163 178v350h44v-323c0 -63 0 -170 121 -170c82 0 173 52 173 199v294h44v-508z" />
    <glyph glyph-name="v" unicode="v" horiz-adv-x="432" 
d="M216 47l166 461h50l-190 -508h-52l-190 508h50z" />
    <glyph glyph-name="w" unicode="w" horiz-adv-x="672" 
d="M336 456l-127 -456h-56l-147 508h46l130 -455l128 455h52l128 -455l130 455h46l-147 -508h-56z" />
    <glyph glyph-name="x" unicode="x" horiz-adv-x="434" 
d="M217 297l146 211h53l-171 -243l189 -265h-57l-160 236l-160 -236h-57l189 265l-172 243h54z" />
    <glyph glyph-name="y" unicode="y" horiz-adv-x="447" 
d="M79 -185v37c17 -3 30 -3 35 -3c52 0 62 21 86 93l19 57l-206 509h53l176 -456l160 456h45l-214 -590c-17 -46 -31 -107 -115 -107c-9 0 -23 1 -39 4z" />
    <glyph glyph-name="z" unicode="z" horiz-adv-x="439" 
d="M48 508h352v-40l-318 -433h331v-35h-387v31l329 442h-307v35z" />
    <glyph glyph-name="braceleft" unicode="{" horiz-adv-x="366" 
d="M75 236v42c56 5 89 58 89 147c0 18 -1 36 -2 54s-2 35 -2 53c0 21 -1 166 156 168v-35c-44 -4 -108 -30 -108 -113c0 -33 4 -40 4 -110c0 -77 -11 -153 -96 -184v-2c85 -31 96 -107 96 -184c0 -70 -4 -77 -4 -110c0 -83 64 -109 108 -113v-35c-157 2 -156 147 -156 168
c0 18 1 35 2 53s2 36 2 54c0 89 -33 142 -89 147z" />
    <glyph glyph-name="bar" unicode="|" horiz-adv-x="450" 
d="M208 -224v1053h34v-1053h-34z" />
    <glyph glyph-name="braceright" unicode="}" horiz-adv-x="366" 
d="M291 278v-42c-56 -5 -89 -58 -89 -147c0 -18 1 -36 2 -54s2 -35 2 -53c0 -21 1 -166 -156 -168v35c44 4 108 30 108 113c0 33 -4 40 -4 110c0 77 11 153 96 184v2c-85 31 -96 107 -96 184c0 70 4 77 4 110c0 83 -64 109 -108 113v35c157 -2 156 -147 156 -168
c0 -18 -1 -35 -2 -53s-2 -36 -2 -54c0 -89 33 -142 89 -147z" />
    <glyph glyph-name="asciitilde" unicode="~" horiz-adv-x="580" 
d="M79 302l-29 12c16 45 56 108 123 108c33 0 62 -12 83 -23l103 -55c14 -8 35 -13 54 -13c48 0 75 45 88 77l29 -12c-41 -94 -91 -108 -123 -108c-34 0 -57 9 -83 23l-103 55c-14 8 -37 13 -55 13c-40 0 -73 -35 -87 -77z" />
    <glyph glyph-name="currency" unicode="&#xa4;" horiz-adv-x="560" 
d="M57 128l57 57c-39 45 -54 99 -54 145s15 100 54 145l-57 57l21 21l57 -57c45 39 99 54 145 54s100 -15 145 -54l57 57l21 -21l-57 -57c39 -45 54 -99 54 -145s-15 -100 -54 -145l57 -57l-21 -21l-57 57c-45 -39 -99 -54 -145 -54s-100 15 -145 54l-57 -57zM90 330
c0 -106 84 -190 190 -190s190 84 190 190s-84 190 -190 190s-190 -84 -190 -190z" />
    <glyph glyph-name="brokenbar" unicode="&#xa6;" horiz-adv-x="450" 
d="M208 206h34v-430h-34v430zM242 399h-34v430h34v-430z" />
    <glyph glyph-name="section" unicode="&#xa7;" horiz-adv-x="550" 
d="M428 562h-44c0 98 -44 123 -112 123c-14 0 -107 -1 -107 -89c0 -70 45 -78 170 -131c97 -42 162 -83 162 -183c0 -108 -81 -154 -134 -169c60 -29 73 -72 73 -113c0 -76 -52 -137 -161 -137c-140 0 -166 96 -166 171h44c0 -42 13 -129 122 -129c58 0 113 26 113 92
c0 75 -66 87 -154 123c-121 50 -181 102 -181 199c0 109 79 149 138 163c-59 34 -74 67 -74 119c0 99 87 126 156 126c89 0 156 -41 155 -165zM314 136c128 35 133 113 133 143c0 89 -59 123 -214 177c-56 -8 -130 -42 -130 -134c0 -94 53 -124 211 -186z" />
    <glyph glyph-name="copyright" unicode="&#xa9;" horiz-adv-x="800" 
d="M50 350c0 192 154 350 350 350c192 0 350 -156 350 -350s-158 -350 -350 -350c-196 0 -350 158 -350 350zM90 350c0 -176 135 -320 310 -320c169 0 310 143 310 320c0 179 -143 320 -310 320c-173 0 -310 -142 -310 -320zM504 297h44c-6 -36 -31 -125 -144 -125
c-102 0 -166 65 -166 179s53 188 162 188c75 0 142 -43 143 -115h-44c-4 40 -27 80 -99 80c-114 0 -116 -119 -116 -153c0 -139 96 -144 121 -144c79 0 96 64 99 90z" />
    <glyph glyph-name="guillemotleft" unicode="&#xab;" horiz-adv-x="462" 
d="M90 275l121 -102v-50l-149 130v44l149 130v-50zM266 275l121 -102v-50l-149 130v44l149 130v-50z" />
    <glyph glyph-name="logicalnot" unicode="&#xac;" horiz-adv-x="600" 
d="M50 360h500v-170h-30v140h-470v30z" />
    <glyph glyph-name="registered" unicode="&#xae;" horiz-adv-x="800" 
d="M50 350c0 193 157 350 350 350c195 0 350 -157 350 -350s-155 -350 -350 -350c-193 0 -350 157 -350 350zM90 350c0 -176 140 -320 310 -320c174 0 310 143 310 320c0 179 -138 320 -310 320c-168 0 -310 -142 -310 -320zM272 178v350h151c110 0 119 -70 119 -101
c0 -52 -36 -75 -59 -84v-2c45 -10 48 -45 50 -80c3 -54 0 -64 14 -83h-47c-12 14 -11 22 -13 80c-1 32 -3 65 -77 65h-94v-145h-44zM316 493v-135h96c43 0 84 20 84 69c0 54 -48 66 -91 66h-89z" />
    <glyph glyph-name="degree" unicode="&#xb0;" horiz-adv-x="264" 
d="M37 605c0 52 43 95 95 95s95 -43 95 -95s-43 -95 -95 -95s-95 43 -95 95zM67 605c0 -36 29 -65 65 -65s65 29 65 65s-29 65 -65 65s-65 -29 -65 -65z" />
    <glyph glyph-name="plusminus" unicode="&#xb1;" horiz-adv-x="600" 
d="M50 435h235v215h30v-215h235v-30h-235v-195h-30v195h-235v30zM50 110h500v-30h-500v30z" />
    <glyph glyph-name="mu" unicode="&#xb5;" horiz-adv-x="554" 
d="M123 62v-247h-44v693h44v-277c0 -43 -5 -209 147 -209c142 0 147 146 147 209v277h44v-414c0 -29 1 -65 43 -61l10 1v-34c-10 -2 -22 -4 -33 -4c-58 0 -64 54 -64 76c-37 -64 -87 -92 -147 -92c-56 0 -113 29 -147 82z" />
    <glyph glyph-name="mu" unicode="&#x3bc;" horiz-adv-x="554" 
d="M123 62v-247h-44v693h44v-277c0 -43 -5 -209 147 -209c142 0 147 146 147 209v277h44v-414c0 -29 1 -65 43 -61l10 1v-34c-10 -2 -22 -4 -33 -4c-58 0 -64 54 -64 76c-37 -64 -87 -92 -147 -92c-56 0 -113 29 -147 82z" />
    <glyph glyph-name="paragraph" unicode="&#xb6;" horiz-adv-x="400" 
d="M185 -185v595c-86 0 -145 63 -145 145c0 84 60 145 145 145h35v-885h-35zM298 -185v885h35v-885h-35z" />
    <glyph glyph-name="periodcentered" unicode="&#xb7;" horiz-adv-x="275" 
d="M110 230v74h55v-74h-55z" />
    <glyph glyph-name="periodcentered" unicode="&#x2219;" horiz-adv-x="275" 
d="M110 230v74h55v-74h-55z" />
    <glyph glyph-name="guillemotright" unicode="&#xbb;" horiz-adv-x="462" 
d="M372 275l-121 102v50l149 -130v-44l-149 -130v50zM196 275l-121 102v50l149 -130v-44l-149 -130v50z" />
    <glyph glyph-name="circumflex" unicode="&#x2c6;" horiz-adv-x="430" 
d="M215 680l-123 -112h-42l119 132h92l119 -132h-42z" />
    <glyph glyph-name="tilde" unicode="&#x2dc;" horiz-adv-x="450" 
d="M365 700h35c-7 -38 -32 -102 -101 -102c-36 0 -52 13 -84 41c-21 19 -39 39 -67 39c-31 0 -57 -28 -63 -70h-35c7 39 34 100 101 100c35 0 48 -11 80 -40c21 -18 43 -40 71 -40c38 0 57 43 63 72z" />
    <glyph glyph-name="afii10023" unicode="&#x401;" horiz-adv-x="592" 
d="M140 385h383v-42h-383v-301h428v-42h-476v700h464v-42h-416v-273zM212 772v67h50v-67h-50zM400 772v67h50v-67h-50z" />
    <glyph glyph-name="afii10051" unicode="&#x402;" horiz-adv-x="718" 
d="M6 658v42h486v-42h-238v-265c11 1 109 7 153 7c212 0 245 -116 245 -201c0 -131 -80 -212 -211 -212c-33 0 -57 5 -79 13v42c22 -7 48 -13 75 -13c83 0 165 42 165 174c0 69 -24 155 -202 155c-41 0 -104 -4 -146 -7v-351h-48v658h-200z" />
    <glyph glyph-name="afii10052" unicode="&#x403;" horiz-adv-x="526" 
d="M140 658v-658h-48v700h428v-42h-380zM341 900h66l-96 -140h-40z" />
    <glyph glyph-name="afii10053" unicode="&#x404;" horiz-adv-x="717" 
d="M490 386v-42h-374c4 -153 72 -323 265 -323c196 0 230 153 236 201h50c-10 -95 -75 -243 -287 -243c-293 0 -314 293 -314 359c0 229 104 383 317 383s271 -132 276 -223h-50c-4 75 -56 181 -226 181c-215 0 -262 -184 -267 -293h374z" />
    <glyph glyph-name="afii10054" unicode="&#x405;" horiz-adv-x="634" 
d="M53 219h50c-1 -87 51 -193 224 -193c187 0 204 116 204 161c0 102 -95 130 -168 146c-149 32 -297 42 -297 193c0 84 49 197 252 197c182 0 236 -115 243 -199h-50c-4 47 -32 157 -196 157c-126 0 -199 -62 -199 -150c0 -123 126 -126 249 -151c91 -19 216 -52 216 -194
c0 -78 -34 -202 -255 -202c-218 0 -274 133 -273 235z" />
    <glyph glyph-name="afii10055" unicode="&#x406;" horiz-adv-x="232" 
d="M92 700h48v-700h-48v700z" />
    <glyph glyph-name="afii10056" unicode="&#x407;" horiz-adv-x="232" 
d="M92 700h48v-700h-48v700zM33 772v67h50v-67h-50zM149 772v67h50v-67h-50z" />
    <glyph glyph-name="afii10057" unicode="&#x408;" horiz-adv-x="493" 
d="M30 217h48v-29c1 -41 12 -166 148 -166c71 0 140 24 140 212v466h48v-466c0 -91 -9 -254 -190 -254c-158 0 -194 119 -194 205v32z" />
    <glyph glyph-name="afii10058" unicode="&#x409;" horiz-adv-x="1032" 
d="M0 0v42c8 -1 16 -1 24 -1c152 0 151 248 151 450v209h385v-304h199c194 0 233 -111 233 -198c0 -186 -157 -198 -221 -198h-259v658h-289v-161c0 -371 -47 -498 -190 -498c-11 0 -22 0 -33 1zM560 354v-312h211c149 0 171 93 171 154c0 88 -50 158 -182 158h-200z" />
    <glyph glyph-name="afii10059" unicode="&#x40a;" horiz-adv-x="1068" 
d="M140 350v-350h-48v700h48v-308h408v308h48v-304h199c194 0 233 -111 233 -198c0 -186 -157 -198 -221 -198h-259v350h-408zM596 354v-312h211c149 0 171 93 171 154c0 88 -50 158 -182 158h-200z" />
    <glyph glyph-name="afii10060" unicode="&#x40b;" horiz-adv-x="720" 
d="M648 0h-48v236c0 108 -54 122 -198 122c-44 0 -118 -5 -148 -7v-351h-48v658h-200v42h486v-42h-238v-265c45 3 104 7 152 7c226 0 242 -60 242 -168v-232z" />
    <glyph glyph-name="afii10061" unicode="&#x40c;" horiz-adv-x="583" 
d="M140 376l362 324h64l-364 -326l381 -374h-70l-373 368v-368h-48v700h48v-324zM349 900h66l-96 -140h-40z" />
    <glyph glyph-name="afii10062" unicode="&#x40e;" horiz-adv-x="549" 
d="M303 221l194 479h52l-239 -590c-40 -100 -87 -120 -152 -120c-23 0 -40 2 -60 9v42c9 -3 31 -9 57 -9c48 0 86 19 123 128l-265 540h59zM158 852h44c4 -51 43 -87 102 -87s98 36 102 87h44c-6 -65 -57 -122 -146 -122s-140 57 -146 122z" />
    <glyph glyph-name="afii10145" unicode="&#x40f;" horiz-adv-x="688" 
d="M548 42v658h48v-700h-228v-185h-48v185h-228v700h48v-658h408z" />
    <glyph glyph-name="afii10017" unicode="&#x410;" horiz-adv-x="600" 
d="M142 227l-86 -227h-53l267 700h60l267 -700h-53l-86 227h-316zM157 269h286l-143 391z" />
    <glyph glyph-name="afii10018" unicode="&#x411;" horiz-adv-x="648" 
d="M140 658v-262h229c194 0 233 -111 233 -198c0 -186 -163 -198 -231 -198h-279v700h464v-42h-416zM140 354v-312h231c139 0 181 72 181 154c0 66 -31 158 -182 158h-230z" />
    <glyph glyph-name="afii10019" unicode="&#x412;" horiz-adv-x="674" 
d="M92 700h275c167 0 204 -94 204 -174c0 -99 -65 -143 -118 -156v-2c84 -9 149 -75 149 -174c0 -95 -49 -194 -242 -194h-268v700zM140 658v-273h216c139 0 167 80 167 144c0 127 -127 129 -156 129h-227zM140 343v-301h221c47 0 191 1 191 152c0 116 -80 149 -195 149
h-217z" />
    <glyph glyph-name="afii10020" unicode="&#x413;" horiz-adv-x="526" 
d="M140 658v-658h-48v700h428v-42h-380z" />
    <glyph glyph-name="afii10021" unicode="&#x414;" horiz-adv-x="704" 
d="M590 42h101l-6 -200h-44v158h-591v-158h-44l-6 200h66c55 60 150 196 150 524v134h374v-658zM542 658h-278v-91c0 -267 -59 -416 -140 -525h418v616z" />
    <glyph glyph-name="afii10022" unicode="&#x415;" horiz-adv-x="592" 
d="M140 385h383v-42h-383v-301h428v-42h-476v700h464v-42h-416v-273z" />
    <glyph glyph-name="afii10024" unicode="&#x416;" horiz-adv-x="838" 
d="M395 0v368l-334 -368h-61l342 374l-336 326h57l332 -324v324h48v-324l332 324h57l-336 -326l342 -374h-61l-334 368v-368h-48z" />
    <glyph glyph-name="afii10025" unicode="&#x417;" horiz-adv-x="643" 
d="M53 199h48c4 -47 28 -178 227 -178c123 0 199 65 199 169c0 151 -140 162 -187 162h-87v42h83c59 0 164 19 164 137c0 57 -30 148 -185 148c-152 0 -193 -89 -196 -152h-48c5 75 48 194 245 194c159 0 232 -87 232 -193c0 -94 -67 -138 -121 -150v-2
c81 -14 150 -75 150 -189c0 -65 -31 -208 -247 -208c-228 0 -273 136 -277 220z" />
    <glyph glyph-name="afii10026" unicode="&#x418;" horiz-adv-x="712" 
d="M140 66l428 634h52v-700h-48v637l-428 -637h-52v700h48v-634z" />
    <glyph glyph-name="afii10027" unicode="&#x419;" horiz-adv-x="712" 
d="M140 66l428 634h52v-700h-48v637l-428 -637h-52v700h48v-634zM210 852h44c4 -51 43 -87 102 -87s98 36 102 87h44c-6 -65 -57 -122 -146 -122s-140 57 -146 122z" />
    <glyph glyph-name="afii10028" unicode="&#x41a;" horiz-adv-x="583" 
d="M140 376l362 324h64l-364 -326l381 -374h-70l-373 368v-368h-48v700h48v-324z" />
    <glyph glyph-name="afii10029" unicode="&#x41b;" horiz-adv-x="652" 
d="M0 0v42c8 -1 16 -1 24 -1c152 0 151 248 151 450v209h385v-700h-48v658h-289v-161c0 -371 -47 -498 -190 -498c-11 0 -22 0 -33 1z" />
    <glyph glyph-name="afii10030" unicode="&#x41c;" horiz-adv-x="844" 
d="M398 0l-258 634h-2l2 -27v-607h-48v700h73l257 -637l257 637h73v-700h-48v607l2 27h-2l-258 -634h-48z" />
    <glyph glyph-name="afii10031" unicode="&#x41d;" horiz-adv-x="688" 
d="M140 350v-350h-48v700h48v-308h408v308h48v-700h-48v350h-408z" />
    <glyph glyph-name="afii10032" unicode="&#x41e;" horiz-adv-x="778" 
d="M66 350c0 231 118 371 323 371s323 -141 323 -371s-118 -371 -323 -371s-323 140 -323 371zM116 350c0 -245 134 -329 273 -329s273 84 273 329s-134 329 -273 329s-273 -84 -273 -329z" />
    <glyph glyph-name="afii10033" unicode="&#x41f;" horiz-adv-x="688" 
d="M140 658v-658h-48v700h504v-700h-48v658h-408z" />
    <glyph glyph-name="afii10034" unicode="&#x420;" horiz-adv-x="614" 
d="M92 700h256c74 0 226 -11 226 -190c0 -200 -187 -202 -238 -202h-196v-308h-48v700zM140 658v-308h196c140 0 188 66 188 159c0 136 -117 149 -188 149h-196z" />
    <glyph glyph-name="afii10035" unicode="&#x421;" horiz-adv-x="717" 
d="M617 222h50c-10 -95 -75 -243 -287 -243c-293 0 -314 293 -314 359c0 229 104 383 317 383s271 -132 276 -223h-50c-5 92 -74 181 -226 181c-172 0 -267 -131 -267 -339c0 -188 98 -319 265 -319c163 0 227 113 236 201z" />
    <glyph glyph-name="afii10036" unicode="&#x422;" horiz-adv-x="536" 
d="M244 658h-238v42h524v-42h-238v-658h-48v658z" />
    <glyph glyph-name="afii10037" unicode="&#x423;" horiz-adv-x="549" 
d="M303 221l194 479h52l-239 -590c-40 -100 -87 -120 -152 -120c-23 0 -40 2 -60 9v42c9 -3 31 -9 57 -9c48 0 86 19 123 128l-265 540h59z" />
    <glyph glyph-name="afii10038" unicode="&#x424;" horiz-adv-x="852" 
d="M402 -20v110h-67c-228 0 -287 145 -287 267c0 120 50 263 299 263h55v100h48v-100h55c249 0 299 -143 299 -263c0 -242 -200 -267 -287 -267h-67v-110h-48zM402 132v446h-49c-237 0 -255 -147 -255 -222c0 -102 44 -224 238 -224h66zM450 132h66c194 0 238 122 238 224
c0 75 -18 222 -255 222h-49v-446z" />
    <glyph glyph-name="afii10039" unicode="&#x425;" horiz-adv-x="542" 
d="M271 395l203 305h58l-228 -342l234 -358h-62l-205 320l-205 -320h-62l234 358l-228 342h58z" />
    <glyph glyph-name="afii10040" unicode="&#x426;" horiz-adv-x="710" 
d="M140 42h408v658h48v-658h101l-6 -200h-44v158h-555v700h48v-658z" />
    <glyph glyph-name="afii10041" unicode="&#x427;" horiz-adv-x="606" 
d="M72 700h48v-227c0 -114 61 -122 198 -122c45 0 116 5 148 7v342h48v-700h-48v316c-45 -3 -104 -7 -152 -7c-181 0 -242 28 -242 168v223z" />
    <glyph glyph-name="afii10042" unicode="&#x428;" horiz-adv-x="1024" 
d="M140 42h348v658h48v-658h348v658h48v-700h-840v700h48v-658z" />
    <glyph glyph-name="afii10043" unicode="&#x429;" horiz-adv-x="1046" 
d="M140 42h348v658h48v-658h348v658h48v-658h101l-6 -200h-44v158h-891v700h48v-658z" />
    <glyph glyph-name="afii10044" unicode="&#x42a;" horiz-adv-x="684" 
d="M212 700v-304h199c194 0 233 -111 233 -198c0 -186 -157 -198 -221 -198h-259v658h-160v42h208zM212 354v-312h211c149 0 171 93 171 154c0 88 -50 158 -182 158h-200z" />
    <glyph glyph-name="afii10045" unicode="&#x42b;" horiz-adv-x="806" 
d="M140 700v-304h199c194 0 233 -111 233 -198c0 -186 -157 -198 -221 -198h-259v700h48zM140 354v-312h211c149 0 171 93 171 154c0 88 -50 158 -182 158h-200zM666 700h48v-700h-48v700z" />
    <glyph glyph-name="afii10046" unicode="&#x42c;" horiz-adv-x="612" 
d="M140 700v-304h199c194 0 233 -111 233 -198c0 -186 -157 -198 -221 -198h-259v700h48zM140 354v-312h211c149 0 171 93 171 154c0 88 -50 158 -182 158h-200z" />
    <glyph glyph-name="afii10047" unicode="&#x42d;" horiz-adv-x="717" 
d="M227 386h374c-3 69 -26 295 -252 295c-175 0 -228 -105 -235 -183h-50c8 92 62 225 286 225c290 0 301 -293 301 -369c0 -196 -86 -381 -315 -381c-211 0 -277 152 -286 249h50c7 -84 66 -207 236 -207c204 0 267 186 265 329h-374v42z" />
    <glyph glyph-name="afii10048" unicode="&#x42e;" horiz-adv-x="971" 
d="M140 391h120c5 90 47 330 322 330c205 0 323 -141 323 -371s-118 -371 -323 -371c-274 0 -324 238 -323 370h-119v-349h-48v700h48v-309zM582 21c139 0 273 84 273 329s-134 329 -273 329s-273 -84 -273 -329s134 -329 273 -329z" />
    <glyph glyph-name="afii10049" unicode="&#x42f;" horiz-adv-x="666" 
d="M526 301h-222l-177 -301h-55l182 305c-72 8 -182 48 -182 194c0 140 104 201 236 201h266v-700h-48v301zM526 658h-223c-150 0 -181 -97 -181 -157c0 -87 44 -158 190 -158h214v315z" />
    <glyph glyph-name="afii10065" unicode="&#x430;" horiz-adv-x="537" 
d="M114 367h-44c1 65 33 161 194 161c163 0 181 -96 180 -159l-5 -278c0 -11 -1 -60 39 -60c6 0 13 1 19 3v-34c-7 -2 -19 -5 -33 -5c-60 0 -71 51 -69 94c-24 -47 -76 -101 -181 -101c-77 0 -168 29 -168 146c0 139 144 147 211 153c128 12 143 5 143 88
c0 116 -110 118 -136 118c-126 0 -149 -71 -150 -126zM395 218l1 63c-29 -23 -60 -20 -144 -30c-107 -13 -160 -33 -160 -117c0 -67 48 -111 123 -111c81 0 178 47 180 195z" />
    <glyph glyph-name="afii10066" unicode="&#x431;" horiz-adv-x="591" 
d="M463 725h44c-6 -101 -134 -79 -231 -101c-82 -19 -154 -71 -163 -224h2c8 23 47 120 193 120c198 0 230 -162 230 -269c0 -242 -148 -272 -234 -272c-94 0 -236 28 -236 304c0 288 85 360 206 385c98 20 175 4 189 57zM114 255c0 -47 10 -241 187 -241
c51 0 191 11 191 238c0 126 -44 233 -187 233c-183 0 -191 -173 -191 -230z" />
    <glyph glyph-name="afii10067" unicode="&#x432;" horiz-adv-x="508" 
d="M79 508h198c54 0 156 -9 156 -127c0 -72 -54 -101 -85 -111v-2c86 -19 105 -84 105 -129c0 -132 -118 -139 -180 -139h-194v508zM123 473v-188h148c19 0 118 1 118 97c0 92 -93 91 -112 91h-154zM123 250v-215h149c112 0 135 60 135 104c0 106 -96 111 -137 111h-147z
" />
    <glyph glyph-name="afii10068" unicode="&#x433;" horiz-adv-x="403" 
d="M123 473v-473h-44v508h318v-35h-274z" />
    <glyph glyph-name="afii10069" unicode="&#x434;" horiz-adv-x="562" 
d="M4 35h57c46 65 85 160 85 393v80h319v-473h89l-3 -167h-41v132h-462v-132h-41zM421 473h-233v-83c0 -201 -51 -306 -80 -355h313v438z" />
    <glyph glyph-name="afii10070" unicode="&#x435;" horiz-adv-x="558" 
d="M455 147h44c-12 -65 -61 -167 -212 -167c-42 0 -234 1 -234 281c0 47 6 267 234 267c77 0 221 -23 218 -279h-406c1 -88 32 -234 190 -234c98 0 153 61 166 132zM99 284h359c0 76 -27 209 -174 209c-151 0 -183 -135 -185 -209z" />
    <glyph glyph-name="afii10072" unicode="&#x436;" horiz-adv-x="634" 
d="M295 0v263l-239 -263h-56l247 266l-232 242h54l226 -239v239h44v-239l226 239h54l-232 -242l247 -266h-56l-239 263v-263h-44z" />
    <glyph glyph-name="afii10073" unicode="&#x437;" horiz-adv-x="487" 
d="M40 152h44c2 -75 61 -137 154 -137c55 0 153 16 153 123c0 86 -61 118 -134 118h-85v35h79c106 0 128 55 128 101c0 74 -69 101 -133 101c-107 0 -134 -64 -138 -108h-44c5 53 35 143 184 143c160 0 175 -98 175 -139c0 -81 -66 -107 -92 -114v-2
c66 -11 106 -68 106 -138c0 -69 -44 -155 -199 -155c-154 0 -198 103 -198 172z" />
    <glyph glyph-name="afii10074" unicode="&#x438;" horiz-adv-x="556" 
d="M123 50l302 458h52v-508h-44v458l-302 -458h-52v508h44v-458z" />
    <glyph glyph-name="afii10075" unicode="&#x439;" horiz-adv-x="556" 
d="M123 50l302 458h52v-508h-44v458l-302 -458h-52v508h44v-458zM379 700h37c-6 -56 -47 -117 -138 -117s-132 61 -138 117h37c3 -43 34 -87 101 -87s98 44 101 87z" />
    <glyph glyph-name="afii10076" unicode="&#x43a;" horiz-adv-x="444" 
d="M123 273l249 235h56l-254 -235l270 -273h-60l-261 265v-265h-44v508h44v-235z" />
    <glyph glyph-name="afii10077" unicode="&#x43b;" horiz-adv-x="515" 
d="M6 0v35c7 -1 13 -1 20 -1c106 0 109 132 109 314v160h301v-508h-44v473h-215v-124c0 -272 -38 -350 -149 -350c-7 0 -15 0 -22 1z" />
    <glyph glyph-name="afii10078" unicode="&#x43c;" horiz-adv-x="684" 
d="M319 0l-196 452h-2l2 -27v-425h-44v508h62l201 -458l200 458h63v-508h-44v425l2 27h-2l-197 -452h-45z" />
    <glyph glyph-name="afii10079" unicode="&#x43d;" horiz-adv-x="540" 
d="M123 252v-252h-44v508h44v-221h294v221h44v-508h-44v252h-294z" />
    <glyph glyph-name="afii10080" unicode="&#x43e;" horiz-adv-x="574" 
d="M53 254c0 151 67 274 234 274s234 -123 234 -274s-67 -274 -234 -274s-234 123 -234 274zM99 254c0 -144 61 -239 188 -239s188 95 188 239s-61 239 -188 239s-188 -95 -188 -239z" />
    <glyph glyph-name="afii10081" unicode="&#x43f;" horiz-adv-x="543" 
d="M123 473v-473h-44v508h385v-508h-44v473h-297z" />
    <glyph glyph-name="afii10082" unicode="&#x440;" horiz-adv-x="570" 
d="M79 508h44v-81h2c32 70 103 101 174 101c159 0 218 -126 218 -267s-58 -281 -220 -281c-77 0 -139 32 -174 105v-270h-44v693zM121 251c0 -172 92 -236 178 -236c69 0 172 37 172 247c0 137 -60 231 -170 231c-113 0 -180 -94 -180 -242z" />
    <glyph glyph-name="afii10083" unicode="&#x441;" horiz-adv-x="527" 
d="M444 174h43c-21 -183 -143 -194 -203 -194c-160 0 -231 120 -231 282c0 145 64 266 231 266c146 0 190 -96 197 -165h-43c-9 68 -58 130 -154 130c-118 0 -185 -89 -185 -228c0 -199 103 -250 185 -250c131 0 155 118 160 159z" />
    <glyph glyph-name="afii10084" unicode="&#x442;" horiz-adv-x="412" 
d="M184 473h-178v35h400v-35h-178v-473h-44v473z" />
    <glyph glyph-name="afii10085" unicode="&#x443;" horiz-adv-x="447" 
d="M79 -185v37c17 -3 30 -3 35 -3c52 0 62 21 86 93l19 57l-206 509h53l176 -456l160 456h45l-214 -590c-17 -46 -31 -107 -115 -107c-9 0 -23 1 -39 4z" />
    <glyph glyph-name="afii10086" unicode="&#x444;" horiz-adv-x="744" 
d="M350 -185v172c-242 4 -297 146 -297 269c0 239 188 268 297 264v180h44v-180c107 3 297 -33 297 -265c0 -122 -51 -264 -297 -268v-172h-44zM350 22v463c-210 4 -251 -125 -251 -229c0 -123 59 -233 251 -234zM394 485v-463c194 1 251 111 251 233c0 83 -29 231 -251 230
z" />
    <glyph glyph-name="afii10087" unicode="&#x445;" horiz-adv-x="434" 
d="M217 297l146 211h53l-171 -243l189 -265h-57l-160 236l-160 -236h-57l189 265l-172 243h54z" />
    <glyph glyph-name="afii10088" unicode="&#x446;" horiz-adv-x="560" 
d="M123 35h296v473h44v-473h89l-3 -167h-41v132h-429v508h44v-473z" />
    <glyph glyph-name="afii10089" unicode="&#x447;" horiz-adv-x="474" 
d="M53 508h44v-178c0 -49 -4 -78 128 -78c45 0 96 2 126 4v252h44v-508h-44v221c-44 -3 -80 -4 -123 -4c-172 0 -175 40 -175 111v180z" />
    <glyph glyph-name="afii10090" unicode="&#x448;" horiz-adv-x="774" 
d="M123 35h242v473h44v-473h242v473h44v-508h-616v508h44v-473z" />
    <glyph glyph-name="afii10091" unicode="&#x449;" horiz-adv-x="792" 
d="M123 35h242v473h44v-473h242v473h44v-473h89l-3 -167h-41v132h-661v508h44v-473z" />
    <glyph glyph-name="afii10092" unicode="&#x44a;" horiz-adv-x="552" 
d="M6 473v35h172v-208h139c46 0 195 9 195 -152c0 -145 -142 -148 -177 -148h-201v473h-128zM178 265v-230h149c52 0 139 14 139 118c0 106 -90 112 -145 112h-143z" />
    <glyph glyph-name="afii10093" unicode="&#x44b;" horiz-adv-x="646" 
d="M79 508h44v-208h139c46 0 195 9 195 -152c0 -145 -142 -148 -177 -148h-201v508zM123 265v-230h149c52 0 139 14 139 118c0 106 -90 112 -145 112h-143zM523 508h44v-508h-44v508z" />
    <glyph glyph-name="afii10094" unicode="&#x44c;" horiz-adv-x="497" 
d="M79 508h44v-208h139c46 0 195 9 195 -152c0 -145 -142 -148 -177 -148h-201v508zM123 265v-230h149c52 0 139 14 139 118c0 106 -90 112 -145 112h-143z" />
    <glyph glyph-name="afii10095" unicode="&#x44d;" horiz-adv-x="520" 
d="M173 251v35h248c0 53 -13 207 -171 207c-98 0 -154 -62 -158 -130h-45c4 81 67 165 205 165c210 0 215 -199 215 -264c0 -258 -135 -284 -215 -284c-161 0 -209 108 -212 188h46c0 -70 49 -153 166 -153c153 0 170 155 169 236h-248z" />
    <glyph glyph-name="afii10096" unicode="&#x44e;" horiz-adv-x="731" 
d="M123 286h88c3 55 26 242 233 242c167 0 234 -123 234 -274s-67 -274 -234 -274c-217 0 -234 204 -234 271h-87v-251h-44v508h44v-222zM256 254c0 -144 61 -239 188 -239s188 95 188 239s-61 239 -188 239s-188 -95 -188 -239z" />
    <glyph glyph-name="afii10097" unicode="&#x44f;" horiz-adv-x="507" 
d="M217 215l-127 -215h-50l133 216c-39 5 -123 30 -123 141c0 76 39 151 155 151h223v-508h-44v215h-167zM384 473h-156c-43 0 -132 -3 -132 -115c0 -78 50 -108 139 -108h149v223z" />
    <glyph glyph-name="afii10071" unicode="&#x451;" horiz-adv-x="558" 
d="M455 147h44c-12 -65 -61 -167 -212 -167c-42 0 -234 1 -234 281c0 47 6 267 234 267c57 0 218 -13 218 -260v-19h-406c1 -88 32 -234 190 -234c98 0 153 61 166 132zM99 284h359c0 76 -27 209 -174 209c-151 0 -183 -135 -185 -209zM150 627v73h50v-73h-50zM358 627v73
h50v-73h-50z" />
    <glyph glyph-name="afii10099" unicode="&#x452;" horiz-adv-x="540" 
d="M79 700h44v-70h220v-35h-220v-164c40 71 112 97 175 97c168 0 173 -156 173 -319c0 -177 -3 -393 -206 -394v35h13c149 0 147 199 147 357c0 185 -22 286 -129 286c-82 0 -173 -52 -173 -199v-294h-44v595h-80v35h80v70z" />
    <glyph glyph-name="afii10100" unicode="&#x453;" horiz-adv-x="403" 
d="M123 473v-473h-44v508h318v-35h-274zM272 700h60l-95 -132h-35z" />
    <glyph glyph-name="afii10101" unicode="&#x454;" horiz-adv-x="527" 
d="M347 286v-35h-248c1 -42 11 -236 185 -236c131 0 155 118 160 159h43c-21 -179 -140 -194 -203 -194c-160 0 -231 120 -231 282c0 145 64 266 231 266c150 0 190 -99 197 -165h-43c-9 68 -58 130 -154 130c-147 0 -183 -132 -185 -207h248z" />
    <glyph glyph-name="afii10102" unicode="&#x455;" horiz-adv-x="470" 
d="M40 145h45c0 -68 51 -130 154 -130c114 0 145 66 145 115c0 68 -56 86 -122 103c-18 5 -37 9 -55 13c-89 21 -152 50 -152 146c0 34 13 136 174 136c154 0 182 -95 186 -150h-45c-2 44 -27 115 -139 115c-95 0 -130 -49 -130 -103c0 -80 61 -89 155 -112
c100 -24 174 -46 174 -143c0 -145 -150 -155 -189 -155c-144 0 -201 84 -201 165z" />
    <glyph glyph-name="afii10103" unicode="&#x456;" horiz-adv-x="202" 
d="M79 508h44v-508h-44v508zM76 627v73h50v-73h-50z" />
    <glyph glyph-name="afii10104" unicode="&#x457;" horiz-adv-x="202" 
d="M79 508h44v-508h-44v508zM29 627v73h50v-73h-50zM123 627v73h50v-73h-50z" />
    <glyph glyph-name="afii10105" unicode="&#x458;" horiz-adv-x="202" 
d="M79 508h44v-571c0 -81 -22 -124 -99 -124c-12 0 -23 1 -31 2v37c5 -1 9 -1 14 -1c43 0 72 9 72 92v565zM76 627v73h50v-73h-50z" />
    <glyph glyph-name="afii10106" unicode="&#x459;" horiz-adv-x="810" 
d="M6 0v35c7 -1 13 -1 20 -1c106 0 109 132 109 314v160h301v-208h139c46 0 195 9 195 -152c0 -145 -142 -148 -177 -148h-201v473h-215v-124c0 -272 -38 -350 -149 -350c-7 0 -15 0 -22 1zM436 265v-230h149c52 0 139 14 139 118c0 108 -90 112 -145 112h-143z" />
    <glyph glyph-name="afii10107" unicode="&#x45a;" horiz-adv-x="835" 
d="M123 265v-265h-44v508h44v-208h294v208h44v-208h139c46 0 195 9 195 -152c0 -145 -142 -148 -177 -148h-201v265h-294zM461 265v-230h149c52 0 139 14 139 118c0 106 -90 112 -145 112h-143z" />
    <glyph glyph-name="afii10108" unicode="&#x45b;" horiz-adv-x="540" 
d="M79 700h44v-70h220v-35h-220v-164c52 92 149 97 175 97c151 0 163 -117 163 -178v-350h-44v323c0 63 0 170 -121 170c-82 0 -173 -52 -173 -199v-294h-44v595h-80v35h80v70z" />
    <glyph glyph-name="afii10109" unicode="&#x45c;" horiz-adv-x="444" 
d="M123 273l249 235h56l-254 -235l270 -273h-60l-261 265v-265h-44v508h44v-235zM284 700h60l-95 -132h-35z" />
    <glyph glyph-name="afii10110" unicode="&#x45e;" horiz-adv-x="447" 
d="M79 -185v37c17 -3 30 -3 35 -3c52 0 62 21 86 93l19 57l-206 509h53l176 -456l160 456h45l-214 -590c-17 -46 -31 -107 -115 -107c-9 0 -23 1 -39 4zM105 700h37c3 -43 34 -87 101 -87s98 44 101 87h37c-6 -56 -47 -117 -138 -117s-132 61 -138 117z" />
    <glyph glyph-name="afii10193" unicode="&#x45f;" horiz-adv-x="542" 
d="M419 35v473h44v-508h-170v-185h-44v185h-170v508h44v-473h296z" />
    <glyph glyph-name="afii10050" unicode="&#x490;" horiz-adv-x="526" 
d="M140 658v-658h-48v700h378v158h44l6 -200h-380z" />
    <glyph glyph-name="afii10098" unicode="&#x491;" horiz-adv-x="403" 
d="M123 473v-473h-44v508h274v132h41l3 -167h-274z" />
    <glyph glyph-name="endash" unicode="&#x2013;" horiz-adv-x="600" 
d="M50 280h500v-30h-500v30z" />
    <glyph glyph-name="emdash" unicode="&#x2014;" horiz-adv-x="984" 
d="M50 250v30h884v-30h-884z" />
    <glyph glyph-name="quoteleft" unicode="&#x2018;" horiz-adv-x="275" 
d="M165 508h-55v113c0 36 5 82 55 96v-36c-11 -4 -27 -14 -27 -60v-39h27v-74z" />
    <glyph glyph-name="quoteright" unicode="&#x2019;" horiz-adv-x="275" 
d="M110 700h55v-113c0 -36 -5 -82 -55 -96v36c11 4 27 14 27 60v39h-27v74z" />
    <glyph glyph-name="quotesinglbase" unicode="&#x201a;" horiz-adv-x="275" 
d="M110 74h55v-113c0 -36 -5 -82 -55 -96v36c11 4 27 14 27 60v39h-27v74z" />
    <glyph glyph-name="quotedblleft" unicode="&#x201c;" horiz-adv-x="320" 
d="M250 508h-55v113c0 36 5 82 55 96v-36c-11 -4 -27 -14 -27 -60v-39h27v-74zM125 508h-55v113c0 36 5 82 55 96v-36c-11 -4 -27 -14 -27 -60v-39h27v-74z" />
    <glyph glyph-name="quotedblright" unicode="&#x201d;" horiz-adv-x="320" 
d="M70 700h55v-113c0 -36 -5 -82 -55 -96v36c11 4 27 14 27 60v39h-27v74zM195 700h55v-113c0 -36 -5 -82 -55 -96v36c11 4 27 14 27 60v39h-27v74z" />
    <glyph glyph-name="quotedblbase" unicode="&#x201e;" horiz-adv-x="320" 
d="M70 74h55v-113c0 -36 -5 -82 -55 -96v36c11 4 27 14 27 60v39h-27v74zM195 74h55v-113c0 -36 -5 -82 -55 -96v36c11 4 27 14 27 60v39h-27v74z" />
    <glyph glyph-name="dagger" unicode="&#x2020;" horiz-adv-x="480" 
d="M218 700h44v-192h185v-35h-185v-658h-44v658h-185v35h185v192z" />
    <glyph glyph-name="daggerdbl" unicode="&#x2021;" horiz-adv-x="480" 
d="M218 700h44v-192h185v-35h-185v-225h185v-35h-185v-398h-44v398h-185v35h185v225h-185v35h185v192z" />
    <glyph glyph-name="bullet" unicode="&#x2022;" horiz-adv-x="500" 
d="M170 350c0 44 36 80 80 80s80 -36 80 -80s-36 -80 -80 -80s-80 36 -80 80z" />
    <glyph glyph-name="ellipsis" unicode="&#x2026;" horiz-adv-x="825" 
d="M110 0v74h55v-74h-55zM385 0v74h55v-74h-55zM660 0v74h55v-74h-55z" />
    <glyph glyph-name="perthousand" unicode="&#x2030;" horiz-adv-x="1250" 
d="M165 0l499 700h41l-499 -700h-41zM53 508c0 160 103 200 160 200s160 -40 160 -200s-103 -200 -160 -200s-160 40 -160 200zM99 508c0 -79 32 -165 114 -165s114 86 114 165s-32 165 -114 165s-114 -86 -114 -165zM497 192c0 160 103 200 160 200s160 -40 160 -200
s-103 -200 -160 -200s-160 40 -160 200zM543 192c0 -79 32 -165 114 -165s114 86 114 165s-32 165 -114 165s-114 -86 -114 -165zM877 192c0 160 103 200 160 200s160 -40 160 -200s-103 -200 -160 -200s-160 40 -160 200zM923 192c0 -79 32 -165 114 -165s114 86 114 165
s-32 165 -114 165s-114 -86 -114 -165z" />
    <glyph glyph-name="Euro" unicode="&#x20ac;" 
d="M521 664v-54c-35 36 -90 65 -164 65c-133 0 -197 -112 -210 -238h323l-14 -41h-314c-1 -12 -1 -31 -1 -45c0 -16 1 -32 1 -44h283l-14 -41h-264c18 -151 91 -241 211 -241c73 0 124 28 163 66v-55c-29 -28 -89 -56 -168 -56c-142 0 -231 94 -253 286h-69l15 41h50
c-1 11 -2 32 -2 45c0 15 1 32 1 44h-64l15 41h53c18 157 91 284 254 284c78 0 137 -28 168 -57z" />
    <glyph glyph-name="trademark" unicode="&#x2122;" horiz-adv-x="745" 
d="M133 665h-113v35h270v-35h-113v-315h-44v315zM515 350l-104 278h-2l3 -45v-233h-44v350h56l97 -255l9 -35h2l9 35l95 255h56v-350h-44v233l3 45h-2l-104 -278h-30z" />
    <glyph glyph-name="hyphenminus" horiz-adv-x="404" 
d="M70 230v70h264v-70h-264z" />
    <glyph glyph-name="quilsinglleft" horiz-adv-x="286" 
d="M90 275l121 -102v-50l-149 130v44l149 130v-50z" />
    <glyph glyph-name="quilsinglright" horiz-adv-x="286" 
d="M196 275l-121 102v50l149 -130v-44l-149 -130v50z" />
    <glyph glyph-name="numero" horiz-adv-x="1040" 
d="M140 634v-634h-48v700h60l421 -634v634h48v-700h-60zM697 480c0 146 98 180 150 180s150 -34 150 -180s-98 -180 -150 -180s-150 34 -150 180zM742 480c0 -51 19 -145 105 -145s105 94 105 145s-19 145 -105 145s-105 -94 -105 -145zM710 158v42h274v-42h-274z" />
    </font>
</defs>
</svg>
