<?xml version="1.0" standalone="no"?>
<!DOCTYPE svg PUBLIC "-//W3C//DTD SVG 1.1//EN" "http://www.w3.org/Graphics/SVG/1.1/DTD/svg11.dtd" >
<svg xmlns="http://www.w3.org/2000/svg">
<metadata></metadata>
<defs>
<font id="pf_highway_sans_prothin" horiz-adv-x="1204" >
<font-face units-per-em="2048" ascent="1536" descent="-512" />
<missing-glyph horiz-adv-x="436" />
<glyph horiz-adv-x="2048" />
<glyph horiz-adv-x="2048" />
<glyph unicode="&#xd;" horiz-adv-x="2048" />
<glyph unicode=" "  horiz-adv-x="436" />
<glyph unicode="&#x09;" horiz-adv-x="436" />
<glyph unicode="&#xa0;" horiz-adv-x="436" />
<glyph unicode="!" horiz-adv-x="468" d="M170 66q0 37 22.5 57t51.5 20q33 0 54 -22.5t21 -52.5q0 -35 -21.5 -56.5t-53.5 -21.5q-31 0 -52.5 21.5t-21.5 54.5zM197 686v647h96v-645l-23 -373h-55z" />
<glyph unicode="&#x22;" horiz-adv-x="626" d="M139 1333h109l-27 -411h-55zM377 1333h108l-26 -411h-56z" />
<glyph unicode="#" d="M51 414l12 80h240l62 368h-238l12 80h238l67 391h86l-65 -391h369l65 391h86l-65 -391h237l-14 -80h-238l-61 -368h237l-12 -80h-240l-71 -414h-86l71 414h-368l-70 -414h-90l74 414h-238zM387 492h371l63 372h-372z" />
<glyph unicode="$" d="M168 158l65 69q74 -66 162 -102.5t187 -36.5q72 0 134 14.5t109 45t74 79.5t27 119q0 102 -61.5 159.5t-153.5 92.5q-104 39 -196.5 69.5t-161 70.5t-109.5 100.5t-41 160.5q0 66 23.5 122.5t66.5 99.5t103.5 70.5t133.5 35.5v193h95v-191q195 -6 344 -121l-64 -73 q-72 53 -146.5 80.5t-172.5 27.5q-131 0 -208 -67.5t-77 -171.5q0 -51 20.5 -89t53.5 -66t76 -48.5t86 -36.5q74 -29 159.5 -55.5t158.5 -69.5t121 -111.5t48 -179.5q0 -72 -24.5 -133t-73.5 -107.5t-124 -74t-177 -33.5v-184h-95v184q-109 6 -199.5 48t-162.5 110z" />
<glyph unicode="%" horiz-adv-x="1650" d="M41 932q0 92 23.5 168t69.5 130t112.5 83.5t152.5 29.5q166 0 262.5 -111.5t96.5 -299.5t-96.5 -301t-262.5 -113q-172 0 -265 112.5t-93 301.5zM133 932q0 -66 15.5 -126.5t48 -106.5t83 -72.5t119.5 -26.5q68 0 118 26.5t83 72.5t48.5 106.5t15.5 126.5q0 70 -16.5 130 t-49.5 105t-82 70t-117 25q-135 0 -200.5 -92.5t-65.5 -237.5zM369 -53l827 1442h92l-827 -1442h-92zM893 401q0 92 23.5 168t69.5 130.5t112.5 84t152.5 29.5q82 0 148.5 -29.5t113 -83t72 -130.5t25.5 -169q0 -190 -96.5 -301.5t-262.5 -111.5q-172 0 -265 112.5 t-93 300.5zM985 401q0 -68 15.5 -128t48 -106t83 -72.5t119.5 -26.5q68 0 118 26.5t83 72.5t48.5 106t15.5 128q0 70 -16.5 130.5t-49.5 104.5t-82 69.5t-117 25.5q-135 0 -200.5 -92t-65.5 -238z" />
<glyph unicode="&#x26;" horiz-adv-x="1454" d="M154 406q0 125 73.5 245.5t221.5 216.5q-84 74 -123 149t-39 150q0 39 13 84t44 82t79 61.5t118 24.5q51 0 97 -15t82 -45t56.5 -76t20.5 -107q0 -53 -20.5 -102.5t-53.5 -90.5t-73 -76t-79 -59q27 -31 50.5 -56.5t43 -54t33 -63.5t19.5 -80q76 92 180 127t215 35 q72 0 142.5 -10.5t121.5 -26.5q-4 -20 -9 -38.5t-9 -37.5q-49 16 -101.5 24.5t-113.5 10.5q6 -39 10 -75t4 -71q0 -133 -41 -236t-111.5 -175t-166 -109t-203.5 -37q-127 0 -218 38t-149.5 98.5t-86 137.5t-27.5 157zM244 406q0 -51 17.5 -112t62.5 -114t121.5 -89 t193.5 -36q113 0 193.5 42t133 110.5t77 155t24.5 174.5q0 35 -4 69.5t-12 69.5q-111 -8 -208.5 -67.5t-164.5 -198.5l-68 34q35 76 35 127q0 55 -33.5 105.5t-109.5 128.5q-59 -37 -106.5 -84t-81 -99.5t-52 -108.5t-18.5 -107zM379 1165q0 -78 39 -137t102 -119 q92 59 139.5 125t47.5 137q0 33 -9.5 64t-30 55.5t-53 40t-77.5 15.5q-23 0 -49.5 -8.5t-51 -28t-41 -54t-16.5 -90.5z" />
<glyph unicode="'" horiz-adv-x="432" d="M158 1333h108l-26 -411h-56z" />
<glyph unicode="(" horiz-adv-x="575" d="M84 588q0 125 27.5 242.5t77 224t115 199t138.5 165.5l52 -45q-66 -78 -122.5 -168t-97.5 -189t-64.5 -204.5t-23.5 -214.5q0 -117 23.5 -224.5t65.5 -206.5t97.5 -187.5t119.5 -163.5l-50 -45q-74 74 -138 165t-113.5 195.5t-78 220t-28.5 236.5z" />
<glyph unicode=")" horiz-adv-x="575" d="M82 1374l53 45q74 -74 139.5 -167t114.5 -198.5t77 -223t28 -242.5q0 -121 -29 -236.5t-78 -220t-113.5 -195t-138.5 -163.5l-49 45q63 74 118.5 162t97.5 186t65.5 206.5t23.5 225.5q0 109 -23.5 214.5t-65.5 203.5t-98.5 189t-121.5 169z" />
<glyph unicode="*" horiz-adv-x="872" d="M143 1079l27 90l246 -104l-15 266h84l-14 -266l246 104l28 -90l-251 -73l168 -209l-74 -58l-146 234l-139 -234l-74 58l162 209z" />
<glyph unicode="+" d="M207 592v90h350v371h88v-371h352v-90h-352v-350h-88v350h-350z" />
<glyph unicode="," horiz-adv-x="376" d="M92 70q0 39 25.5 61.5t54.5 22.5q33 0 62.5 -27t29.5 -84q0 -70 -35.5 -124t-95.5 -91l-27 35q31 25 50.5 60.5t23.5 74.5q-37 0 -62.5 16.5t-25.5 55.5z" />
<glyph unicode="-" horiz-adv-x="645" d="M106 584v104h435v-104h-435z" />
<glyph unicode="." horiz-adv-x="315" d="M82 68q0 33 21.5 55t54.5 22q31 0 53 -22t22 -55q0 -35 -22.5 -56.5t-52.5 -21.5q-33 0 -54.5 21.5t-21.5 56.5z" />
<glyph unicode="/" horiz-adv-x="757" d="M16 -168l646 1667h90l-643 -1667h-93z" />
<glyph unicode="0" d="M68 666q0 154 35.5 279.5t104 215.5t169 140.5t227.5 50.5q123 0 223.5 -49.5t171 -138.5t108.5 -215.5t38 -282.5q0 -158 -38 -284t-108.5 -216t-170 -138t-224.5 -48q-127 0 -227.5 49t-169 139t-104 216t-35.5 282zM172 666q0 -121 25.5 -228.5t78 -189.5t134.5 -130 t194 -48q113 0 195 48t136 129t79.5 189.5t25.5 229.5q0 127 -26.5 235.5t-80.5 187t-136 123.5t-193 45t-191.5 -44t-134 -122.5t-80 -187t-26.5 -237.5z" />
<glyph unicode="1" d="M406 1143v67q47 4 77.5 14.5t50 26t30.5 36t20 46.5h86v-1333h-103v1143h-161z" />
<glyph unicode="2" d="M129 0q12 131 58 230.5t115 178t158 142t187 123.5q72 43 123 81t84 75.5t48.5 79.5t15.5 96q0 125 -89.5 190.5t-242.5 65.5q-88 0 -176 -34t-164 -91l-62 75q86 68 191.5 105t216.5 37q201 0 315.5 -90t114.5 -248q0 -70 -19.5 -126t-61.5 -105.5t-105.5 -97.5 t-151.5 -101q-111 -66 -184.5 -121t-122.5 -111.5t-79 -119t-48 -142.5h782v-92h-903z" />
<glyph unicode="3" d="M94 141l70 72q74 -66 163 -103.5t189 -37.5q82 0 151.5 19.5t121 57t81 94t29.5 130.5t-28.5 127t-77 87t-108.5 50t-122 16h-63v86h73q63 0 117.5 21.5t94.5 57.5t62.5 84t22.5 102q0 49 -19.5 96t-59 83t-103 57.5t-151.5 21.5q-78 0 -164 -32t-152 -85 q-16 18 -31.5 36.5t-31.5 37.5q86 70 183 102.5t206 32.5q98 0 177 -25.5t135 -70t86 -106.5t30 -136q0 -45 -13.5 -92t-43 -90t-74.5 -80t-107 -58v-2q76 -16 127 -52t82 -82t44.5 -95t13.5 -92q0 -92 -36 -165t-101.5 -124t-156 -77.5t-196.5 -26.5q-133 0 -237.5 45 t-182.5 116z" />
<glyph unicode="4" d="M57 317v93l756 923h109v-923h184v-93h-184v-317h-95v317h-770zM178 410h649v796z" />
<glyph unicode="5" d="M141 86l45 82q86 -47 186.5 -73.5t192.5 -26.5q184 0 295 90t111 264q0 80 -29 140.5t-77 100t-112.5 59t-136.5 19.5q-47 0 -96 -7t-96 -20.5t-88 -30.5t-72 -38l-92 41q10 162 20.5 322.5t22.5 324.5h762v-92h-678l-29 -491h2q106 55 196.5 68t164.5 13 q102 0 184 -31.5t138.5 -86t86 -127t29.5 -156.5q0 -111 -38 -195.5t-105.5 -141t-161.5 -85t-207 -28.5q-117 0 -223.5 29.5t-194.5 76.5z" />
<glyph unicode="6" d="M119 498q0 127 38 269t126 266t234.5 211t361.5 104v-91q-84 -8 -156 -25.5t-135 -49.5q-145 -74 -242.5 -227.5t-128.5 -346.5q2 0 3 1t3 1q43 59 97.5 96t111.5 57.5t109.5 28t91.5 7.5q82 0 161.5 -21.5t144.5 -68.5t104.5 -123t39.5 -185q0 -90 -29.5 -162.5 t-82.5 -125t-128 -85t-167 -42.5q-43 -6 -90 -6q-92 0 -177 29.5t-149.5 92t-102.5 160.5t-38 236zM223 399q0 -53 22.5 -112.5t68.5 -108.5t116 -82t166 -33q82 0 153.5 23t124 65t82 103t29.5 139q0 84 -28.5 144.5t-79 99.5t-117 57.5t-142.5 18.5q-82 0 -153.5 -21.5 t-125.5 -61.5t-85 -98.5t-31 -132.5z" />
<glyph unicode="7" d="M113 1241v92h897l4 -110q-94 -104 -180 -243.5t-154 -298.5t-110 -333t-44 -348h-104q4 154 38 315.5t97.5 322.5t153.5 314.5t204 288.5h-802z" />
<glyph unicode="8" d="M111 365q0 49 13 101t47 100t92.5 87t148.5 62q-80 20 -127 59t-73 82t-33 83t-7 65q0 86 34 151.5t94 109.5t141 66.5t175 22.5q92 0 171 -22.5t137.5 -65.5t92.5 -107.5t34 -150.5q0 -23 -6.5 -63t-31 -84t-72.5 -85t-134 -61v-2q84 -16 142.5 -54t95 -86.5t53 -102.5 t16.5 -105q0 -172 -131 -278.5t-377 -106.5t-370.5 102t-124.5 283zM207 369q0 -78 30.5 -135.5t84 -96.5t128 -58.5t160.5 -19.5q78 0 152 18.5t130 55.5t90 93.5t34 131.5q0 154 -110 231t-298 77q-88 0 -161.5 -19.5t-127 -58.5t-83 -94.5t-29.5 -124.5zM272 1008 q0 -61 27 -109.5t73 -81.5t108.5 -50t131.5 -17q74 0 135.5 17t107.5 49t71.5 79t25.5 106q0 57 -20.5 107.5t-62.5 87.5t-106.5 57.5t-150.5 20.5q-80 0 -143 -20.5t-106.5 -55.5t-67 -84t-23.5 -106z" />
<glyph unicode="9" d="M109 926q0 104 38.5 183t106.5 132t159 80t193 27q92 0 177 -29t150.5 -90.5t104.5 -159.5t39 -240q0 -127 -38 -269t-126 -266t-233 -211t-361 -103v88q86 8 163 28.5t143 55.5q139 74 230 223t124 342q-2 2 -4 2q-45 -61 -101.5 -99t-114 -57.5t-109.5 -27t-89 -7.5 q-80 0 -161 21.5t-145.5 69t-105 123t-40.5 184.5zM205 932q0 -84 29.5 -144.5t81 -99.5t119 -57.5t143.5 -18.5q82 0 153.5 22.5t125.5 64.5t85 101.5t31 131.5q0 49 -21.5 106.5t-67.5 105.5t-116 80.5t-166 32.5q-84 0 -156.5 -21.5t-126 -63.5t-84 -102t-30.5 -138z" />
<glyph unicode=":" horiz-adv-x="417" d="M139 68q0 33 21.5 55t52.5 22t53.5 -22t22.5 -55q0 -35 -21.5 -56.5t-54.5 -21.5q-31 0 -52.5 21.5t-21.5 56.5zM139 778q0 33 21.5 55.5t52.5 22.5t53.5 -22.5t22.5 -55.5q0 -35 -21.5 -56.5t-54.5 -21.5q-31 0 -52.5 21.5t-21.5 56.5z" />
<glyph unicode=";" horiz-adv-x="446" d="M139 72q0 37 25.5 59.5t54.5 22.5q33 0 62.5 -26t29.5 -83q0 -70 -35.5 -125t-95.5 -92l-26 33q63 55 73 135q-35 -2 -61.5 16.5t-26.5 59.5zM147 778q0 33 25 56.5t59 23.5q33 0 56.5 -22.5t23.5 -57.5t-23.5 -57.5t-56.5 -22.5q-35 0 -59.5 22.5t-24.5 57.5z" />
<glyph unicode="&#x3c;" d="M229 610v84q20 10 79 41t134.5 73t159.5 88t160 88t133 72.5t78 41.5v-94l-645 -351q14 -8 64 -35.5t116.5 -64.5t141.5 -80t141.5 -80t115.5 -64.5t66 -33.5v-94z" />
<glyph unicode="=" d="M209 403v91h786v-91h-786zM209 782v90h786v-90h-786z" />
<glyph unicode="&#x3e;" d="M229 201v94l645 358q-14 6 -64 33t-116.5 63.5t-141.5 78.5t-141.5 79t-116.5 63.5t-65 33.5v94q20 -10 79 -41t133.5 -73t159.5 -88t160 -88t132 -72.5t80 -41.5v-84z" />
<glyph unicode="?" horiz-adv-x="962" d="M72 1006q12 82 50 146.5t94 108.5t127 66.5t149 22.5q90 0 159.5 -25t116.5 -66.5t73.5 -99t30.5 -121.5q0 -78 -25.5 -144.5t-68.5 -115.5q-57 -66 -103 -121t-79 -109t-52.5 -111.5t-23.5 -125.5h-96q4 76 26.5 140.5t58.5 126t86 124t110 136.5q29 35 49 81t20 93 q0 37 -13 80t-45 79.5t-88.5 62.5t-142.5 26q-78 0 -133 -25t-93 -62.5t-58.5 -83t-28.5 -83.5h-100zM397 66q0 35 23.5 56t52.5 21q31 0 52.5 -22.5t21.5 -54.5q0 -33 -21.5 -54.5t-52.5 -21.5q-33 0 -54.5 20.5t-21.5 55.5z" />
<glyph unicode="@" horiz-adv-x="1667" d="M143 662q0 154 54.5 284.5t150.5 228t229.5 151.5t292.5 54q143 0 263 -42t206 -121.5t134.5 -194.5t48.5 -260q0 -109 -27 -197t-74 -150.5t-110.5 -97t-136.5 -34.5q-20 0 -46 5t-49.5 16t-43 30.5t-27.5 48.5q-97 -107 -232 -107q-61 0 -110.5 24t-83 67t-52 101 t-18.5 128q0 115 28.5 199t75 138t103.5 80.5t112 26.5q41 0 98.5 -18t110.5 -72l9 78h77q-12 -139 -24 -275.5t-23 -273.5v-18q0 -45 21.5 -76t77.5 -31q63 0 112 35t84 93.5t53.5 131t18.5 150.5q0 135 -47 238.5t-127 172t-182.5 103.5t-212.5 35q-143 0 -264 -48 t-209.5 -135.5t-138.5 -207t-50 -260.5q0 -154 49 -276t136 -208t208 -132t266 -46q117 0 210.5 19.5t185.5 58.5l24 -68q-98 -35 -195.5 -57.5t-215.5 -22.5q-162 0 -297 50.5t-233.5 145.5t-154 230.5t-55.5 305.5zM594 602q0 -113 49 -183.5t145 -70.5q55 0 114 34t95 81 l35 397q-29 43 -82 76t-114 33q-55 0 -100.5 -30t-77 -80t-48 -116.5t-16.5 -140.5z" />
<glyph unicode="A" horiz-adv-x="1212" d="M27 0l526 1333h111l526 -1333h-107q-33 84 -65.5 166t-63.5 166h-692q-31 -84 -63.5 -166t-63.5 -166h-108zM297 426h621l-226 575q-23 53 -42 105.5t-42 110.5h-6l-145 -381z" />
<glyph unicode="B" horiz-adv-x="1181" d="M137 0v1333h525q164 0 259 -84t95 -239q0 -43 -13.5 -87t-39 -83t-65.5 -71t-95 -46v-4q127 -23 200.5 -116t73.5 -216q0 -190 -109.5 -288.5t-316.5 -98.5h-514zM236 92h426q158 0 236.5 78t78.5 213q0 68 -25.5 122t-69.5 91t-103.5 56.5t-127.5 19.5h-415v-580z M236 762h413q63 0 112.5 19.5t84.5 52t53.5 76.5t18.5 94q0 106 -61.5 171.5t-190.5 65.5h-430v-479z" />
<glyph unicode="C" horiz-adv-x="1099" d="M94 666q0 156 40 283.5t111.5 216.5t172 138.5t221.5 49.5q131 0 226.5 -40t166.5 -122l-71 -72q-66 74 -143 108t-179 34q-106 0 -188 -46.5t-138.5 -126t-85 -188t-28.5 -233.5t27.5 -233.5t83 -188.5t138 -126t193.5 -46q195 0 326 149l73 -65q-72 -86 -171 -132 t-230 -46q-123 0 -224.5 47t-172 136t-109.5 216t-39 287z" />
<glyph unicode="D" horiz-adv-x="1216" d="M150 0v1333h313q133 0 250.5 -36.5t207 -116.5t141.5 -207t52 -307q0 -178 -53 -304t-143.5 -207t-208 -118t-248.5 -37h-311zM250 94h213q139 0 241.5 42t170 118t100.5 181.5t33 230.5t-33 230t-100.5 181t-170 119t-241.5 43h-213v-1145z" />
<glyph unicode="E" horiz-adv-x="1007" d="M135 0v1333h811v-94h-708v-477h507v-94h-507v-574h737v-94h-840z" />
<glyph unicode="F" horiz-adv-x="974" d="M141 0v1333h815v-96h-714v-496h499v-94h-499v-647h-101z" />
<glyph unicode="G" horiz-adv-x="1177" d="M80 666q0 160 40 287.5t111.5 217t172 136.5t223.5 47q131 0 229 -42t172 -132l-74 -70q-131 150 -329 150q-111 0 -194 -46.5t-137 -126t-82 -188t-28 -233.5q0 -127 28 -235.5t83 -188.5t139 -125t195 -45q104 0 177 36.5t119 94t66.5 127t20.5 133.5v69h-230v93h334 v-107q0 -129 -36 -229.5t-100.5 -169t-154.5 -104t-198 -35.5q-127 0 -228.5 48t-172 137t-108.5 216t-38 285z" />
<glyph unicode="H" horiz-adv-x="1239" d="M135 0v1333h101v-588h765v588h101v-1333h-101v651h-765v-651h-101z" />
<glyph unicode="I" horiz-adv-x="458" d="M178 0v1333h103v-1333h-103z" />
<glyph unicode="J" horiz-adv-x="1056" d="M49 262l96 37q47 -109 123 -167t209 -58q98 0 164 32.5t105.5 93t57 147.5t17.5 196v790h103v-819q0 -276 -112 -405t-341 -129q-168 0 -268.5 72.5t-153.5 209.5z" />
<glyph unicode="K" horiz-adv-x="1153" d="M133 0v1333h100v-829h3l202 270l426 559h117l-354 -461q117 -219 231.5 -436t231.5 -436h-113q-104 197 -207.5 392.5t-208.5 393.5q-84 -106 -164 -212.5t-164 -213.5v-360h-100z" />
<glyph unicode="L" horiz-adv-x="956" d="M135 0v1333h103v-1237h710v-96h-813z" />
<glyph unicode="M" horiz-adv-x="1421" d="M141 0v1333h107q61 -145 139 -320t150 -347l170 -406h8l170 406q72 166 146.5 337t142.5 330h104v-1333h-96v1112h-2l-162 -381q-49 -115 -99.5 -229.5t-93.5 -211.5t-74.5 -169t-43.5 -96q-55 117 -109 241q-47 104 -101.5 230.5t-101.5 242.5q-25 57 -50.5 119t-47 115 t-36.5 92t-19 51h-2v-1116h-99z" />
<glyph unicode="N" horiz-adv-x="1208" d="M129 0v1333h107l495 -762q61 -98 124 -197.5t122 -189.5h2v1149h100v-1333h-100q-18 29 -58 91.5t-93.5 144t-116 178t-125 195t-123 191.5t-108.5 168.5t-80.5 127t-43.5 67.5h-2v-1163h-100z" />
<glyph unicode="O" horiz-adv-x="1267" d="M94 666q0 154 37 279.5t106.5 215.5t169 140.5t226.5 50.5q123 0 223 -49.5t171 -138.5t109 -215.5t38 -282.5q0 -158 -38 -284t-109 -216t-171 -138t-223 -48q-127 0 -226.5 49t-169 139t-106.5 216t-37 282zM197 666q0 -119 26.5 -227.5t80.5 -190.5t136 -130t193 -48 q113 0 194.5 48t135 130t80 190.5t26.5 227.5q0 125 -26.5 234.5t-81 190t-136.5 127t-192 46.5q-109 0 -191 -45t-136 -125t-81.5 -189.5t-27.5 -238.5z" />
<glyph unicode="P" horiz-adv-x="1099" d="M137 0v1333h531q88 0 163.5 -24.5t129 -73.5t84 -123t30.5 -172q0 -100 -30.5 -175t-86 -125t-133 -75.5t-172.5 -25.5h-415v-539h-101zM238 633h430q147 0 225 82t78 223q0 147 -84 225t-219 78h-430v-608z" />
<glyph unicode="Q" horiz-adv-x="1269" d="M102 666q0 158 38 284.5t107.5 215.5t170 137.5t223.5 48.5t223.5 -48.5t171 -137.5t108.5 -215.5t38 -282.5q0 -199 -59.5 -346.5t-170.5 -235.5l78 -123l-78 -49l-75 123q-109 -57 -236 -57q-123 0 -222.5 48t-170 137t-108.5 216t-38 285zM205 668q0 -123 26.5 -231.5 t80 -189.5t136 -129t193.5 -48q106 0 186 43l-98 155l76 47l94 -149q96 84 138 215t42 285q0 127 -26.5 236.5t-82 189t-137 126t-192.5 46.5t-192.5 -45t-136 -124t-81 -188.5t-26.5 -238.5z" />
<glyph unicode="R" horiz-adv-x="1146" d="M129 0v1333h530q88 0 164 -24.5t130.5 -72.5t85 -122t30.5 -172q0 -154 -77 -252t-216 -133l258 -557h-116l-246 543h-441v-543h-102zM231 635h426q143 0 226.5 82t83.5 223q0 72 -23.5 128t-65.5 94t-98.5 58.5t-124.5 20.5h-424v-606z" />
<glyph unicode="S" horiz-adv-x="1050" d="M96 141l68 74q78 -70 170 -107.5t194 -37.5q76 0 141.5 14t115 46t77 83t27.5 125q0 76 -34 125t-87 83t-117.5 55.5t-126.5 41.5q-84 29 -156.5 58.5t-125 69.5t-82 97.5t-29.5 141.5q0 76 31 139t85 109.5t131 71t169 24.5q109 0 207 -32t182 -95q-18 -20 -32.5 -39 t-31.5 -37q-78 55 -156.5 82t-183.5 27q-141 0 -218.5 -70t-77.5 -176q0 -53 21.5 -92t55 -68t77.5 -49.5t91 -36.5q78 -29 168 -56.5t167 -72.5t127 -115.5t50 -183.5q0 -80 -28.5 -145.5t-87 -113.5t-148.5 -74.5t-211 -26.5q-127 0 -233.5 43t-188.5 118z" />
<glyph unicode="T" horiz-adv-x="978" d="M29 1239v94h929v-94h-415v-1239h-101v1239h-413z" />
<glyph unicode="U" horiz-adv-x="1222" d="M133 551v782h100v-776q0 -109 24 -198t71 -152.5t118.5 -98t167.5 -34.5q100 0 172 33.5t119 95t69.5 148.5t22.5 194v788h103v-786q0 -289 -127 -428t-363 -139q-231 0 -354 142t-123 429z" />
<glyph unicode="V" horiz-adv-x="1159" d="M49 1333h109l426 -1196h4l151 434l271 762h106l-469 -1333h-123z" />
<glyph unicode="W" horiz-adv-x="1488" d="M45 1333h102q41 -193 79 -381t77 -379l88 -423h2l111 423l194 760h99q49 -193 99 -382t97 -382l105 -419h2l90 419l160 764h98q-72 -336 -142.5 -666.5t-142.5 -666.5h-125l-186 741q-2 12 -10 44t-18.5 73t-23 88t-22.5 88t-19 72t-11 43h-3q-27 -102 -52 -201.5 t-50 -204.5q-49 -186 -96 -371.5t-94 -371.5h-125z" />
<glyph unicode="X" horiz-adv-x="1052" d="M61 0l412 686l-383 647h119l317 -555l324 555h113l-381 -643l409 -690h-119l-348 598l-348 -598h-115z" />
<glyph unicode="Y" horiz-adv-x="1085" d="M23 1333h112l406 -758l409 758h111l-469 -854v-479h-100v479z" />
<glyph unicode="Z" horiz-adv-x="1087" d="M66 0v92l847 1147h-809v94h928v-96l-846 -1143h840v-94h-960z" />
<glyph unicode="[" horiz-adv-x="593" d="M139 -217v1675h373v-86h-274v-1501h274v-88h-373z" />
<glyph unicode="\" horiz-adv-x="757" d="M14 1499h90l646 -1667h-93z" />
<glyph unicode="]" horiz-adv-x="614" d="M129 -129h274v1501h-274v86h373v-1675h-373v88z" />
<glyph unicode="^" horiz-adv-x="1026" d="M125 717l352 614h84l350 -614h-94l-299 526l-301 -526h-92z" />
<glyph unicode="_" horiz-adv-x="1009" d="M0 -143h1010v-78h-1010v78z" />
<glyph unicode="`" horiz-adv-x="962" d="M311 1452l123 25l144 -303l-54 -19z" />
<glyph unicode="a" horiz-adv-x="944" d="M72 287q0 68 24.5 126t71.5 101t115.5 66.5t154.5 23.5q66 0 141.5 -15.5t159.5 -64.5v160q0 135 -67.5 191.5t-196.5 56.5q-72 0 -138.5 -17.5t-125.5 -46.5l-33 80q70 31 143.5 49.5t165.5 18.5q166 0 256.5 -78t90.5 -233v-705h-95v117h-2q-49 -47 -95 -74t-89 -40 t-82 -17t-76 -4q-59 0 -116.5 16t-103.5 53t-74.5 94.5t-28.5 141.5zM164 291q0 -115 68.5 -174.5t191.5 -59.5q100 4 177 48.5t138 107.5v229q-74 41 -142.5 63.5t-162.5 22.5q-57 0 -106 -15t-86 -46t-57.5 -75t-20.5 -101z" />
<glyph unicode="b" horiz-adv-x="993" d="M113 0v1352l96 43v-518h2q96 88 176 113.5t139 25.5q72 0 139.5 -27.5t120 -90t83 -163t30.5 -248.5q0 -131 -34 -226t-88 -157.5t-121.5 -93t-135.5 -30.5q-33 0 -69.5 3t-75.5 16t-80 38.5t-84 71.5h-2v-109h-96zM207 213q49 -63 127 -108.5t170 -45.5q63 0 119.5 32 t96.5 88.5t63.5 133t23.5 168.5q0 209 -73.5 331t-229.5 122q-41 0 -84 -14.5t-83 -37t-74 -51t-56 -57.5v-561z" />
<glyph unicode="c" horiz-adv-x="860" d="M92 498q0 129 32 225t87 161.5t129 98.5t156 33q92 0 164.5 -27.5t138.5 -91.5l-64 -66q-59 55 -119.5 78t-126.5 23q-72 0 -127 -35t-94 -93.5t-59.5 -138t-20.5 -167.5q0 -92 20.5 -171t60.5 -137.5t97.5 -91t131.5 -32.5q72 0 126 24.5t113 77.5l62 -59 q-55 -59 -127 -94t-180 -35q-80 0 -153 32.5t-128 98t-87 162t-32 225.5z" />
<glyph unicode="d" horiz-adv-x="985" d="M90 487q0 147 37 248t96.5 163.5t132 90t146.5 27.5q61 0 127.5 -23.5t150.5 -99.5h2v459l95 43v-1395h-95v111h-2q-43 -45 -86 -72t-84 -40t-79.5 -16t-71.5 -3q-66 0 -132.5 29.5t-118.5 92t-85 158.5t-33 227zM184 485q0 -92 22.5 -170.5t62.5 -135t94.5 -88.5 t119.5 -32q92 0 172 45.5t129 108.5v567q-23 31 -54.5 58.5t-67 49t-75.5 34t-79 12.5q-154 0 -239 -122t-85 -327z" />
<glyph unicode="e" horiz-adv-x="968" d="M90 496q0 121 31 217t86 163.5t129 103.5t160 36q94 0 168.5 -36t127 -101.5t79 -157.5t26.5 -203v-55h-713q2 -100 30 -175t72 -125t101 -76t123 -26t129 27t117 74l55 -62q-132 -120 -310 -120h-3q-80 0 -153 30.5t-130 95t-91 160.5t-34 230zM184 539h621 q0 80 -18.5 151.5t-56.5 125.5t-97.5 86t-140.5 32q-63 0 -118 -28.5t-94.5 -81t-65.5 -125t-30 -160.5z" />
<glyph unicode="f" horiz-adv-x="528" d="M59 922v77h136v193q0 106 56 153.5t148 47.5q20 0 49 -1t52 -6l-4 -79q-18 2 -36 2h-32q-68 0 -102.5 -26t-34.5 -103v-181h205v-77h-205v-922h-96v922h-136z" />
<glyph unicode="g" horiz-adv-x="989" d="M92 504q0 131 34 227t89 159.5t123 94.5t135 31q33 0 69 -4t75.5 -17.5t80.5 -39t82 -70.5h2v114h97v-942q0 -170 -87 -289.5t-284 -183.5l-33 80q92 33 152.5 75t95.5 89t48 97t13 102v94h-2q-96 -88 -177 -112.5t-138 -24.5q-74 0 -141.5 26.5t-119.5 87t-83 159.5 t-31 247zM186 512q0 -209 72.5 -329t228.5 -120q43 0 86 14.5t82 37t73 51.5t56 59v553q-47 63 -125.5 110.5t-169.5 47.5q-66 0 -121 -33t-95 -89t-63.5 -134t-23.5 -168z" />
<glyph unicode="h" horiz-adv-x="956" d="M111 0v1354l94 43v-570h4q29 51 67.5 88t80.5 58.5t84 32t79 10.5q170 0 256 -97.5t86 -304.5v-614h-96v600q0 174 -67.5 253t-202.5 79q-51 0 -97.5 -20.5t-83 -54.5t-62.5 -79t-38 -94q-6 -20 -8 -44t-2 -46v-594h-94z" />
<glyph unicode="i" horiz-adv-x="430" d="M150 1282q0 27 18 45.5t45 18.5q29 0 48.5 -18.5t19.5 -45.5q0 -29 -19.5 -48.5t-46.5 -19.5q-29 0 -47 19.5t-18 48.5zM168 0v1001h94v-1001h-94z" />
<glyph unicode="j" horiz-adv-x="432" d="M-31 -315q74 10 117 32.5t64.5 58.5t26.5 85t5 112v1028h94v-1015q0 -86 -9 -155t-39.5 -117t-90 -76.5t-160.5 -36.5zM168 1282q0 27 18.5 45.5t44.5 18.5q29 0 47.5 -18.5t18.5 -45.5q0 -29 -18.5 -48.5t-45.5 -19.5q-29 0 -47 19.5t-18 48.5z" />
<glyph unicode="k" horiz-adv-x="837" d="M109 0v1352l94 43v-979h2q18 25 41.5 55.5l47 61t45 60.5t40.5 52q70 88 137.5 176t136.5 178h117q-66 -82 -128 -163.5t-128 -165.5l299 -670h-104l-263 594l-243 -315v-279h-94z" />
<glyph unicode="l" horiz-adv-x="374" d="M141 0v1354l92 43v-1397h-92z" />
<glyph unicode="m" horiz-adv-x="1505" d="M106 0v999h95v-163l4 -2q27 55 63.5 89.5t76.5 54t80 27t77 7.5q100 0 175 -51.5t101 -151.5h4q57 100 134 152.5t182 52.5q170 0 240.5 -98.5t70.5 -301.5v-614h-96v600q0 164 -53.5 247t-184.5 83q-51 0 -94 -20.5t-77 -54.5t-57.5 -80t-33.5 -95q-8 -35 -8 -82v-598 h-96v618q0 154 -56.5 233t-183.5 79q-100 0 -165.5 -67.5t-90.5 -164.5q-4 -25 -8 -51t-4 -53v-594h-95z" />
<glyph unicode="n" horiz-adv-x="954" d="M106 0v1001h95v-178l4 -2q29 53 66.5 90t79.5 60.5t85 34t80 10.5q170 0 256 -97.5t86 -304.5v-614h-96v600q0 174 -66.5 253t-201.5 79q-53 0 -98.5 -19.5t-82.5 -53.5t-62.5 -78t-37.5 -93q-12 -43 -12 -94v-594h-95z" />
<glyph unicode="o" horiz-adv-x="1017" d="M90 500q0 129 32 225t87 160.5t132 97.5t167 33t167 -34t133 -99.5t88 -160.5t32 -216q0 -127 -33 -224.5t-89 -165t-134 -102t-170 -34.5q-88 0 -163 34.5t-130 102t-87 164t-32 219.5zM186 506q0 -98 21.5 -180t63.5 -140.5t102.5 -90.5t138.5 -32q80 0 139.5 36 t100.5 95.5t61.5 139.5t20.5 166q0 90 -20.5 170t-61.5 138t-103.5 92t-146.5 34q-78 0 -137.5 -35t-99.5 -93t-59.5 -136t-19.5 -164z" />
<glyph unicode="p" horiz-adv-x="989" d="M111 -381v1382h96v-114h2q78 80 161 104.5t148 24.5q70 0 138.5 -30t121.5 -91t86 -157.5t33 -227.5q0 -145 -37 -245.5t-95 -164t-131 -91t-147 -27.5q-61 0 -130.5 22.5t-149.5 99.5h-2v-442zM205 217q47 -61 121.5 -107.5t152.5 -46.5q156 0 241 120t85 331 q0 92 -22.5 170t-62.5 133t-95.5 87t-120.5 32q-94 0 -173 -45t-126 -109v-565z" />
<glyph unicode="q" horiz-adv-x="987" d="M88 508q0 131 34 226t89 157.5t122.5 93.5t135.5 31q33 0 69.5 -3t76.5 -16.5t81 -39t82 -68.5h2v110h94v-1337l-94 -43v500h-2q-96 -86 -176 -111.5t-139 -25.5q-72 0 -139.5 27.5t-119.5 89t-84 161.5t-32 248zM182 516q0 -104 18.5 -188t55.5 -143.5t94 -91.5t135 -32 q41 0 84 14.5t83 37t73 51.5t55 59v555q-47 63 -124.5 110.5t-170.5 47.5q-63 0 -118.5 -32t-96.5 -88t-64.5 -133t-23.5 -167z" />
<glyph unicode="r" horiz-adv-x="667" d="M143 0v999h97l-2 -161l4 -2q41 94 125 137t174 43q29 0 58.5 -3t57.5 -14l-20 -94q-59 12 -109 13q-72 0 -125 -25t-90 -68t-55 -101t-18 -126v-598h-97z" />
<glyph unicode="s" horiz-adv-x="858" d="M74 61l39 78q78 -41 156.5 -59.5t148.5 -18.5q47 0 95 10.5t87 33t63.5 57.5t24.5 84t-21.5 85t-59.5 61.5t-90 46t-114 38.5q-70 20 -127 46t-98 59.5t-63.5 76.5t-22.5 99q0 113 92 184.5t256 71.5q74 0 151 -14.5t144 -49.5l-33 -80q-72 35 -142.5 48.5t-121.5 13.5 q-115 0 -184.5 -49t-69.5 -117q0 -29 11.5 -56.5t40 -53t75.5 -50t121 -45.5q74 -23 137.5 -48.5t111.5 -60t74.5 -83.5t26.5 -117t-28.5 -119t-78.5 -85t-118 -51t-143 -17q-86 0 -174 20t-166 61z" />
<glyph unicode="t" horiz-adv-x="579" d="M47 920v79h154v254l90 39v-293h215v-79h-215v-723q0 -72 29.5 -98.5t87.5 -26.5q29 0 59.5 4t71.5 10l8 -72q-31 -12 -81 -19t-87 -7q-104 0 -141 53t-37 152v727h-154z" />
<glyph unicode="u" horiz-adv-x="950" d="M98 375v626h97v-606q0 -178 63.5 -256t198.5 -78q51 0 95 19.5t80 52.5t61.5 76t37.5 92q14 45 14 100v600h95v-1001h-95v172h-4q-29 -53 -65.5 -91t-78.5 -60.5t-84 -33t-79 -10.5q-168 0 -252 94.5t-84 303.5z" />
<glyph unicode="v" horiz-adv-x="890" d="M31 999h100q53 -152 105.5 -299t105.5 -297l100 -286h4l99 286l207 596h98q-92 -252 -180 -499.5t-178 -499.5h-97z" />
<glyph unicode="w" horiz-adv-x="1239" d="M35 999h96l129 -526q20 -84 38.5 -167t39.5 -165h4q6 27 23.5 91.5t39 148.5t47 178t48 181t41 156t28.5 103h90q35 -135 70 -267t70 -267q18 -82 38.5 -163t41.5 -161h2q23 80 41 160t41 164q35 135 68.5 267t68.5 267h96l-270 -999h-92q-8 31 -27 99.5t-41.5 154.5 t-47 180t-46 178t-38 146.5t-22.5 85.5h-2q-18 -72 -38.5 -144.5t-41.5 -146.5l-149 -553h-88z" />
<glyph unicode="x" horiz-adv-x="815" d="M49 0l305 514l-282 485h104l232 -399l231 399h104l-284 -479l305 -520h-113l-245 434l-252 -434h-105z" />
<glyph unicode="y" horiz-adv-x="911" d="M39 999h98l197 -548q29 -86 58.5 -171t60.5 -171h2l120 342l199 548h96q-125 -342 -250.5 -688t-250.5 -686h-90l131 363q-94 254 -186.5 504.5t-184.5 506.5z" />
<glyph unicode="z" horiz-adv-x="884" d="M76 0v80q154 211 304 418t304 417v5h-565v79h678v-77l-607 -838v-2h607v-82h-721z" />
<glyph unicode="{" horiz-adv-x="593" d="M102 565v62q45 8 75 35.5t46.5 68.5t23.5 90t7 99v247q0 119 53 180.5t150 61.5h84v-72h-74q-41 0 -65.5 -19.5t-38 -50t-18.5 -70.5t-5 -81v-219q0 -68 -13.5 -119t-35 -88t-46 -60.5t-48.5 -33.5v-8q51 -14 97 -85t46 -214v-213q0 -43 5 -83t18.5 -71t38 -49t63.5 -18 h76v-72h-86q-94 0 -147.5 61.5t-53.5 180.5v251q0 47 -7 95.5t-24.5 88.5t-46.5 68.5t-74 36.5z" />
<glyph unicode="|" horiz-adv-x="436" d="M184 -252v1784h82v-1784h-82z" />
<glyph unicode="}" horiz-adv-x="593" d="M104 -145h76q39 0 62.5 18t38 49t19.5 71t5 83v213q0 143 46 213.5t98 85.5v8q-25 10 -49.5 33.5t-46 60.5t-35 88t-13.5 119v219q0 41 -5 81t-18.5 70.5t-39 50t-64.5 19.5h-74v72h84q96 0 149.5 -61.5t53.5 -180.5v-247q0 -49 7.5 -98.5t23.5 -90.5t46 -68.5t75 -35.5 v-62q-45 -8 -74 -36.5t-46 -68.5t-24.5 -88t-7.5 -96v-251q0 -119 -53 -180.5t-148 -61.5h-86v72z" />
<glyph unicode="~" d="M156 625q47 96 114.5 138t124.5 42q51 0 108.5 -24.5t113 -53.5t108.5 -53.5t100 -24.5q66 0 103 35t71 94l62 -37q-78 -180 -238 -180q-55 0 -111.5 23.5t-111.5 53.5t-107.5 53.5t-99.5 23.5q-59 0 -100 -38t-76 -85z" />
<glyph unicode="&#xa2;" d="M250 498q0 119 27.5 210t76.5 155.5t116 101t144 47.5v217h78v-215q76 -4 147.5 -36t133.5 -91l-60 -64q-70 59 -123 84t-128 25q-76 0 -134.5 -34t-98.5 -91t-60.5 -136t-20.5 -167q0 -92 18.5 -172t58.5 -140.5t99.5 -94.5t143.5 -34q78 0 131 28t110 81l62 -55 q-47 -59 -116 -95t-163 -40v-226h-78v228q-78 8 -144.5 42.5t-115.5 98t-76.5 157t-27.5 216.5z" />
<glyph unicode="&#xa3;" d="M156 565v84h174q-10 55 -27.5 99.5t-33 86.5t-27 82.5t-11.5 88.5q0 70 29 132t81 110t125 77t163 29q139 0 238.5 -48.5t160.5 -129.5l-78 -64q-53 68 -134 109t-185 41q-47 0 -99.5 -14.5t-96.5 -47.5t-72.5 -83t-28.5 -124q0 -35 12 -72.5t27.5 -80.5t32 -90.5 t24.5 -98.5h318v-86h-308q0 -23 -1 -42t-3 -42q-6 -109 -42 -206t-115 -185h765v-90h-884v92q94 94 136 206t42 267h-182z" />
<glyph unicode="&#xa5;" d="M102 1333h117l387 -712l387 712h113l-264 -471h211v-84h-258l-111 -194h369v-82h-400v-502h-100v502h-391v82h360l-110 194h-250v84h205z" />
<glyph unicode="&#xa8;" horiz-adv-x="962" d="M248 1294q0 29 19.5 48.5t47.5 19.5q25 0 45.5 -19.5t20.5 -48.5q0 -27 -20.5 -46t-45.5 -19q-29 0 -48 19.5t-19 45.5zM629 1294q0 29 19.5 48.5t47.5 19.5q27 0 46.5 -19.5t19.5 -48.5q0 -27 -19.5 -46t-46.5 -19t-47 19.5t-20 45.5z" />
<glyph unicode="&#xa9;" horiz-adv-x="1517" d="M102 666q0 147 51.5 273t140.5 218t211 144.5t263 52.5t262 -52.5t211 -144.5t141.5 -218t51.5 -273q0 -145 -51.5 -271.5t-141.5 -218.5t-211 -144t-262 -52t-263 52t-211 144t-140.5 218t-51.5 272zM172 666q0 -131 46 -245t126 -198t188.5 -132t235.5 -48 q125 0 234.5 48t189.5 132t126 198t46 245t-46 244.5t-126 196.5t-189.5 131t-234.5 48q-127 0 -235.5 -48t-188.5 -131t-126 -196.5t-46 -244.5zM449 664q0 94 23.5 169.5t66.5 129t103 83t134 29.5q156 0 246 -125l-59 -39q-37 47 -82 71t-105 24q-63 0 -110.5 -26 t-79 -72t-48 -108.5t-16.5 -135.5q0 -74 16.5 -135.5t48 -106.5t79 -70.5t110.5 -25.5q66 0 110 22.5t85 69.5l55 -39q-57 -68 -120.5 -95.5t-129.5 -27.5q-76 0 -136 28.5t-103 83t-65.5 129t-22.5 167.5z" />
<glyph unicode="&#xab;" horiz-adv-x="905" d="M106 502l273 420h100l-274 -420l274 -420h-100zM453 502l274 420h98l-274 -420l274 -420h-98z" />
<glyph unicode="&#xad;" horiz-adv-x="645" d="M106 584v104h435v-104h-435z" />
<glyph unicode="&#xae;" horiz-adv-x="1062" d="M139 961q0 88 31 162.5t84 130t125 86t156 30.5q86 0 158.5 -30.5t125.5 -86t83 -130t30 -162.5t-31 -163t-84 -130.5t-125.5 -87t-156.5 -31.5t-156 31.5t-125 87t-84 130t-31 163.5zM190 961q0 -78 27 -144.5t73 -116t108.5 -78t136.5 -28.5t137 28.5t109 78t73 116 t27 144.5q0 76 -27 142t-73 115.5t-109 78t-137 28.5t-136.5 -28.5t-108.5 -78t-73 -116t-27 -141.5zM387 723v473h191q63 0 103 -36t40 -107q0 -90 -90 -138q2 -6 16.5 -34.5t29.5 -61.5t28.5 -61.5t17.5 -34.5h-64l-88 184h-129v-184h-55zM442 958h133q47 0 70 26t23 69 q0 45 -26 69.5t-67 24.5h-133v-189z" />
<glyph unicode="&#xb4;" horiz-adv-x="962" d="M422 1174l131 305l123 -25l-201 -299z" />
<glyph unicode="&#xb8;" horiz-adv-x="921" d="M348 -375l19 53q31 -10 64.5 -17t62.5 -7q49 0 78.5 20.5t33.5 65.5q0 47 -38 71.5t-83 24.5h-10l-31 33l56 164l59 -2l-45 -133q51 -8 84 -25.5t51.5 -39t25.5 -46.5t7 -45q0 -25 -10 -51.5t-34 -48t-59.5 -35t-86.5 -13.5q-25 0 -61 6.5t-83 24.5z" />
<glyph unicode="&#xbb;" horiz-adv-x="905" d="M109 82l274 420l-274 420h100l272 -420l-274 -420h-98zM455 82l274 420l-274 420h100l272 -420l-272 -420h-100z" />
<glyph unicode="&#x192;" d="M127 -150l31 87q63 -29 114 -29t87 18.5t60.5 53t41 88t31.5 125.5q10 53 21 123.5t20.5 144.5t18.5 144.5t17 123.5h-190v86h201l28 201q10 78 30.5 144.5t56.5 115.5t89.5 77.5t128.5 28.5q43 0 82 -7t78 -19l-22 -86q-35 12 -68 18t-68 6q-92 0 -140 -74.5t-66 -203.5 q-6 -45 -14.5 -101.5t-12.5 -99.5h211v-86h-221q-6 -39 -17.5 -118t-22.5 -162.5t-21.5 -156.5t-16.5 -102q-29 -186 -102.5 -280t-208.5 -94q-39 0 -79 8t-77 26z" />
<glyph unicode="&#x2c6;" horiz-adv-x="1017" d="M221 1188l236 235h108l234 -239l-35 -31l-256 186l-250 -182z" />
<glyph unicode="&#x2da;" horiz-adv-x="950" d="M354 1300q0 70 47.5 116t116.5 46q68 0 116 -46t48 -116q0 -72 -48 -117.5t-116 -45.5q-70 0 -117 46t-47 117zM410 1300q0 -45 30.5 -76.5t77.5 -31.5q45 0 76 31.5t31 76.5t-31 76t-76 31q-47 0 -77.5 -32t-30.5 -75z" />
<glyph unicode="&#x2dc;" horiz-adv-x="1005" d="M195 1245q35 66 82 92.5t96 26.5q35 0 67.5 -12.5t63.5 -25.5t62.5 -25.5t66.5 -12.5t63.5 15.5t61.5 56.5l51 -29q-31 -66 -80 -94.5t-102 -28.5q-35 0 -68 11.5t-64.5 24.5t-62.5 24.5t-59 11.5q-37 0 -67 -13.5t-64 -52.5z" />
<glyph unicode="&#x401;" horiz-adv-x="1007" d="M135 0v1333h811v-94h-708v-477h507v-94h-507v-574h737v-94h-840zM297 1536q0 29 19.5 48.5t48.5 19.5q25 0 45 -19.5t20 -48.5q0 -27 -20.5 -46.5t-44.5 -19.5q-29 0 -48.5 19.5t-19.5 46.5zM678 1536q0 29 19.5 48.5t47.5 19.5q27 0 46.5 -19.5t19.5 -48.5 q0 -27 -19.5 -46.5t-46.5 -19.5t-47 19.5t-20 46.5z" />
<glyph unicode="&#x402;" horiz-adv-x="1464" d="M27 1239v94h1116v-94h-611v-424q33 27 80 46.5t99.5 32.5t102.5 19.5t89 6.5q225 0 346 -128t121 -350q0 -98 -26.5 -190t-82 -164t-142.5 -118t-208 -54v82q102 8 171 51t111 105.5t59.5 138.5t17.5 149q0 186 -96.5 287.5t-274.5 101.5q-92 0 -192.5 -30.5 t-174.5 -85.5v-715h-100v1239h-405z" />
<glyph unicode="&#x403;" horiz-adv-x="958" d="M135 0v1333h815v-94h-712v-1239h-103zM426 1468l262 174l88 -88l-317 -131z" />
<glyph unicode="&#x404;" horiz-adv-x="1093" d="M92 666q0 160 39 287.5t110.5 217t172 136.5t223.5 47q131 0 226 -41t167 -123l-74 -74q-66 74 -141.5 109t-177.5 35t-181 -39t-133.5 -108t-85 -164t-38.5 -206h651v-94h-653v-2q0 -109 27.5 -211t82.5 -184t138 -131t194 -49q96 0 178 38.5t148 110.5 q16 -16 35.5 -31.5t37.5 -31.5q-72 -86 -172 -132t-229 -46q-123 0 -224.5 47t-172 136t-109.5 216t-39 287z" />
<glyph unicode="&#x405;" horiz-adv-x="1050" d="M96 141l68 74q78 -70 170 -107.5t194 -37.5q76 0 141.5 14t115 46t77 83t27.5 125q0 76 -34 125t-87 83t-117.5 55.5t-126.5 41.5q-84 29 -156.5 58.5t-125 69.5t-82 97.5t-29.5 141.5q0 76 31 139t85 109.5t131 71t169 24.5q109 0 207 -32t182 -95q-18 -20 -32.5 -39 t-31.5 -37q-78 55 -156.5 82t-183.5 27q-141 0 -218.5 -70t-77.5 -176q0 -53 21.5 -92t55 -68t77.5 -49.5t91 -36.5q78 -29 168 -56.5t167 -72.5t127 -115.5t50 -183.5q0 -80 -28.5 -145.5t-87 -113.5t-148.5 -74.5t-211 -26.5q-127 0 -233.5 43t-188.5 118z" />
<glyph unicode="&#x406;" horiz-adv-x="458" d="M178 0v1333h103v-1333h-103z" />
<glyph unicode="&#x407;" horiz-adv-x="458" d="M-25 1536q0 29 19.5 48.5t48.5 19.5q25 0 45.5 -19.5t20.5 -48.5q0 -27 -20.5 -46.5t-45.5 -19.5q-29 0 -48.5 19.5t-19.5 46.5zM178 0v1333h103v-1333h-103zM356 1536q0 29 19.5 48.5t48.5 19.5q27 0 46 -19.5t19 -48.5q0 -27 -19 -46.5t-46 -19.5t-47.5 19.5 t-20.5 46.5z" />
<glyph unicode="&#x408;" horiz-adv-x="1056" d="M49 262l96 37q47 -109 123 -167t209 -58q98 0 164 32.5t105.5 93t57 147.5t17.5 196v790h103v-819q0 -276 -112 -405t-341 -129q-168 0 -268.5 72.5t-153.5 209.5z" />
<glyph unicode="&#x409;" horiz-adv-x="1808" d="M18 76q88 18 139.5 72.5t78 141.5t33.5 206.5t7 271.5v563h648v-577h419q193 0 300.5 -96.5t107.5 -284.5q0 -186 -104.5 -279.5t-288.5 -93.5h-535v1239h-452q2 -117 2 -232.5v-232.5q0 -135 -7.5 -268t-41 -243.5t-102 -185.5t-193.5 -91q-2 23 -5.5 45t-5.5 45z M924 88h424q141 0 224 70.5t83 216.5q0 139 -81 215t-228 76h-422v-578z" />
<glyph unicode="&#x40a;" horiz-adv-x="1804" d="M131 0v1333h98v-577h598v577h103v-577h418q193 0 303 -96.5t110 -284.5q0 -96 -29.5 -167t-84 -117t-129 -68.5t-162.5 -22.5h-529v668h-598v-668h-98zM930 90h426q141 0 222 70t81 215q0 135 -78 214t-225 79h-426v-578z" />
<glyph unicode="&#x40b;" horiz-adv-x="1431" d="M25 1241v92h1108v-92h-607v-418h4q33 20 77 41t93.5 36t101.5 24.5t101 9.5q119 0 200 -33t130 -89t70.5 -132t21.5 -162v-518h-96v508q0 74 -17.5 136.5t-57.5 107.5t-104.5 69.5t-160.5 24.5q-47 0 -97.5 -10.5t-98.5 -26.5t-91 -38.5t-76 -47.5v-723h-98v1241h-403z " />
<glyph unicode="&#x40c;" horiz-adv-x="974" d="M133 0v1333h100v-616l7 -2l591 618h115l-618 -649l614 -684h-127l-575 647l-7 -2v-645h-100zM369 1468l262 174l88 -88l-318 -131z" />
<glyph unicode="&#x40e;" horiz-adv-x="1034" d="M23 1325h102l385 -942l405 942h101l-471 -1102q-53 -127 -119 -184t-174 -57h-62v90h39q63 0 111.5 25.5t79.5 90.5q10 23 19.5 43.5t19.5 42.5zM283 1624h79q8 -59 50.5 -98t113.5 -39q72 0 114 40t48 97h80q-4 -37 -19.5 -75t-43 -66.5t-71.5 -48t-106 -19.5 q-63 0 -108 18.5t-75 48t-44 67.5t-18 75z" />
<glyph unicode="&#x40f;" horiz-adv-x="1236" d="M135 0v1331h101v-1239h768v1239h98v-1331h-432v-344h-109v344h-426z" />
<glyph unicode="&#x410;" horiz-adv-x="1212" d="M27 0l526 1333h111l526 -1333h-107q-33 84 -65.5 166t-63.5 166h-692q-31 -84 -63.5 -166t-63.5 -166h-108zM297 426h621l-226 575q-23 53 -42 105.5t-42 110.5h-6l-145 -381z" />
<glyph unicode="&#x411;" horiz-adv-x="1144" d="M135 0v1333h815v-92h-717v-487h429q190 0 300.5 -93.5t112.5 -285.5q0 -186 -108.5 -280.5t-294.5 -94.5h-537zM233 92h437q147 0 226 71t79 212q0 135 -79 212t-226 77h-437v-572z" />
<glyph unicode="&#x412;" horiz-adv-x="1181" d="M137 0v1333h525q164 0 259 -84t95 -239q0 -43 -13.5 -87t-39 -83t-65.5 -71t-95 -46v-4q127 -23 200.5 -116t73.5 -216q0 -190 -109.5 -288.5t-316.5 -98.5h-514zM236 92h426q158 0 236.5 78t78.5 213q0 68 -25.5 122t-69.5 91t-103.5 56.5t-127.5 19.5h-415v-580z M236 762h413q63 0 112.5 19.5t84.5 52t53.5 76.5t18.5 94q0 106 -61.5 171.5t-190.5 65.5h-430v-479z" />
<glyph unicode="&#x413;" horiz-adv-x="958" d="M135 0v1333h815v-94h-712v-1239h-103z" />
<glyph unicode="&#x414;" horiz-adv-x="1353" d="M33 90h104q53 49 89 137t57.5 200t32 240t14.5 257l12 407h834v-1243h118v-405h-100v317h-1059v-317h-102v407zM272 90h803v1151h-637l-12 -344q-4 -104 -11 -216t-23.5 -218.5t-45.5 -202.5t-74 -170z" />
<glyph unicode="&#x415;" horiz-adv-x="1007" d="M135 0v1333h811v-94h-708v-477h507v-94h-507v-574h737v-94h-840z" />
<glyph unicode="&#x416;" horiz-adv-x="1540" d="M18 0l607 684l-594 649h114l570 -618l6 2v616h96v-616l6 -2l568 618h116l-596 -649l609 -684h-127l-570 647l-6 -2v-645h-96v645l-6 2l-572 -647h-125z" />
<glyph unicode="&#x417;" horiz-adv-x="1040" d="M25 147q2 2 12 11.5t21.5 20.5t20.5 21.5t11 12.5q76 -72 168 -108.5t188 -36.5q180 0 280.5 81.5t100.5 223.5q0 74 -27.5 128t-73.5 88t-105.5 50t-122.5 16h-203v86h194q66 0 125.5 21.5t103.5 57.5t69.5 83t25.5 101q0 51 -17.5 98t-55.5 83t-99 57.5t-147 21.5 q-43 0 -92.5 -9.5t-95.5 -25t-87 -37t-69 -43.5q-2 2 -11.5 12t-19.5 22.5t-18.5 23t-10.5 12.5q39 33 89 58.5t103.5 41.5t109 25.5t106.5 9.5q215 0 319.5 -94.5t104.5 -241.5q0 -45 -16.5 -93t-49.5 -93.5t-82 -80t-115 -51.5v-2q80 -14 132.5 -50t83 -83t44 -98 t13.5 -94q0 -92 -36 -166t-100.5 -124t-152.5 -76.5t-194 -26.5q-123 0 -237 45t-187 122z" />
<glyph unicode="&#x418;" horiz-adv-x="1261" d="M133 0v1333h98v-1165h7l208 311l580 854h100v-1333h-100v1165l-4 2l-219 -325l-572 -842h-98z" />
<glyph unicode="&#x419;" horiz-adv-x="1261" d="M133 0v1333h98v-1165h7l208 311l580 854h100v-1333h-100v1165l-4 2l-219 -325l-572 -842h-98zM383 1659h80q8 -59 50 -98t114 -39t113.5 40t47.5 97h80q-4 -37 -19 -75t-43 -66.5t-72 -48t-105 -19.5q-63 0 -108.5 18.5t-75 48t-44 67.5t-18.5 75z" />
<glyph unicode="&#x41a;" horiz-adv-x="974" d="M133 0v1333h100v-616l7 -2l591 618h115l-618 -649l614 -684h-127l-575 647l-7 -2v-645h-100z" />
<glyph unicode="&#x41b;" horiz-adv-x="1183" d="M16 72q74 14 124 56t80 118t43 185.5t13 260.5v641h766v-1333h-102v1241h-567v-532q0 -152 -13.5 -280t-51.5 -223t-105.5 -153.5t-175.5 -70.5z" />
<glyph unicode="&#x41c;" horiz-adv-x="1421" d="M141 0v1333h107q61 -145 139 -320t150 -347l170 -406h8l170 406q72 166 146.5 337t142.5 330h104v-1333h-96v1112h-2l-162 -381q-49 -115 -99.5 -229.5t-93.5 -211.5t-74.5 -169t-43.5 -96q-55 117 -109 241q-47 104 -101.5 230.5t-101.5 242.5q-25 57 -50.5 119t-47 115 t-36.5 92t-19 51h-2v-1116h-99z" />
<glyph unicode="&#x41d;" horiz-adv-x="1239" d="M135 0v1333h101v-588h765v588h101v-1333h-101v651h-765v-651h-101z" />
<glyph unicode="&#x41e;" horiz-adv-x="1267" d="M94 666q0 154 37 279.5t106.5 215.5t169 140.5t226.5 50.5q123 0 223 -49.5t171 -138.5t109 -215.5t38 -282.5q0 -158 -38 -284t-109 -216t-171 -138t-223 -48q-127 0 -226.5 49t-169 139t-106.5 216t-37 282zM197 666q0 -119 26.5 -227.5t80.5 -190.5t136 -130t193 -48 q113 0 194.5 48t135 130t80 190.5t26.5 227.5q0 125 -26.5 234.5t-81 190t-136.5 127t-192 46.5q-109 0 -191 -45t-136 -125t-81.5 -189.5t-27.5 -238.5z" />
<glyph unicode="&#x41f;" horiz-adv-x="1234" d="M135 0v1333h967v-1333h-103v1239h-761v-1239h-103z" />
<glyph unicode="&#x420;" horiz-adv-x="1099" d="M137 0v1333h531q88 0 163.5 -24.5t129 -73.5t84 -123t30.5 -172q0 -100 -30.5 -175t-86 -125t-133 -75.5t-172.5 -25.5h-415v-539h-101zM238 633h430q147 0 225 82t78 223q0 147 -84 225t-219 78h-430v-608z" />
<glyph unicode="&#x421;" horiz-adv-x="1099" d="M94 666q0 156 40 283.5t111.5 216.5t172 138.5t221.5 49.5q131 0 226.5 -40t166.5 -122l-71 -72q-66 74 -143 108t-179 34q-106 0 -188 -46.5t-138.5 -126t-85 -188t-28.5 -233.5t27.5 -233.5t83 -188.5t138 -126t193.5 -46q195 0 326 149l73 -65q-72 -86 -171 -132 t-230 -46q-123 0 -224.5 47t-172 136t-109.5 216t-39 287z" />
<glyph unicode="&#x422;" horiz-adv-x="978" d="M29 1239v94h929v-94h-415v-1239h-101v1239h-413z" />
<glyph unicode="&#x423;" horiz-adv-x="1034" d="M23 1325h102l385 -942l405 942h101l-471 -1102q-53 -127 -119 -184t-174 -57h-62v90h39q63 0 111.5 25.5t79.5 90.5q10 23 19.5 43.5t19.5 42.5z" />
<glyph unicode="&#x424;" horiz-adv-x="1413" d="M100 674q0 111 36 212t106.5 179t174 129t240.5 61v78h97v-78q141 -10 246.5 -60t176 -128t106.5 -179t36 -214q0 -119 -38 -221.5t-110.5 -181t-177 -126t-239.5 -55.5v-90h-97v90q-133 10 -236.5 59.5t-174 126t-108.5 179t-38 219.5zM199 674q0 -92 27.5 -177t84 -153 t142.5 -113t204 -57v997q-111 -10 -196.5 -53t-144 -109.5t-88 -152.5t-29.5 -182zM754 172q119 10 207 55t145 113t85 155t28 179t-28 178t-85 154.5t-145.5 112.5t-206.5 55v-1002z" />
<glyph unicode="&#x425;" horiz-adv-x="1052" d="M61 0l412 686l-383 647h119l317 -555l324 555h113l-381 -643l409 -690h-119l-348 598l-348 -598h-115z" />
<glyph unicode="&#x426;" horiz-adv-x="1236" d="M133 0v1331h98v-1239h766v1239h101v-1241h116v-409h-100v319h-981z" />
<glyph unicode="&#x427;" horiz-adv-x="1181" d="M104 940v393h95v-372q0 -102 23.5 -172t68.5 -113t109.5 -61.5t146.5 -18.5q109 0 218 37t181 86v614h98v-1333h-98v623l-2 2q-72 -43 -182.5 -78t-224.5 -35q-131 0 -215 37t-132.5 96.5t-67 137t-18.5 157.5z" />
<glyph unicode="&#x428;" horiz-adv-x="1679" d="M133 0v1333h100v-1241h555v1241h103v-1241h555v1241h98v-1333h-1411z" />
<glyph unicode="&#x429;" horiz-adv-x="1689" d="M135 0v1333h98v-1243h558v1243h100v-1243h555v1241h100v-1241h117v-409h-102v319h-1426z" />
<glyph unicode="&#x42a;" horiz-adv-x="1564" d="M14 1239v94h656v-579h420q193 0 302 -96.5t109 -284.5q0 -186 -108.5 -279.5t-288.5 -93.5h-537v1239h-553zM670 94h426q63 0 119.5 16.5t96.5 50.5t63.5 87t23.5 125q0 137 -81 211.5t-224 74.5h-424v-565z" />
<glyph unicode="&#x42b;" horiz-adv-x="1452" d="M135 0v1333h101v-577h419q190 0 299 -96.5t109 -284.5q0 -186 -107.5 -280.5t-287.5 -94.5h-533zM236 94h423q63 0 120 16.5t96.5 51.5t63.5 88t24 125q0 135 -81 211t-223 76h-423v-568zM1214 0v1333h101v-1333h-101z" />
<glyph unicode="&#x42c;" horiz-adv-x="1124" d="M135 0v1333h101v-579h419q190 0 299 -96.5t109 -284.5q0 -186 -107.5 -279.5t-287.5 -93.5h-533zM236 94h423q63 0 120 16.5t96.5 50.5t63.5 87t24 125q0 137 -81 211.5t-223 74.5h-423v-565z" />
<glyph unicode="&#x42d;" horiz-adv-x="1107" d="M61 156q16 16 36 32.5t36 32.5q66 -72 149 -110.5t181 -38.5q111 0 192.5 47t137 127t84 184.5t32.5 218.5h-653v94h647q-6 109 -37.5 203t-86 164t-131.5 110t-177 40q-96 0 -172 -32t-147 -104l-68 70q78 82 168 121t223 39q123 0 222.5 -47t169 -136.5t107.5 -217.5 t38 -287q0 -160 -40 -287t-112 -216t-174 -136t-225 -47q-131 0 -229.5 45t-170.5 131z" />
<glyph unicode="&#x42e;" horiz-adv-x="1507" d="M133 0v1333h98v-590h179q10 139 47 252t100.5 192t150.5 122t199 43q113 0 207 -46t159.5 -133.5t102.5 -215t37 -291.5q0 -330 -134 -507t-372 -177q-231 0 -364 167.5t-137 503.5h-175v-653h-98zM506 666q0 -129 23.5 -239t72.5 -189.5t125 -124.5t180 -45 q106 0 183 46t127.5 127t74 190.5t23.5 234.5q0 131 -25.5 241.5t-77 190.5t-128 124t-177.5 44q-100 0 -176 -46t-126 -127t-74.5 -190.5t-24.5 -236.5z" />
<glyph unicode="&#x42f;" horiz-adv-x="1165" d="M90 928q0 98 31 174t86 127t131 77.5t164 26.5h528v-1333h-100v543h-441l-260 -543h-116l270 555q-139 35 -216 127t-77 246zM195 928q0 -141 83.5 -218t225.5 -77h426v610h-422q-68 0 -125 -22.5t-99 -63.5t-65.5 -99.5t-23.5 -129.5z" />
<glyph unicode="&#x430;" horiz-adv-x="944" d="M72 287q0 68 24.5 126t71.5 101t115.5 66.5t154.5 23.5q66 0 141.5 -15.5t159.5 -64.5v160q0 135 -67.5 191.5t-196.5 56.5q-72 0 -138.5 -17.5t-125.5 -46.5l-33 80q70 31 143.5 49.5t165.5 18.5q166 0 256.5 -78t90.5 -233v-705h-95v117h-2q-49 -47 -95 -74t-89 -40 t-82 -17t-76 -4q-59 0 -116.5 16t-103.5 53t-74.5 94.5t-28.5 141.5zM164 291q0 -115 68.5 -174.5t191.5 -59.5q100 4 177 48.5t138 107.5v229q-74 41 -142.5 63.5t-162.5 22.5q-57 0 -106 -15t-86 -46t-57.5 -75t-20.5 -101z" />
<glyph unicode="&#x431;" horiz-adv-x="1046" d="M92 614q0 113 16.5 216.5t55.5 189.5t103.5 153.5t162.5 110.5q96 45 209 67.5t217 53.5q0 -4 4 -15.5t8 -23.5t7.5 -24.5t3.5 -14.5q-59 -20 -115.5 -32.5t-110 -23.5t-105.5 -26.5t-102 -42.5q-70 -37 -117.5 -89t-78.5 -114.5t-45.5 -132t-16.5 -137.5l7 -2 q20 55 55 102.5t81 82t102 54t118 19.5q199 0 301 -130t102 -363q0 -117 -30.5 -212.5t-86 -163t-134 -103.5t-177.5 -36q-111 0 -192.5 44.5t-136 126t-80 200.5t-25.5 266zM205 459q0 -82 20.5 -155t62.5 -127t102.5 -86t139.5 -32q82 0 143.5 34t102.5 93.5t61.5 139.5 t20.5 172q0 195 -81.5 301t-235.5 106q-66 0 -126.5 -28.5t-107.5 -86t-74.5 -140.5t-27.5 -191z" />
<glyph unicode="&#x432;" horiz-adv-x="944" d="M104 0v999h422q131 0 211 -63.5t80 -181.5q0 -31 -9 -63t-27.5 -61.5t-48.5 -53t-73 -35.5q98 -20 152.5 -91t54.5 -157q0 -145 -91 -219t-257 -74h-414zM199 80h325q123 0 183.5 56.5t60.5 150.5q0 100 -71.5 153.5t-178.5 53.5h-319v-414zM199 580h315q98 0 151.5 49 t53.5 119q0 74 -46 122t-149 48h-325v-338z" />
<glyph unicode="&#x433;" horiz-adv-x="778" d="M106 0v999h666v-81h-571v-918h-95z" />
<glyph unicode="&#x434;" horiz-adv-x="1069" d="M27 78h82q37 41 62.5 103.5t40.5 142t24.5 173t13.5 193.5l14 309h660v-921h92v-361h-90v283h-809v-283h-90v361zM221 78h610v844h-479l-12 -260q-4 -72 -11 -149t-20.5 -153.5t-34 -148.5t-53.5 -133z" />
<glyph unicode="&#x435;" horiz-adv-x="968" d="M90 496q0 121 31 217t86 163.5t129 103.5t160 36q94 0 168.5 -36t127 -101.5t79 -157.5t26.5 -203v-55h-713q2 -100 30 -175t72 -125t101 -76t123 -26t129 27t117 74l55 -62q-133 -121 -313 -120q-80 0 -153 30.5t-130 95t-91 160.5t-34 230zM184 539h621 q0 80 -18.5 151.5t-56.5 125.5t-97.5 86t-140.5 32q-63 0 -118 -28.5t-94.5 -81t-65.5 -125t-30 -160.5z" />
<glyph unicode="&#x436;" horiz-adv-x="1214" d="M18 0l455 535l-453 462h115l428 -442v442h94v-442l428 442h115l-452 -462l454 -535h-121l-424 510v-510h-94v510l-424 -510h-121z" />
<glyph unicode="&#x437;" horiz-adv-x="882" d="M53 111q14 16 27.5 30.5t28.5 30.5q59 -55 132.5 -84t157.5 -29q139 0 217 59.5t78 164.5q0 51 -20.5 89t-55 61.5t-79.5 34.5t-95 11h-172v78h160q111 0 177.5 55.5t66.5 130.5q0 39 -14.5 73t-45 59.5t-77.5 41t-115 15.5q-74 0 -144.5 -26.5t-119.5 -63.5 q-14 16 -25.5 31.5t-25.5 31.5q68 53 152.5 80t170.5 27q174 0 256 -75t82 -181q0 -31 -10 -66t-32.5 -66.5t-56.5 -59t-81 -44.5q57 -12 95 -39.5t61.5 -61.5t32.5 -70t9 -66q0 -147 -106.5 -224t-282.5 -77q-100 0 -191 33.5t-155 95.5z" />
<glyph unicode="&#x438;" horiz-adv-x="978" d="M104 0v1001h95v-845h6l172 254l399 591h98v-1001h-96v836l-8 2l-143 -211l-428 -627h-95z" />
<glyph unicode="&#x439;" horiz-adv-x="978" d="M104 0v1001h95v-845h6l172 254l399 591h98v-1001h-96v836l-8 2l-143 -211l-428 -627h-95zM250 1382h80q8 -59 50 -98t114 -39t113.5 40t47.5 97h80q-4 -37 -19.5 -74.5t-43 -66.5t-71.5 -48t-105 -19q-63 0 -108.5 18t-75 48t-44 68t-18.5 74z" />
<glyph unicode="&#x43a;" horiz-adv-x="794" d="M104 0v997h95v-442l456 442h115l-475 -462l477 -535h-121l-452 510v-510h-95z" />
<glyph unicode="&#x43b;" horiz-adv-x="972" d="M8 63q70 16 112 57.5t64.5 107t30.5 154.5t8 204v413h629v-999h-92v920h-447v-365q0 -102 -9 -199.5t-40 -174.5t-89 -129t-157 -66z" />
<glyph unicode="&#x43c;" horiz-adv-x="1136" d="M104 0v1001h95l262 -561l104 -223h8l105 225l258 559h96v-1001h-96v780l-6 2l-92 -196l-273 -574l-272 580l-90 192l-4 -2v-782h-95z" />
<glyph unicode="&#x43d;" horiz-adv-x="997" d="M106 0v1001h95v-432h596v432h94v-1001h-94v485h-596v-485h-95z" />
<glyph unicode="&#x43e;" horiz-adv-x="1017" d="M90 500q0 129 32 225t87 160.5t132 97.5t167 33t167 -34t133 -99.5t88 -160.5t32 -216q0 -127 -33 -224.5t-89 -165t-134 -102t-170 -34.5q-88 0 -163 34.5t-130 102t-87 164t-32 219.5zM186 506q0 -98 21.5 -180t63.5 -140.5t102.5 -90.5t138.5 -32q80 0 139.5 36 t100.5 95.5t61.5 139.5t20.5 166q0 90 -20.5 170t-61.5 138t-103.5 92t-146.5 34q-78 0 -137.5 -35t-99.5 -93t-59.5 -136t-19.5 -164z" />
<glyph unicode="&#x43f;" horiz-adv-x="983" d="M106 0v1001h771v-1001h-97v913h-575v-913h-99z" />
<glyph unicode="&#x440;" horiz-adv-x="989" d="M111 -381v1382h96v-114h2q78 80 161 104.5t148 24.5q70 0 138.5 -30t121.5 -91t86 -157.5t33 -227.5q0 -145 -37 -245.5t-95 -164t-131 -91t-147 -27.5q-61 0 -130.5 22.5t-149.5 99.5h-2v-442zM205 217q47 -61 121.5 -107.5t152.5 -46.5q156 0 241 120t85 331 q0 92 -22.5 170t-62.5 133t-95.5 87t-120.5 32q-94 0 -173 -45t-126 -109v-565z" />
<glyph unicode="&#x441;" horiz-adv-x="860" d="M92 498q0 129 32 225t87 161.5t129 98.5t156 33q92 0 164.5 -27.5t138.5 -91.5l-64 -66q-59 55 -119.5 78t-126.5 23q-72 0 -127 -35t-94 -93.5t-59.5 -138t-20.5 -167.5q0 -92 20.5 -171t60.5 -137.5t97.5 -91t131.5 -32.5q72 0 126 24.5t113 77.5l62 -59 q-55 -59 -127 -94t-180 -35q-80 0 -153 32.5t-128 98t-87 162t-32 225.5z" />
<glyph unicode="&#x442;" horiz-adv-x="792" d="M23 918v83h753v-83h-330v-918h-96v918h-327z" />
<glyph unicode="&#x443;" horiz-adv-x="911" d="M39 999h98l197 -548q29 -86 58.5 -171t60.5 -171h2l120 342l199 548h96q-125 -342 -250.5 -688t-250.5 -686h-90l131 363q-94 254 -186.5 504.5t-184.5 506.5z" />
<glyph unicode="&#x444;" horiz-adv-x="1290" d="M88 508q0 117 40 209t108.5 156.5t162 99.5t199.5 39v338l94 39q0 -94 -1 -188.5t-1 -188.5q111 -4 205 -37t162.5 -96.5t106.5 -155.5t38 -215q0 -125 -39 -221.5t-106.5 -162t-160.5 -101t-204 -37.5v-316q-23 -10 -47 -19t-47 -20v355q-236 4 -373 134t-137 388z M180 502q0 -135 44 -221t108.5 -135.5t137.5 -68t128 -20.5v875q-197 -10 -307.5 -124t-110.5 -306zM692 55q53 4 126 23.5t137.5 69t109.5 134.5t45 220q0 193 -106.5 307.5t-311.5 122.5v-877z" />
<glyph unicode="&#x445;" horiz-adv-x="815" d="M49 0l305 514l-282 485h104l232 -399l231 399h104l-284 -479l305 -520h-113l-245 434l-252 -434h-105z" />
<glyph unicode="&#x446;" horiz-adv-x="1036" d="M104 0v1001h95v-921h596v921h96v-921h88v-363h-92v283h-783z" />
<glyph unicode="&#x447;" horiz-adv-x="909" d="M63 727v272h97v-262q0 -158 59.5 -224.5t186.5 -66.5q76 0 157.5 40t145.5 124v389h94v-999h-94v512h-4q-68 -78 -155 -114t-157 -36q-160 0 -245 83t-85 282z" />
<glyph unicode="&#x448;" horiz-adv-x="1398" d="M106 0v1001h93v-921h448v921h92v-921h461v921h92v-1001h-1186z" />
<glyph unicode="&#x449;" horiz-adv-x="1433" d="M106 0v1001h93v-921h448v921h92v-921h459v921h94v-921h88v-363h-92v283h-1182z" />
<glyph unicode="&#x44a;" horiz-adv-x="1226" d="M14 918v83h510v-421h307q162 0 252.5 -74t90.5 -215q0 -145 -89.5 -218t-238.5 -73h-416v918h-416zM524 82h324q102 0 165.5 51.5t63.5 155.5q0 98 -60.5 153.5t-170.5 55.5h-322v-416z" />
<glyph unicode="&#x44b;" horiz-adv-x="1179" d="M113 0v1001h92v-426h321q158 0 248 -73.5t90 -214.5q0 -145 -92 -216t-240 -71h-419zM205 80h330q102 0 165.5 51.5t63.5 155.5q0 98 -61.5 153.5t-170.5 55.5h-327v-416zM977 0v1001h92v-1001h-92z" />
<glyph unicode="&#x44c;" horiz-adv-x="917" d="M106 0v1001h97v-423h317q158 0 248 -74t90 -215q0 -147 -91 -218t-241 -71h-420zM203 82h327q102 0 166 51.5t64 155.5q0 98 -61.5 153.5t-172.5 55.5h-323v-416z" />
<glyph unicode="&#x44d;" horiz-adv-x="872" d="M66 111l61 59q59 -55 114.5 -81t127.5 -26q74 0 132 33t98 89.5t60.5 131t22.5 160.5h-496v84h494q0 76 -20.5 143.5t-57.5 117.5t-90 80t-121 30q-63 0 -127.5 -20.5t-128.5 -75.5l-59 65q68 59 145.5 87t169.5 28q84 0 154.5 -31t123 -91t82 -151.5t29.5 -210.5 q0 -137 -31.5 -240.5t-86 -173t-128 -104t-159.5 -34.5q-109 0 -182.5 34.5t-126.5 96.5z" />
<glyph unicode="&#x44e;" horiz-adv-x="1228" d="M113 0v1001h92v-438h139q6 80 29.5 161t71 144.5t119 103.5t171.5 40q96 0 171 -37t126 -104.5t78 -161.5t27 -209q0 -117 -27 -211t-79 -162t-127 -104.5t-169 -36.5q-111 0 -184.5 45t-119.5 116.5t-66.5 159.5t-24.5 174h-135v-481h-92zM432 500q0 -86 16.5 -165 t53.5 -139.5t94 -97.5t139 -37t141.5 36t97.5 96.5t55.5 139.5t17.5 165q0 88 -18.5 167.5t-56.5 139t-97.5 94.5t-139.5 35t-137 -34t-94 -92t-54.5 -138t-17.5 -170z" />
<glyph unicode="&#x44f;" horiz-adv-x="954" d="M86 690q0 74 24.5 132.5t69.5 98.5t104.5 60t131.5 20h434v-1001h-96v401h-346l-205 -401h-105l215 414q-109 27 -168 94t-59 182zM180 690q0 -104 66.5 -155.5t173.5 -51.5h334v437h-334q-49 0 -93 -16.5t-77 -46.5t-51.5 -73t-18.5 -94z" />
<glyph unicode="&#x451;" horiz-adv-x="968" d="M90 496q0 121 31 217t86 163.5t129 103.5t160 36q94 0 168.5 -36t127 -101.5t79 -157.5t26.5 -203v-55h-713q2 -100 30 -175t72 -125t101 -76t123 -26t129 27t117 74l55 -62q-133 -121 -313 -120q-80 0 -153 30.5t-130 95t-91 160.5t-34 230zM184 539h621 q0 80 -18.5 151.5t-56.5 125.5t-97.5 86t-140.5 32q-63 0 -118 -28.5t-94.5 -81t-65.5 -125t-30 -160.5zM246 1286q0 29 19.5 48.5t47.5 19.5q25 0 45.5 -19.5t20.5 -48.5q0 -27 -20.5 -46t-45.5 -19q-29 0 -48 19.5t-19 45.5zM627 1286q0 29 19.5 48.5t47.5 19.5 q27 0 46.5 -19.5t19.5 -48.5q0 -27 -19.5 -46t-46.5 -19t-47 19.5t-20 45.5z" />
<glyph unicode="&#x452;" horiz-adv-x="1052" d="M37 1104v72h145v178l94 43v-221h474v-72h-474v-324h5q29 55 67.5 92t80.5 59.5t85 33t80 10.5q168 0 266 -120t98 -343q0 -104 -24.5 -195.5t-76.5 -166t-135 -130t-198 -86.5l-20 86q172 47 265 169t93 315q0 195 -80 291t-213 96q-61 0 -115.5 -28.5t-93 -77 t-61.5 -110t-23 -126.5v-549h-94v1104h-145z" />
<glyph unicode="&#x453;" horiz-adv-x="780" d="M106 0v999h666v-81h-571v-918h-95zM340 1174l131 305l123 -25l-201 -299z" />
<glyph unicode="&#x454;" horiz-adv-x="880" d="M92 498q0 129 33 225t88 161.5t129 98.5t156 33q94 0 165.5 -27.5t137.5 -93.5l-62 -66q-59 57 -120.5 80t-126.5 23q-66 0 -118 -29t-91 -79t-61.5 -118.5t-28.5 -146.5h489v-86h-492q2 -86 25 -160.5t62.5 -130t97 -87.5t129.5 -32t128 26t116 81l63 -57 q-55 -61 -130 -97t-183 -36q-78 0 -152 32.5t-130 98t-90 162t-34 225.5z" />
<glyph unicode="&#x455;" horiz-adv-x="858" d="M74 61l39 78q78 -41 156.5 -59.5t148.5 -18.5q47 0 95 10.5t87 33t63.5 57.5t24.5 84t-21.5 85t-59.5 61.5t-90 46t-114 38.5q-70 20 -127 46t-98 59.5t-63.5 76.5t-22.5 99q0 113 92 184.5t256 71.5q74 0 151 -14.5t144 -49.5l-33 -80q-72 35 -142.5 48.5t-121.5 13.5 q-115 0 -184.5 -49t-69.5 -117q0 -29 11.5 -56.5t40 -53t75.5 -50t121 -45.5q74 -23 137.5 -48.5t111.5 -60t74.5 -83.5t26.5 -117t-28.5 -119t-78.5 -85t-118 -51t-143 -17q-86 0 -174 20t-166 61z" />
<glyph unicode="&#x456;" horiz-adv-x="430" d="M150 1282q0 27 18 45.5t45 18.5q29 0 48.5 -18.5t19.5 -45.5q0 -29 -19.5 -48.5t-46.5 -19.5q-29 0 -47 19.5t-18 48.5zM168 0v1001h94v-1001h-94z" />
<glyph unicode="&#x457;" horiz-adv-x="430" d="M-37 1294q0 29 19.5 48.5t48.5 19.5q25 0 45 -19.5t20 -48.5q0 -27 -20.5 -46t-44.5 -19q-29 0 -48.5 19.5t-19.5 45.5zM168 0v999h96v-999h-96zM344 1294q0 29 19.5 48.5t48.5 19.5q27 0 46 -19.5t19 -48.5q0 -27 -19.5 -46t-45.5 -19q-27 0 -47.5 19.5t-20.5 45.5z" />
<glyph unicode="&#x458;" horiz-adv-x="432" d="M-31 -315q74 10 117 32.5t64.5 58.5t26.5 85t5 112v1028h94v-1015q0 -86 -9 -155t-39.5 -117t-90 -76.5t-160.5 -36.5zM168 1282q0 27 18.5 45.5t44.5 18.5q29 0 47.5 -18.5t18.5 -45.5q0 -29 -18.5 -48.5t-45.5 -19.5q-29 0 -47 19.5t-18 48.5z" />
<glyph unicode="&#x459;" horiz-adv-x="1431" d="M2 68q68 14 111 48t68.5 95t34.5 154.5t9 222.5v411h523v-424h303q156 0 250 -70.5t94 -217.5q0 -72 -24.5 -126.5t-70 -90t-105.5 -53t-130 -17.5h-412v915h-340v-358q0 -104 -8 -201.5t-37.5 -174.5t-89 -129t-162.5 -64zM748 82h325q98 0 161.5 52t63.5 155 q0 94 -59 149.5t-166 55.5h-325v-412z" />
<glyph unicode="&#x45a;" horiz-adv-x="1439" d="M106 0v999h95v-419h456v419h99v-419h325q68 0 126.5 -17.5t101.5 -53.5t67.5 -90t24.5 -128q0 -147 -88 -219t-242 -72h-414v496h-456v-496h-95zM756 86h321q106 0 168 50.5t62 154.5q0 94 -60.5 149.5t-169.5 55.5h-321v-410z" />
<glyph unicode="&#x45b;" horiz-adv-x="993" d="M27 1102v72h120v178l95 43v-221h471v-72h-471v-330h2q29 53 66.5 90t79.5 60.5t85 34t80 10.5q172 0 257 -97.5t85 -304.5v-565h-96v551q0 174 -66.5 253t-202.5 79q-72 0 -130 -37t-93 -96q-33 -43 -50 -97.5t-17 -107.5v-545h-95v1102h-120z" />
<glyph unicode="&#x45c;" horiz-adv-x="784" d="M104 0v997h95v-442l456 442h115l-475 -462l477 -535h-121l-452 510v-510h-95zM322 1174l131 305l122 -25l-200 -299z" />
<glyph unicode="&#x45e;" horiz-adv-x="911" d="M39 999h98l197 -548q29 -86 58.5 -171t60.5 -171h2l120 342l199 548h96q-125 -342 -250.5 -688t-250.5 -686h-90l131 363q-94 254 -186.5 504.5t-184.5 506.5zM233 1382h80q8 -59 50.5 -98t113.5 -39q72 0 114 40t48 97h80q-4 -37 -19.5 -74.5t-43 -66.5t-71.5 -48 t-106 -19q-63 0 -108 18t-75 48t-44 68t-19 74z" />
<glyph unicode="&#x45f;" horiz-adv-x="980" d="M106 0v1001h93v-919h579v919h96v-1001h-339v-307h-93v307h-336z" />
<glyph unicode="&#x490;" horiz-adv-x="958" d="M133 0v1333h719v266h98v-358h-714v-1241h-103z" />
<glyph unicode="&#x491;" horiz-adv-x="788" d="M106 0v999l578 -2v228h90v-307h-575v-918h-93z" />
<glyph unicode="&#x4d9;" horiz-adv-x="966" d="M82 477v53h711q-4 104 -31 179t-71 124.5t-101.5 73t-122.5 23.5q-66 0 -122 -25.5t-112 -73.5l-53 60q70 63 138.5 92t160.5 29q80 0 153 -30t130 -93.5t91 -160.5t34 -232q0 -121 -33 -216.5t-88 -162t-129 -102t-156 -35.5q-96 0 -169.5 36.5t-125 102t-78 158 t-26.5 200.5zM170 457q2 -80 20.5 -152t57.5 -127t97 -87t142 -32q61 0 114.5 29t94.5 81t66.5 125t30.5 163h-623z" />
<glyph unicode="&#x2000;" horiz-adv-x="829" />
<glyph unicode="&#x2001;" horiz-adv-x="1659" />
<glyph unicode="&#x2002;" horiz-adv-x="829" />
<glyph unicode="&#x2003;" horiz-adv-x="1659" />
<glyph unicode="&#x2004;" horiz-adv-x="553" />
<glyph unicode="&#x2005;" horiz-adv-x="414" />
<glyph unicode="&#x2006;" horiz-adv-x="276" />
<glyph unicode="&#x2007;" horiz-adv-x="276" />
<glyph unicode="&#x2008;" horiz-adv-x="207" />
<glyph unicode="&#x2009;" horiz-adv-x="331" />
<glyph unicode="&#x200a;" horiz-adv-x="92" />
<glyph unicode="&#x2010;" horiz-adv-x="645" d="M106 584v104h435v-104h-435z" />
<glyph unicode="&#x2011;" horiz-adv-x="645" d="M106 584v104h435v-104h-435z" />
<glyph unicode="&#x2012;" horiz-adv-x="645" d="M106 584v104h435v-104h-435z" />
<glyph unicode="&#x2013;" horiz-adv-x="1024" d="M68 553v92h888v-92h-888z" />
<glyph unicode="&#x2014;" horiz-adv-x="2048" d="M68 561v92h1912v-92h-1912z" />
<glyph unicode="&#x2018;" horiz-adv-x="423" d="M121 1118q0 68 36 123t95 94l27 -37q-31 -23 -50.5 -58.5t-23.5 -74.5q35 0 61.5 -17.5t26.5 -57.5q0 -35 -25.5 -58.5t-54.5 -23.5q-31 0 -61.5 26.5t-30.5 83.5z" />
<glyph unicode="&#x2019;" horiz-adv-x="423" d="M121 1253q0 35 25.5 58.5t54.5 23.5q31 0 61.5 -26.5t30.5 -83.5q0 -68 -36 -123t-95 -94l-27 36q31 23 50.5 59t23.5 75q-35 0 -61.5 17t-26.5 58z" />
<glyph unicode="&#x201a;" horiz-adv-x="376" d="M92 70q0 39 25.5 61.5t54.5 22.5q33 0 62.5 -27t29.5 -84q0 -70 -35.5 -124t-95.5 -91l-27 35q31 25 50.5 60.5t23.5 74.5q-37 0 -62.5 16.5t-25.5 55.5z" />
<glyph unicode="&#x201c;" horiz-adv-x="643" d="M109 1118q0 68 35.5 123t95.5 94l26 -37q-31 -23 -50 -58.5t-23 -74.5q35 0 61.5 -17.5t26.5 -57.5q0 -35 -26 -58.5t-54 -23.5q-31 0 -61.5 26.5t-30.5 83.5zM356 1118q0 68 36 123t95 94l27 -37q-31 -23 -50.5 -58.5t-23.5 -74.5q35 0 61.5 -17.5t26.5 -57.5 q0 -35 -25.5 -58.5t-53.5 -23.5q-31 0 -62 26.5t-31 83.5z" />
<glyph unicode="&#x201d;" horiz-adv-x="643" d="M111 1253q0 35 25.5 58.5t53.5 23.5q31 0 62 -26.5t31 -83.5q0 -68 -36 -123t-95 -94l-27 36q31 23 50.5 59t23.5 75q-35 0 -61.5 17t-26.5 58zM358 1253q0 35 26 58.5t54 23.5q31 0 61.5 -26.5t30.5 -83.5q0 -68 -35.5 -123t-95.5 -94l-26 36q31 23 50 59t23 75 q-35 0 -61.5 17t-26.5 58z" />
<glyph unicode="&#x201e;" horiz-adv-x="655" d="M98 70q0 39 26 61.5t54 22.5q33 0 62.5 -27t29.5 -84q0 -70 -35.5 -124t-95.5 -91l-26 35q31 25 50 60.5t23 74.5q-37 0 -62.5 16.5t-25.5 55.5zM391 70q0 39 25.5 61.5t54.5 22.5q31 0 61.5 -27t30.5 -84q0 -68 -35.5 -123t-95.5 -92l-26 35q31 25 50 60.5t23 74.5 q-35 0 -61.5 15.5t-26.5 56.5z" />
<glyph unicode="&#x2022;" horiz-adv-x="677" d="M172 598q0 74 50 126t122 52q35 0 66.5 -14t55 -38t37 -56.5t13.5 -69.5q0 -74 -50 -124t-122 -50t-122 50t-50 124z" />
<glyph unicode="&#x2026;" horiz-adv-x="1327" d="M139 68q0 33 22.5 55t53.5 22t53.5 -22t22.5 -55q0 -35 -22.5 -56.5t-53.5 -21.5t-53.5 21.5t-22.5 56.5zM596 68q0 33 21.5 55t54.5 22q31 0 52 -22t21 -55q0 -35 -20 -56.5t-53 -21.5t-54.5 21.5t-21.5 56.5zM1047 68q0 33 22.5 55t52.5 22q31 0 52.5 -22t21.5 -55 q0 -35 -21.5 -56.5t-52.5 -21.5t-53 21.5t-22 56.5z" />
<glyph unicode="&#x202f;" horiz-adv-x="331" />
<glyph unicode="&#x2039;" horiz-adv-x="722" d="M164 496l272 419h101l-275 -419l275 -420h-101z" />
<glyph unicode="&#x203a;" horiz-adv-x="722" d="M170 82l274 420l-274 420h100l273 -420l-275 -420h-98z" />
<glyph unicode="&#x205f;" horiz-adv-x="414" />
<glyph unicode="&#x20ac;" d="M100 512v82h828v-82h-594q14 -98 49 -179t88 -138.5t126 -89t161 -31.5q174 0 297 116l65 -73q-70 -66 -160 -101.5t-204 -35.5q-217 0 -359.5 136t-173.5 396h-123zM100 717v82h119q14 131 59.5 234.5t116 174t162.5 108.5t201 38q213 0 346 -117l-70 -80 q-57 53 -124.5 76.5t-153.5 23.5q-94 0 -169 -33.5t-128 -95t-86 -145.5t-45 -184h600v-82h-828z" />
<glyph unicode="&#x2122;" horiz-adv-x="1550" d="M78 1257v74h561v-74h-242v-669h-78v669h-241zM737 588v745h94l191 -424l59 -135l60 133l190 426h96v-745h-75v624l-113 -254l-160 -358q-51 119 -103 235.5t-106 233.5q-16 35 -29.5 67.5t-29.5 65.5v-614h-74z" />
<glyph unicode="&#x25fc;" horiz-adv-x="1003" d="M0 0v1004h1004v-1004h-1004z" />
</font>
</defs>
</svg>
