<?xml version="1.0" standalone="no"?>
<!DOCTYPE svg PUBLIC "-//W3C//DTD SVG 1.1//EN" "http://www.w3.org/Graphics/SVG/1.1/DTD/svg11.dtd" >
<svg xmlns="http://www.w3.org/2000/svg">
<metadata></metadata>
<defs>
<font id="pf_highway_sans_proregular" horiz-adv-x="1265" >
<font-face units-per-em="2048" ascent="1536" descent="-512" />
<missing-glyph horiz-adv-x="487" />
<glyph horiz-adv-x="2048" />
<glyph horiz-adv-x="2048" />
<glyph unicode="&#xd;" horiz-adv-x="2048" />
<glyph unicode=" "  horiz-adv-x="487" />
<glyph unicode="&#x09;" horiz-adv-x="487" />
<glyph unicode="&#xa0;" horiz-adv-x="487" />
<glyph unicode="!" horiz-adv-x="542" d="M166 100q0 59 38 89t79 30q51 0 82.5 -34.5t31.5 -82.5q0 -51 -32.5 -85.5t-81.5 -34.5t-83 33.5t-34 84.5zM190 817v516h187v-514l-35 -452h-117z" />
<glyph unicode="&#x22;" horiz-adv-x="772" d="M145 1333h187l-39 -454h-109zM442 1333h189l-39 -454h-111z" />
<glyph unicode="#" d="M43 360l25 150h229l57 330h-229l27 149h229l59 344h164l-59 -344h299l57 344h164l-57 -344h229l-27 -149h-231l-55 -330h229l-27 -150h-229l-66 -360h-161l61 360h-297l-61 -360h-166l63 360h-227zM457 504h307l57 342h-305z" />
<glyph unicode="$" d="M168 184l115 129q72 -66 160.5 -102.5t181.5 -36.5q129 0 203.5 49t74.5 150q0 84 -61.5 129t-190.5 86q-102 33 -185 63.5t-141.5 72.5t-90 101.5t-31.5 151.5q0 68 24.5 126t68.5 102t105.5 74t133.5 42v195h163v-191q203 -18 346 -141l-108 -129q-139 113 -318 112 q-115 0 -173 -51t-58 -129q0 -43 20.5 -74.5t54.5 -54t77 -39t86 -31.5q72 -25 153.5 -51t150 -70t115 -113t46.5 -175q0 -156 -99.5 -252t-292.5 -113v-192h-163v192q-109 12 -202 56.5t-165 113.5z" />
<glyph unicode="%" horiz-adv-x="1757" d="M41 926q0 88 24.5 164.5t72.5 134t118 89.5t162 32q86 0 156.5 -31t120.5 -86t78 -132t28 -171q0 -92 -28 -169t-78 -132.5t-120.5 -86t-156.5 -30.5q-92 0 -162 31.5t-118 88t-72.5 132.5t-24.5 166zM197 926q0 -59 14 -110.5t42 -90.5t68.5 -60.5t96.5 -21.5 q55 0 97 21.5t69.5 60.5t42 90t14.5 111q0 129 -56 206.5t-167 77.5t-166 -77.5t-55 -206.5zM375 -43l850 1425h153l-852 -1425h-151zM956 408q0 88 25 164.5t73 133t117.5 88t161.5 31.5q86 0 157 -30.5t121 -86t77.5 -132t27.5 -168.5q0 -94 -27.5 -171t-77.5 -132.5 t-121 -86t-157 -30.5q-92 0 -161.5 31.5t-117.5 88t-73 133t-25 167.5zM1112 408q0 -59 14.5 -111.5t42 -91.5t68.5 -60.5t96 -21.5t97.5 21.5t70 60.5t41.5 91t14 112q0 125 -56 203.5t-167 78.5t-166 -77.5t-55 -204.5z" />
<glyph unicode="&#x26;" horiz-adv-x="1513" d="M156 422q0 127 71.5 244.5t200.5 205.5q-145 129 -145 275q0 43 15 92t50 90t90.5 68.5t132.5 27.5q59 0 111.5 -18t90.5 -53t60.5 -86t22.5 -117q0 -53 -19.5 -101.5t-49 -89t-65.5 -73.5t-69 -56q41 -43 71 -80.5t40 -91.5q63 66 150.5 95.5t191.5 29.5q82 0 170 -12 t147 -31l-26 -129q-53 12 -95 18.5t-104 10.5q6 -53 6 -106q0 -143 -44 -249t-118.5 -174.5t-173 -102.5t-204.5 -34q-129 0 -224.5 38t-159 100.5t-94 142.5t-30.5 166zM328 420q0 -43 14 -95.5t52 -97.5t105 -75.5t169 -30.5q100 0 169.5 37t113.5 96t63.5 136t19.5 155 q0 23 -2 47t-6 47q-86 -6 -158.5 -59.5t-138.5 -180.5l-115 56q16 35 25.5 60.5t9.5 49.5q0 41 -26.5 83t-94.5 112q-45 -29 -81.5 -69t-63.5 -85t-41 -93t-14 -93zM449 1149q0 -70 29.5 -116t78.5 -93q70 45 103.5 98.5t33.5 112.5q0 51 -29.5 95t-99.5 44q-16 0 -36.5 -6 t-38 -21.5t-29.5 -43t-12 -70.5z" />
<glyph unicode="'" horiz-adv-x="489" d="M152 1333h186l-37 -454h-111z" />
<glyph unicode="(" horiz-adv-x="651" d="M78 582q0 127 29.5 249.5t80 234.5t117 208t139.5 172l113 -90q-66 -78 -119 -170t-92 -190.5t-60.5 -201t-21.5 -202.5q0 -215 82 -412.5t207 -349.5l-109 -92q-74 74 -140 169t-116.5 204.5t-80 228.5t-29.5 242z" />
<glyph unicode=")" horiz-adv-x="651" d="M88 1356q2 2 18.5 15t37 29.5t37 30t20.5 15.5q74 -76 141.5 -172t117.5 -208t79.5 -234.5t29.5 -249.5q0 -123 -29.5 -242t-79.5 -228.5t-118 -204.5t-141 -169q-2 2 -18.5 15.5t-36 29.5t-35 30.5t-17.5 16.5q125 152 206 349.5t81 412.5q0 98 -21.5 200.5t-60.5 202 t-93 191.5t-118 170z" />
<glyph unicode="*" horiz-adv-x="929" d="M150 1044l40 138l230 -97q-6 61 -10 123t-11 125h142l-19 -248q57 23 113.5 47.5t114.5 49.5l43 -138l-238 -61l160 -190q-29 -23 -57.5 -43.5t-57.5 -42.5q-33 53 -64.5 107t-66.5 108l-129 -217l-115 88l158 190z" />
<glyph unicode="+" d="M205 559v156h344v354h164v-354h346v-156h-346v-342h-164v342h-344z" />
<glyph unicode="," horiz-adv-x="450" d="M88 100q0 53 35 88t84 35q59 0 97 -44t38 -118q0 -98 -53 -169.5t-133 -118.5l-52 63q43 31 72 70t33 86q-49 0 -85 25.5t-36 82.5z" />
<glyph unicode="-" horiz-adv-x="716" d="M111 545v176h497v-176h-497z" />
<glyph unicode="." horiz-adv-x="434" d="M96 102q0 53 36 87t83 34q49 0 83 -34.5t34 -86.5q0 -51 -34 -85.5t-83 -34.5t-84 33.5t-35 86.5z" />
<glyph unicode="/" horiz-adv-x="880" d="M-12 -162l725 1651h172l-725 -1651h-172z" />
<glyph unicode="0" d="M72 666q0 143 36.5 269t108.5 219t177.5 146.5t242.5 53.5q129 0 233.5 -50.5t178 -140.5t114.5 -216t41 -279q0 -154 -41 -281t-114.5 -218t-178 -140t-233.5 -49q-137 0 -242.5 52t-177.5 144t-108.5 218t-36.5 272zM266 668q0 -111 22.5 -205t68.5 -164t116 -109.5 t164 -39.5q92 0 162.5 39.5t117 108.5t70 163t23.5 205q0 115 -23.5 210t-71 162.5t-117 105.5t-161.5 38t-161.5 -38t-116 -105.5t-70 -162t-23.5 -208.5z" />
<glyph unicode="1" d="M406 1063v123q49 4 82.5 14t56 28.5t38 44t25.5 60.5h160v-1333h-188v1063h-174z" />
<glyph unicode="2" d="M137 0q8 141 54.5 248.5t119 191.5t163.5 149.5t192 125.5q66 39 110.5 71.5t72.5 63.5t40 62.5t12 72.5q0 96 -70.5 148.5t-199.5 52.5q-88 0 -177 -34t-169 -95l-105 135q94 78 212 120t245 42q211 0 333 -94.5t122 -260.5q0 -68 -18.5 -123t-58.5 -104t-104.5 -96 t-154.5 -98q-100 -57 -169 -105.5t-113 -95.5t-69.5 -98.5t-42.5 -112.5h740v-166h-965z" />
<glyph unicode="3" d="M100 168q8 10 25.5 26.5t37 35t36 34t26.5 25.5q74 -72 162 -107t184 -35q68 0 126.5 15.5t101.5 46.5t67.5 76t24.5 104t-21.5 102.5t-59.5 72t-88 41.5t-106 13h-102v150h102q51 0 95.5 17.5t77 46t51 67.5t18.5 82q0 37 -14.5 74t-47 66.5t-86 47t-128.5 17.5 q-80 0 -164 -31t-152 -86q-8 10 -22.5 27.5t-30.5 36t-31.5 37t-23.5 28.5q88 74 200.5 115t237.5 41q100 0 184 -24.5t144.5 -71t94.5 -111t34 -146.5q0 -94 -52.5 -176t-162.5 -129v-4q63 -16 109 -48t77 -74t45 -89t14 -92q0 -96 -38.5 -172t-107.5 -129t-163 -80.5 t-203 -27.5q-147 0 -266 50t-205 138z" />
<glyph unicode="4" d="M78 295v158q186 221 366.5 440t366.5 440h195v-876h178v-162h-178v-295h-177v295h-751zM293 457h536v641q-135 -162 -268 -322t-268 -319z" />
<glyph unicode="5" d="M133 104l82 144q92 -47 193.5 -76t193.5 -29q160 0 253 75t93 216q0 63 -23.5 112.5t-63.5 82.5t-95 49t-117 16q-84 0 -162.5 -25.5t-136.5 -64.5l-176 68l47 661h826v-164h-666l-27 -381l4 -2q82 43 160 58.5t156 15.5q109 0 194.5 -30.5t145 -86t91.5 -131.5t32 -168 q0 -117 -39 -203.5t-111 -145t-171 -87t-218 -28.5q-131 0 -245.5 31.5t-219.5 92.5z" />
<glyph unicode="6" d="M117 508q0 86 17.5 180t56 185.5t102 174t156 148.5t215 106.5t282.5 49.5v-164q-252 -16 -405.5 -133t-223.5 -361h5q78 76 176 103.5t184 27.5q90 0 174 -23.5t148.5 -73.5t103.5 -127t39 -181q0 -106 -39 -188t-109.5 -138.5t-168 -85t-214.5 -28.5q-104 0 -195 30.5 t-158.5 95t-106.5 164t-39 238.5zM303 410q0 -49 20.5 -98.5t61.5 -88.5t101.5 -62.5t140.5 -23.5q152 0 243 73t91 200q0 135 -88.5 198.5t-229.5 63.5q-74 0 -136.5 -18.5t-107.5 -52.5t-70.5 -82t-25.5 -109z" />
<glyph unicode="7" d="M141 1167v166h953l2 -174q-100 -106 -185.5 -235t-148 -276.5t-98 -310.5t-37.5 -337h-189q2 154 33 311.5t88 309t142 291t194 255.5h-754z" />
<glyph unicode="8" d="M106 381q0 51 15.5 101t47.5 95.5t81 80t117 57.5v2q-63 23 -103.5 57.5t-62 72.5t-28.5 74.5t-7 65.5q0 90 36 158.5t99.5 115t150.5 70t189 23.5q96 0 182 -22.5t149.5 -68.5t100.5 -115t37 -159q0 -27 -7 -63.5t-29.5 -75.5t-62.5 -75t-106 -58v-2q135 -39 199.5 -132 t64.5 -202q0 -186 -141 -293.5t-395 -107.5q-256 0 -391.5 104t-135.5 297zM291 385q0 -123 93 -189.5t253 -66.5q154 0 251 65.5t97 184.5q0 123 -91 187.5t-259 64.5q-160 0 -252 -64.5t-92 -181.5zM350 987q0 -96 81 -152.5t208 -56.5q131 0 208 56.5t77 148.5 q0 45 -16.5 85t-51.5 70.5t-89 48t-130 17.5q-145 0 -216 -62.5t-71 -154.5z" />
<glyph unicode="9" d="M111 909q0 106 39.5 189.5t110.5 139.5t168 85t212 29q104 0 195.5 -30t160 -94.5t107.5 -165t39 -241.5q0 -129 -41 -272t-137.5 -266t-256 -207t-397.5 -96v161q252 14 404.5 131t224.5 361l-4 4q-41 -41 -89 -67.5t-96.5 -41t-94.5 -19.5t-85 -5q-90 0 -173 23.5 t-147.5 72.5t-102 126t-37.5 183zM293 920q0 -135 91 -199t232 -64q150 0 244 71t94 194q0 49 -20.5 96t-60 86t-100 62.5t-142.5 23.5q-154 0 -246 -71.5t-92 -198.5z" />
<glyph unicode=":" horiz-adv-x="471" d="M119 102q0 53 35.5 87t83.5 34q51 0 83.5 -34.5t32.5 -86.5q0 -51 -33.5 -85.5t-82.5 -34.5t-84 33.5t-35 86.5zM119 745q0 53 35.5 87t83.5 34q51 0 83.5 -35.5t32.5 -85.5q0 -51 -33.5 -85.5t-82.5 -34.5t-84 34.5t-35 85.5z" />
<glyph unicode=";" horiz-adv-x="485" d="M119 102q0 53 34.5 88t84.5 35q59 0 97 -44t38 -118q0 -100 -53.5 -171.5t-133.5 -120.5l-51 63q43 31 72 70t33 88q-49 -4 -85 26.5t-36 83.5zM127 745q0 53 37 87t86 34t84 -34.5t35 -86.5q0 -51 -35 -85.5t-84 -34.5q-51 0 -87 34.5t-36 85.5z" />
<glyph unicode="&#x3c;" d="M225 584v139q80 39 186.5 94t217 111.5t216 111t185.5 93.5v-179l-602 -299q55 -29 135 -70.5t166 -86.5t166 -87t135 -69v-178z" />
<glyph unicode="=" d="M213 362v162h836v-162h-836zM213 766v160h836v-160h-836z" />
<glyph unicode="&#x3e;" d="M227 164v180l604 313q-23 10 -69.5 34t-107 53.5t-125 62.5t-125 62.5t-107.5 53t-70 33.5v179q33 -16 96.5 -48t142.5 -72t166 -85t166 -85t141 -72t95 -48v-141z" />
<glyph unicode="?" horiz-adv-x="1017" d="M72 948q6 96 45 171t99 126t138 78t164 27q98 0 174 -28t128 -76t79 -112.5t27 -138.5q0 -68 -24.5 -118t-60.5 -93t-79 -84t-80 -89t-61.5 -108.5t-26.5 -140.5h-176q0 88 23.5 158t59.5 126t76.5 101.5t75.5 87.5t58.5 81.5t23.5 87.5q0 29 -12 60.5t-39 58t-70 44 t-104 17.5q-66 0 -112 -22.5t-76.5 -58.5t-47 -77t-22.5 -78h-180zM389 98q0 59 38 88t81 29q49 0 81 -34t32 -83t-34 -80.5t-81 -31.5q-51 0 -84 30.5t-33 81.5z" />
<glyph unicode="@" horiz-adv-x="1728" d="M139 670q0 156 57.5 289t159 231t240.5 153.5t301 55.5q154 0 281 -45t217 -128t139 -199t49 -257q0 -117 -31.5 -210t-85 -157.5t-124 -99.5t-148.5 -35q-57 0 -111.5 27t-72.5 78h-4q-99 -99 -220 -99q-55 0 -105 20.5t-87 60.5t-58.5 101.5t-21.5 141.5 q0 117 28.5 201t75 138t105.5 80.5t119 26.5q47 0 97 -18t91 -59h2l6 63h138l-46 -530v-15q0 -43 22 -67.5t60 -24.5q45 0 88 28t76 77t52.5 117.5t19.5 150.5q0 125 -45 221t-121 161.5t-175 99.5t-208 34q-135 0 -249.5 -47t-199.5 -129t-132.5 -193.5t-47.5 -242.5 q0 -141 46 -257t129 -197t199 -125t255 -44q59 0 111.5 5t100.5 15.5t97 27t103 38.5q10 -29 20 -57.5t21 -57.5q-104 -39 -211 -62.5t-234 -23.5q-166 0 -306 50.5t-242.5 145.5t-161 232.5t-58.5 309.5zM664 610q0 -100 42.5 -154.5t118.5 -54.5q47 0 94.5 27t69.5 64 l27 337q-25 35 -67 62t-91 27q-47 0 -83 -25t-60.5 -67t-37.5 -97t-13 -119z" />
<glyph unicode="A" horiz-adv-x="1300" d="M33 0l520 1333h209q129 -336 258 -666.5t262 -666.5h-203q-29 76 -57.5 151.5t-56.5 153.5h-619q-29 -78 -57.5 -153.5t-57.5 -151.5h-198zM403 467h502q-61 168 -124.5 325.5t-123.5 340.5h-6z" />
<glyph unicode="B" horiz-adv-x="1234" d="M135 0v1333h561q172 0 278.5 -86t106.5 -246q0 -92 -52 -168.5t-136 -107.5v-6q102 -25 173 -111t71 -209q0 -193 -118 -296t-331 -103h-553zM319 170h365q131 0 194.5 60.5t63.5 168.5q0 113 -74.5 171.5t-185.5 58.5h-363v-459zM319 793h361q98 0 154.5 54t56.5 136 q0 84 -51.5 133t-151.5 49h-369v-372z" />
<glyph unicode="C" horiz-adv-x="1157" d="M92 670q0 158 41 284.5t117 216t181.5 137.5t232.5 48q143 0 248.5 -49.5t183.5 -143.5l-133 -127q-68 76 -140.5 110t-160.5 34q-90 0 -159 -38t-117 -105.5t-72.5 -162t-24.5 -204.5q0 -109 23.5 -203t71.5 -164t118.5 -109.5t163.5 -39.5q172 0 305 151l133 -119 q-78 -96 -183.5 -151t-258.5 -55q-127 0 -231.5 47t-180.5 136t-117 217t-41 290z" />
<glyph unicode="D" horiz-adv-x="1273" d="M145 0v1333h359q137 0 258 -35.5t211 -115.5t143 -207t53 -307t-53 -307.5t-145 -207t-214 -116.5t-259 -37h-353zM334 170h162q242 0 360.5 134t118.5 362q0 113 -30 205t-89 156.5t-148.5 100t-209.5 35.5h-164v-993z" />
<glyph unicode="E" horiz-adv-x="1069" d="M131 0v1333h879v-170h-688v-370h487v-170h-487v-453h712v-170h-903z" />
<glyph unicode="F" horiz-adv-x="1036" d="M141 0v1333h883v-172h-694v-387h487v-170h-487v-604h-189z" />
<glyph unicode="G" horiz-adv-x="1239" d="M84 666q0 160 41 286.5t115.5 215.5t180 136.5t232.5 47.5q141 0 248 -48.5t186 -146.5l-137 -127q-127 145 -301 146q-92 0 -160.5 -38t-115.5 -106.5t-70.5 -162t-23.5 -203.5q0 -117 23.5 -212.5t71.5 -163t118.5 -104t164.5 -36.5q98 0 162 35.5t98.5 90t48 117 t13.5 117.5h-219v160h411v-138q0 -129 -35.5 -231t-103 -174t-164 -109.5t-215.5 -37.5q-135 0 -240.5 48t-178 138t-111.5 216t-39 284z" />
<glyph unicode="H" horiz-adv-x="1294" d="M129 0v1333h193v-553h651v553h190v-1333h-190v608h-651v-608h-193z" />
<glyph unicode="I" horiz-adv-x="520" d="M164 0v1333h192v-1333h-192z" />
<glyph unicode="J" horiz-adv-x="1148" d="M51 309l180 66q41 -109 109 -165t182 -56q158 0 223.5 99t65.5 284v796h190v-809q0 -274 -117.5 -409t-363.5 -135q-195 0 -305.5 86t-163.5 243z" />
<glyph unicode="K" horiz-adv-x="1210" d="M129 0v1333h190v-704h7l161 211q31 39 83.5 106.5t108.5 139t108.5 139t82.5 108.5h220q-31 -37 -82.5 -101.5t-106.5 -133t-105.5 -133t-80.5 -103.5q25 -47 62.5 -115.5t80.5 -149.5t89 -166t89 -166t80 -149.5t62 -115.5h-217q-12 23 -41 77t-67 124.5t-79 149.5 t-79 149.5t-66.5 126t-40.5 78.5q-14 -18 -52 -66.5t-81 -103t-82 -102.5t-54 -66v-367h-190z" />
<glyph unicode="L" horiz-adv-x="1013" d="M129 0v1333h190v-1161h680v-172h-870z" />
<glyph unicode="M" horiz-adv-x="1484" d="M135 0v1333h197l233 -522l176 -399h9l176 401l233 520h187v-1333h-187v924h-4l-147 -332l-271 -584l-254 563l-155 355h-6v-926h-187z" />
<glyph unicode="N" horiz-adv-x="1275" d="M127 0v1333h184q41 -63 98.5 -150t118 -179.5t119 -178.5t98.5 -149l213 -338h7v995h186v-1333h-172q-23 33 -60.5 90t-84 128t-98.5 149.5t-102 155.5t-95 146.5t-78 121.5l-139 219h-7v-1010h-188z" />
<glyph unicode="O" horiz-adv-x="1318" d="M92 666q0 147 38 273t109.5 218t178 144.5t241.5 52.5q129 0 233.5 -49.5t178.5 -140.5t114 -217t40 -279q0 -156 -40 -283t-114 -217t-178.5 -139t-235.5 -49q-135 0 -240.5 51t-178 142t-109.5 217t-37 276zM287 668q0 -106 23.5 -200.5t69.5 -164.5t116.5 -110.5 t162.5 -40.5t162 40.5t116 111.5t69.5 164t23.5 198q0 111 -23.5 206t-69.5 163.5t-117 107.5t-163 39t-161.5 -39t-115.5 -107.5t-69.5 -163t-23.5 -204.5z" />
<glyph unicode="P" horiz-adv-x="1146" d="M131 0v1333h553q96 0 176 -25.5t138.5 -76.5t91 -128t32.5 -179q0 -104 -32.5 -183t-93 -131.5t-143.5 -79t-183 -26.5h-353v-504h-186zM317 672h361q119 2 184.5 64.5t65.5 183.5t-71 183t-183 62h-357v-493z" />
<glyph unicode="Q" horiz-adv-x="1323" d="M100 668q0 156 40 282.5t114 216.5t178.5 138.5t233.5 48.5q131 0 235.5 -48.5t178 -137.5t113.5 -215.5t40 -282.5q0 -180 -54.5 -320.5t-156.5 -234.5l84 -129q-6 -4 -25.5 -16.5t-42 -28t-42 -28.5l-25.5 -17l-86 131q-109 -45 -219 -45q-129 0 -233.5 48t-178.5 137 t-114 216t-40 285zM295 670q0 -113 22.5 -208t68.5 -164t114.5 -108.5t161.5 -39.5q29 0 63.5 5t62.5 17l-90 137l131 88l86 -129q68 78 95.5 178.5t27.5 221.5q0 113 -23.5 207t-69.5 162.5t-116.5 106.5t-162.5 38t-162 -38t-116 -105.5t-69.5 -162t-23.5 -206.5z" />
<glyph unicode="R" horiz-adv-x="1212" d="M131 0v1333h561q94 0 175 -24.5t138.5 -74.5t90 -126t32.5 -180q0 -154 -72.5 -251t-201.5 -136l260 -541h-209l-235 516h-353v-516h-186zM317 680h365q121 0 187.5 64.5t66.5 181.5t-69.5 178t-184.5 61h-365v-485z" />
<glyph unicode="S" horiz-adv-x="1116" d="M94 158l121 137q78 -68 170 -106.5t190 -38.5q135 0 214 48t79 158q0 51 -22.5 87t-63.5 64t-99 48t-130 43q-98 31 -177 61.5t-133.5 73.5t-83 103.5t-28.5 148.5q0 84 35 152.5t96.5 117t143.5 74t178 25.5q129 0 237.5 -39t196.5 -111q-4 -4 -20.5 -24.5t-36 -45 t-37 -45t-19.5 -22.5q-147 117 -338 117q-121 0 -182 -54.5t-61 -134.5q0 -45 21.5 -76.5t57 -55t80.5 -41t92 -31.5q74 -25 160 -52.5t160 -74t122 -118t48 -184.5q0 -180 -129 -281t-371 -101q-141 0 -263 48t-208 130z" />
<glyph unicode="T" horiz-adv-x="1052" d="M37 1163v170h991v-170h-403v-1163h-187v1163h-401z" />
<glyph unicode="U" horiz-adv-x="1284" d="M131 557v776h191v-768q0 -193 80.5 -302t242.5 -109q168 0 247 106.5t79 292.5v780h192v-778q0 -291 -138 -433t-384 -142q-242 0 -376 144t-134 433z" />
<glyph unicode="V" horiz-adv-x="1249" d="M51 1333h205q10 -33 30.5 -92t45 -133t53.5 -157t55.5 -163.5t51 -151.5t43.5 -122l96 -291h6q10 31 23.5 73t29 88t30.5 95t32 96l254 758h202l-469 -1333h-215z" />
<glyph unicode="W" horiz-adv-x="1589" d="M49 1333h197q10 -51 28.5 -145t40 -204t44 -220.5t38.5 -192.5q4 -27 11.5 -65.5t15.5 -80.5t15 -81t14 -65h6l67 290q14 61 40 166t52.5 216.5t51 216t39.5 165.5h184q6 -23 20.5 -82t33 -137t40 -166t39.5 -167t32.5 -138t20.5 -82l64 -282h4l57 282q4 25 16.5 85.5 t27 137t31.5 161.5t32.5 163t27 138.5t17.5 86.5h190q-8 -39 -30.5 -142.5t-51 -238.5t-61.5 -285.5t-62.5 -285.5t-52 -238.5t-31.5 -142.5h-215l-178 750q-2 12 -11 51t-19.5 84t-20.5 84t-12 51h-4l-62 -266q-10 -41 -25.5 -101.5t-33 -131t-35.5 -146.5t-34.5 -146.5 t-31 -130t-24.5 -98.5h-211q-8 33 -30.5 135.5t-52.5 239.5t-62.5 291.5t-62.5 292t-52.5 239.5t-30.5 135z" />
<glyph unicode="X" horiz-adv-x="1157" d="M53 0l424 684l-397 649h219l281 -487l284 487h211l-397 -645l422 -688h-217l-308 528l-307 -528h-215z" />
<glyph unicode="Y" horiz-adv-x="1187" d="M12 1333h215q45 -88 90 -174t93 -176q47 -88 92 -174t90 -176q47 92 93 177t93 175q45 88 90 173t93 175h210l-485 -866v-467h-188v467z" />
<glyph unicode="Z" horiz-adv-x="1150" d="M76 0v164l788 999h-749v170h972v-166l-788 -997h786v-170h-1009z" />
<glyph unicode="[" horiz-adv-x="661" d="M139 -236v1670h434v-156h-251v-1356h251v-158h-434z" />
<glyph unicode="\" horiz-adv-x="886" d="M-12 1489h172l725 -1651h-172z" />
<glyph unicode="]" horiz-adv-x="675" d="M133 -78h252v1356h-252v156h434v-1670h-434v158z" />
<glyph unicode="^" horiz-adv-x="1087" d="M119 678l358 655h144l356 -655h-178l-252 491l-254 -491h-174z" />
<glyph unicode="_" horiz-adv-x="1019" d="M0 -141h1020v-133h-1020v133z" />
<glyph unicode="`" horiz-adv-x="1003" d="M283 1466l196 37l150 -342l-97 -33z" />
<glyph unicode="a" horiz-adv-x="999" d="M70 291q0 78 28.5 139.5t78.5 104.5t120 65.5t152 22.5q63 0 126.5 -12.5t133.5 -49.5v107q0 200 -215 200h-2q-72 0 -136.5 -17t-130.5 -48l-55 137q76 37 159 58.5t183 21.5q180 0 277.5 -84t97.5 -250v-686h-178v94h-4q-76 -70 -154 -92t-145 -22q-59 0 -120 17 t-109 54t-77.5 96.5t-29.5 143.5zM250 305q0 -88 52 -135t151 -47q72 4 139 39t117 86v172q-53 31 -110.5 50t-135.5 19q-88 0 -150.5 -48t-62.5 -136z" />
<glyph unicode="b" horiz-adv-x="1050" d="M113 0v1352l180 75v-526h4q76 66 143 91.5t135 25.5q74 0 142.5 -26.5t122 -86t85 -155t31.5 -230.5q0 -137 -32.5 -238.5t-86 -169t-125 -100t-147.5 -32.5q-66 0 -134.5 23.5t-133.5 88.5h-4v-92h-180zM293 262q41 -51 102.5 -91t136.5 -40q106 0 173 97.5t71 260.5 q0 375 -246 375q-72 0 -135 -41t-102 -88v-473z" />
<glyph unicode="c" horiz-adv-x="917" d="M92 467q0 131 32 234.5t89 173t137 106.5t176 37q104 0 186.5 -34t151.5 -112l-114 -116q-55 57 -108.5 81.5t-117.5 24.5q-61 0 -107 -29.5t-78 -81t-48.5 -123t-16.5 -153.5q0 -147 67 -242.5t189 -95.5q63 0 116.5 26.5t107.5 82.5l114 -109q-66 -74 -147.5 -115.5 t-198.5 -41.5q-90 0 -168 30.5t-136 92t-92 152.5t-34 212z" />
<glyph unicode="d" horiz-adv-x="1046" d="M90 461q0 150 37 255t95.5 172.5t132 98.5t149.5 31q74 0 134 -26.5t112 -73.5h6v434l180 75v-1427h-180v94h-4q-70 -68 -141.5 -91t-141.5 -23q-78 0 -147.5 27.5t-120.5 86t-81 149.5t-30 218zM270 465q0 -160 63.5 -247t180.5 -87q78 0 139.5 40t104.5 91v473 q-41 51 -99.5 90t-130.5 39q-123 0 -190.5 -103.5t-67.5 -295.5z" />
<glyph unicode="e" horiz-adv-x="1021" d="M90 487q0 123 33 220.5t91 167t138 106.5t174 37q104 0 183 -37t132.5 -103.5t80 -160.5t26.5 -209v-72h-678q10 -150 87 -227.5t188 -77.5q63 0 125.5 24.5t109.5 65.5l94 -112q-76 -70 -160.5 -99.5t-187.5 -29.5q-98 0 -178 32.5t-137 97t-89 160t-32 217.5zM270 569 h500q0 61 -15.5 115.5t-45 94.5t-76.5 63.5t-113 23.5q-98 0 -168.5 -80.5t-81.5 -216.5z" />
<glyph unicode="f" horiz-adv-x="620" d="M63 856v143h127v187q0 123 69 179t185 56q29 0 71 -2t71 -8l-4 -145q-25 2 -44.5 2h-35.5q-61 0 -95 -20.5t-34 -84.5v-164h209v-143h-209v-856h-183v856h-127z" />
<glyph unicode="g" horiz-adv-x="1050" d="M92 481q0 135 33 235.5t87 168t124 100.5t145 33q72 0 140.5 -25.5t134.5 -87.5v94h182v-925q0 -182 -99.5 -315.5t-328.5 -188.5l-55 149q100 31 160.5 70t92 80t42 84t10.5 82v69h-6q-78 -70 -144.5 -93t-136.5 -23q-78 0 -146.5 25.5t-120.5 84t-83 152.5t-31 231z M272 508q0 -369 248 -369q72 0 134.5 42t103.5 89v463q-41 51 -102.5 92t-139.5 41q-106 0 -173 -97t-71 -261z" />
<glyph unicode="h" horiz-adv-x="1026" d="M113 0v1352l180 75v-555h6q55 76 135 111t152 35q176 0 259 -102.5t83 -292.5v-623h-180v592q0 127 -51.5 198.5t-166.5 71.5q-86 0 -146 -53t-81 -135q-10 -41 -10 -88v-586h-180z" />
<glyph unicode="i" horiz-adv-x="493" d="M137 1270q0 47 32 78.5t79 31.5q45 0 77.5 -31.5t32.5 -78.5q0 -45 -32.5 -78t-77.5 -33q-47 0 -79 33t-32 78zM158 0v999h180v-999h-180z" />
<glyph unicode="j" horiz-adv-x="495" d="M-39 -262q72 12 113 29.5t62.5 45t27.5 67.5t6 97v1022h178v-1015q0 -96 -15.5 -169t-56 -122t-113.5 -76t-190 -29zM152 1270q0 47 31.5 78.5t78.5 31.5q45 0 77 -31.5t32 -78.5q0 -45 -32 -78t-77 -33q-47 0 -78.5 33t-31.5 78z" />
<glyph unicode="k" horiz-adv-x="940" d="M113 0v1352l178 75v-888h4l131 170l227 288h217l-262 -323q25 -55 67 -147.5t86 -190.5t86 -189.5t66 -146.5h-198q-18 43 -50 114.5t-65 148.5t-64.5 149.5t-50.5 115.5l-194 -245v-283h-178z" />
<glyph unicode="l" horiz-adv-x="446" d="M133 0v1352l180 78v-1430h-180z" />
<glyph unicode="m" horiz-adv-x="1581" d="M109 0v999h180v-129h6q53 80 128 113t146 33q102 0 171 -45t102 -125q78 98 157.5 134t159.5 36q174 0 247 -102.5t73 -290.5v-623h-181v592q0 63 -9 112.5t-31.5 84t-59.5 53t-94 18.5q-78 0 -134.5 -53t-74.5 -131q-12 -37 -12 -82v-594h-178v598q0 123 -42 192.5 t-153 69.5q-80 0 -134 -51t-75 -129q-4 -20 -8 -45t-4 -51v-584h-180z" />
<glyph unicode="n" horiz-adv-x="1026" d="M111 0v999h180v-131l6 -2q53 80 133 116t154 36q178 0 260 -102.5t82 -292.5v-623h-181v592q0 131 -51 200.5t-166 69.5q-86 0 -146 -53t-81 -135q-10 -41 -10 -88v-586h-180z" />
<glyph unicode="o" horiz-adv-x="1075" d="M92 489q0 127 34 225.5t94.5 166t142 102.5t180.5 35q96 0 177 -35t139.5 -100.5t91 -159.5t32.5 -213q0 -127 -35 -225.5t-96 -166t-144.5 -103t-181.5 -35.5t-178 34.5t-137 101t-88 161t-31 212.5zM274 504q0 -172 66 -271.5t195 -99.5q63 0 113 30t85 80t52.5 116.5 t17.5 140.5q0 80 -16.5 146.5t-50.5 114.5t-82.5 75.5t-116.5 27.5q-63 0 -111.5 -27.5t-82.5 -76.5t-51.5 -114.5t-17.5 -141.5z" />
<glyph unicode="p" horiz-adv-x="1050" d="M113 -401v1402h180v-96h4q66 63 137 89t141 26q74 0 143.5 -28.5t122 -90t84 -157t31.5 -226.5q0 -143 -35.5 -245.5t-93 -167t-130 -94t-146.5 -29.5t-135.5 24.5t-120.5 81.5h-4v-412q-10 -4 -36 -15t-53.5 -23.5t-53 -23.5t-35.5 -15zM291 264q39 -53 101.5 -91 t129.5 -38q123 0 188.5 94.5t65.5 278.5q0 172 -66.5 266t-177.5 94q-78 0 -139 -40t-102 -91v-473z" />
<glyph unicode="q" horiz-adv-x="1046" d="M92 492q0 135 34 233t88 163.5t123.5 97.5t143.5 32q70 0 138.5 -23.5t132.5 -89.5h4v94h180v-1323l-180 -77v497h-4q-76 -66 -143.5 -91t-135.5 -25q-78 0 -147.5 27.5t-121.5 89t-82 158.5t-30 237zM270 504q0 -371 244 -371q72 0 136.5 41t105.5 88v471 q-41 53 -102.5 94t-137.5 41q-53 0 -97 -26.5t-77 -74.5t-51.5 -114.5t-20.5 -148.5z" />
<glyph unicode="r" horiz-adv-x="743" d="M139 0v999h180v-135h5q43 80 115.5 117t154.5 37q68 0 139 -25l-37 -174q-37 6 -69.5 10.5t-63.5 4.5q-244 0 -244 -267v-567h-180z" />
<glyph unicode="s" horiz-adv-x="919" d="M78 78l65 135q78 -43 159 -65.5t149 -22.5q39 0 76.5 7t67.5 23.5t48.5 42t18.5 62.5q0 39 -16.5 65.5t-47.5 47t-74 37t-94 32.5q-74 23 -134 50.5t-103 62.5t-67 81t-24 105q0 123 96.5 200t276.5 77q88 0 171 -19t159 -59l-60 -137q-78 41 -149.5 54t-120.5 13 q-104 0 -153.5 -35.5t-49.5 -84.5q0 -25 8.5 -45.5t31 -39t62.5 -36t105 -35.5q78 -23 144.5 -50.5t114.5 -64.5t75 -88t27 -121q0 -72 -30 -126t-83 -91t-125 -55t-153 -18q-94 0 -191.5 25.5t-179.5 72.5z" />
<glyph unicode="t" horiz-adv-x="679" d="M53 854v145h154v238q4 2 29.5 13.5t55.5 23.5t56.5 23.5t30.5 13.5v-312h209v-145h-209v-588q0 -70 26.5 -95.5t86.5 -25.5q49 0 126 13l17 -138q-41 -16 -97.5 -26t-105.5 -10q-113 0 -170 59t-57 186v625h-152z" />
<glyph unicode="u" horiz-adv-x="1024" d="M106 360v639h181v-593q0 -131 49 -198t162 -67q86 0 142 49.5t79 128.5q12 43 12 95v585h180v-999h-180v129h-6q-57 -80 -133 -114.5t-148 -34.5q-338 0 -338 380z" />
<glyph unicode="v" horiz-adv-x="956" d="M20 999h187q16 -51 38.5 -123.5t47 -149.5t48.5 -149.5t40 -121.5q6 -14 17.5 -51t24.5 -78t25.5 -78t16.5 -51h6l82 258q16 49 42 121.5t52.5 149.5t52 149.5t43.5 123.5h183q-31 -88 -80 -222t-103.5 -277.5t-104.5 -277.5t-81 -222h-188q-31 88 -78 222t-97.5 277.5 t-96.5 277.5t-77 222z" />
<glyph unicode="w" horiz-adv-x="1325" d="M20 999h183l114 -471l60 -274h6q4 18 12 52t18.5 72t20.5 78t21 74q12 47 29.5 116t36 137.5t33.5 127t24 88.5h163l129 -489l58 -258h6l59 262q12 43 27.5 107.5t33 134t33 134t25.5 109.5h182q-25 -88 -61.5 -222t-76.5 -277.5t-77 -277.5t-59 -222h-172 q-10 37 -29.5 111.5t-41 159.5t-43 168t-36.5 139l-41 167h-4l-51 -202l-145 -543h-166q-23 88 -59.5 222t-75.5 277.5t-75 277.5t-61 222z" />
<glyph unicode="x" horiz-adv-x="892" d="M29 0l313 516l-289 483h201l190 -354l193 354h199l-293 -477q8 -12 32.5 -52t57.5 -94t68.5 -114.5t68.5 -115t56.5 -94.5t31.5 -52h-207l-211 389l-213 -389h-198z" />
<glyph unicode="y" horiz-adv-x="978" d="M27 999h188l174 -503q8 -27 20.5 -66t27 -82t26.5 -82t22 -65h7q8 27 22 65.5t27.5 81.5t27 82t21.5 66l178 503h180q-29 -80 -69.5 -191.5t-87 -238.5t-95.5 -263t-95 -263t-87 -238.5t-70 -189.5h-170l132 367q-23 57 -53.5 139t-64.5 175t-72 192.5t-71.5 193.5 t-64.5 176t-53 141z" />
<glyph unicode="z" horiz-adv-x="940" d="M76 0v141q45 59 120.5 154.5t157.5 198t157 197.5t120 155q0 4 -2 6h-516v147h737v-141q-31 -39 -76 -95t-97 -122t-107.5 -136.5t-107.5 -136t-96 -121.5t-75 -95q0 -2 1 -2t1 -3h559v-147h-776z" />
<glyph unicode="{" horiz-adv-x="679" d="M102 535v118q43 4 70 26.5t43 55.5t22.5 75t6.5 85v240q0 129 62.5 205.5t201.5 76.5h106v-143h-82q-68 0 -91 -51.5t-23 -135.5v-200q0 -119 -44 -191.5t-110 -97.5v-8q66 -23 110 -93.5t44 -199.5v-203q0 -82 23.5 -134t90.5 -52h82v-141h-108q-143 0 -202.5 79.5 t-59.5 212.5v238q0 41 -7.5 82t-23.5 73.5t-43 55t-68 27.5z" />
<glyph unicode="|" horiz-adv-x="507" d="M182 -252v1784h166v-1784h-166z" />
<glyph unicode="}" horiz-adv-x="679" d="M106 -92h82q66 0 90.5 52t24.5 134v203q0 129 44 199.5t110 93.5v8q-66 25 -110 97.5t-44 191.5v200q0 84 -24.5 135.5t-90.5 51.5h-82v143h101q143 0 206.5 -75.5t63.5 -206.5v-246q0 -43 7.5 -84t23.5 -73t43 -53.5t67 -25.5v-118q-41 -4 -67.5 -27t-42.5 -56.5 t-23.5 -73.5t-7.5 -81v-258q-4 -125 -65.5 -198.5t-196.5 -73.5h-109v141z" />
<glyph unicode="~" d="M154 606q27 61 61.5 102.5t72.5 66t78 34.5t74 10q55 0 110.5 -19.5t110 -44t103.5 -44t90 -19.5q57 0 97 29t81 88l101 -61q-49 -109 -120 -159t-165 -50q-49 0 -102.5 20.5t-107.5 45t-105.5 45t-94.5 20.5q-57 0 -98 -32t-82 -85z" />
<glyph unicode="&#xa2;" d="M236 498q0 225 101 357t267 157v221h121v-217q168 -16 289 -152l-113 -114q-59 59 -110.5 85.5t-118.5 26.5q-61 0 -108.5 -26.5t-79 -74.5t-49 -113.5t-17.5 -143.5t16.5 -145.5t48 -116.5t80.5 -77t117 -28t120 28t107 85l111 -105q-51 -68 -124 -109.5t-169 -51.5 v-224h-121v226q-82 10 -149.5 49t-116.5 103.5t-75.5 154.5t-26.5 205z" />
<glyph unicode="&#xa3;" d="M162 0v158q86 84 128 171t46 212h-174v143h155q-10 41 -23 79t-25.5 76t-20.5 75.5t-8 78.5q0 70 29.5 135.5t85 115.5t135 80t178.5 30q166 0 268 -59.5t174 -170.5q-39 -25 -76 -49t-73 -51q-53 78 -121 121t-170 43q-43 0 -86 -12.5t-78 -39t-57.5 -67.5t-22.5 -96 q0 -31 8 -65t20.5 -70.5t25 -74.5t20.5 -77h317v-143h-301v-21q0 -96 -33.5 -188t-105.5 -174h725v-160h-940z" />
<glyph unicode="&#xa5;" d="M90 1333h217l332 -667l334 667h211l-252 -459h194v-133h-268l-76 -137h344v-133h-397v-471h-188v471h-389v133h335l-75 137h-260v133h188z" />
<glyph unicode="&#xa8;" horiz-adv-x="1001" d="M215 1282q0 43 32 72.5t72 29.5q41 0 73 -29.5t32 -72.5t-32 -73.5t-73 -30.5t-72.5 30.5t-31.5 73.5zM621 1282q0 43 31.5 72.5t74.5 29.5q41 0 70.5 -29.5t29.5 -72.5t-29.5 -73.5t-70.5 -30.5q-43 0 -74.5 30.5t-31.5 73.5z" />
<glyph unicode="&#xa9;" horiz-adv-x="1566" d="M111 670q0 147 52 274t143 219t215 145.5t270 53.5q143 0 268 -53.5t216 -145.5t143 -219t52 -274t-52 -274.5t-143 -219.5t-216 -145.5t-268 -53.5q-145 0 -269.5 53.5t-215.5 145.5t-143 219t-52 275zM223 670q0 -123 43 -229.5t119 -185.5t180.5 -123t225.5 -44 t224 44t180 123t120 185.5t43 229.5t-43 229.5t-120 185t-180 122.5t-224 44t-225.5 -44t-180.5 -122.5t-119 -185t-43 -229.5zM451 664q0 94 24.5 170.5t70.5 132t110.5 85t142.5 29.5q98 0 164.5 -38.5t111.5 -110.5l-104 -64q-35 51 -74 76t-98 25q-109 0 -164 -86 t-55 -219t55 -218.5t164 -85.5q61 0 102 25t78 74l100 -66q-51 -70 -119.5 -108.5t-160.5 -38.5q-80 0 -144.5 29.5t-109.5 85t-69.5 132.5t-24.5 171z" />
<glyph unicode="&#xab;" horiz-adv-x="1021" d="M104 502l283 422h168l-281 -422l281 -420h-168zM492 502l282 422h168l-278 -422l278 -420h-168z" />
<glyph unicode="&#xad;" horiz-adv-x="716" d="M111 545v176h497v-176h-497z" />
<glyph unicode="&#xae;" horiz-adv-x="1081" d="M129 958q0 88 30.5 164t86 131.5t130.5 87t163 31.5t162.5 -31.5t130 -87t87 -131t31.5 -164.5q0 -90 -31.5 -165.5t-87 -131t-130 -86t-162.5 -30.5t-163 30.5t-130.5 86t-86 131t-30.5 165.5zM207 958q0 -72 25.5 -134t69.5 -108t104.5 -73t132.5 -27t132 27t105 73 t69.5 108.5t24.5 133.5q0 72 -24.5 135.5t-69.5 109.5t-105 73t-132 27t-132.5 -27t-104.5 -73t-69.5 -108.5t-25.5 -136.5zM379 721v477h196q70 0 114 -37t44 -112q0 -98 -88 -140l94 -188h-96l-84 176h-96v-176h-84zM463 973h108q39 0 57.5 19.5t18.5 54.5q0 74 -76 73 h-108v-147z" />
<glyph unicode="&#xb4;" horiz-adv-x="1001" d="M406 1161l147 346l195 -37l-246 -342z" />
<glyph unicode="&#xb8;" horiz-adv-x="1085" d="M406 -389l30 84q72 -29 135 -29q45 0 73 20.5t28 55.5q0 41 -31 61.5t-72 20.5q-6 0 -12 -1t-10 -1l-47 47q16 49 32.5 98t32.5 96l86 -6l-49 -143q59 -4 98 -22.5t61.5 -43t32 -52t9.5 -50.5q0 -29 -11.5 -58.5t-38 -55t-68.5 -42t-105 -16.5q-35 0 -79 7t-95 30z" />
<glyph unicode="&#xbb;" horiz-adv-x="1021" d="M106 82l281 420l-281 422h170l283 -422l-285 -420h-168zM494 82l280 420l-278 422h168l282 -422l-284 -420h-168z" />
<glyph unicode="&#x192;" d="M102 -164l50 146q35 -12 64.5 -19.5t51.5 -7.5q45 0 77 18.5t53.5 53t34.5 85t24 111.5q18 104 35.5 230.5t33.5 232.5h-178v150h199q10 88 26.5 187t56.5 181t111.5 136.5t192.5 54.5q51 0 98 -9.5t82 -21.5q-10 -39 -19.5 -76t-19.5 -76q-35 12 -68.5 17.5t-64.5 5.5 q-57 0 -95 -34t-60.5 -90t-35 -128t-18.5 -147h207v-150h-229q-23 -195 -43.5 -357.5t-60.5 -281.5t-111.5 -185.5t-200.5 -66.5q-41 0 -96.5 10.5t-96.5 30.5z" />
<glyph unicode="&#x2c6;" horiz-adv-x="1060" d="M182 1180l267 268h159l264 -268l-69 -60l-279 191l-270 -189z" />
<glyph unicode="&#x2da;" horiz-adv-x="1001" d="M352 1311q0 82 56.5 137t138.5 55q84 0 140 -55t56 -137q0 -86 -56 -141.5t-140 -55.5q-82 0 -138.5 54.5t-56.5 142.5zM449 1311q0 -45 28.5 -75t69.5 -30q43 0 71.5 30t28.5 75q0 41 -28.5 69.5t-71.5 28.5q-41 0 -69.5 -28.5t-28.5 -69.5z" />
<glyph unicode="&#x2dc;" horiz-adv-x="1034" d="M168 1208q39 106 100.5 146.5t116.5 40.5q35 0 73 -14.5t74.5 -31t71.5 -30.5t66 -14q37 0 65.5 15t63.5 62l78 -39q-37 -96 -92 -135t-121 -39q-35 0 -72 13.5t-73 30t-70.5 29.5t-65.5 13q-35 0 -66.5 -16t-66.5 -68z" />
<glyph unicode="&#x401;" horiz-adv-x="1069" d="M131 0v1333h879v-170h-688v-370h487v-170h-487v-453h712v-170h-903zM272 1550q0 43 32 73t73 30t72.5 -30t31.5 -73t-31.5 -73.5t-72.5 -30.5t-73 30.5t-32 73.5zM678 1550q0 43 31.5 73t74.5 30q41 0 71 -30t30 -73t-30 -73.5t-71 -30.5q-43 0 -74.5 30.5t-31.5 73.5z " />
<glyph unicode="&#x402;" horiz-adv-x="1515" d="M37 1163v170h1126v-170h-555v-340q74 53 171.5 78t178.5 25q106 0 191.5 -34t146 -98.5t93 -155.5t32.5 -204q0 -106 -29.5 -198.5t-89 -162t-147.5 -110.5t-205 -43v150q74 6 126 38.5t85 82t48.5 112t15.5 127.5q0 160 -71 244t-212 84q-72 0 -160 -24.5t-174 -88.5 v-645h-188v1163h-383z" />
<glyph unicode="&#x403;" horiz-adv-x="1021" d="M131 0v1333h883v-170h-692v-1163h-191zM426 1491l285 207l147 -131l-369 -154z" />
<glyph unicode="&#x404;" horiz-adv-x="1146" d="M92 668q0 160 41 287.5t117 216t180.5 135.5t233.5 47q141 0 247.5 -49.5t184.5 -141.5l-138 -129q-66 76 -137 110t-159 34q-162 0 -254.5 -112t-112.5 -290h582v-164h-586q2 -90 26.5 -173t71.5 -146.5t116.5 -102t160.5 -38.5q170 0 303 151q8 -8 27.5 -24.5t40 -34 t39 -34.5t26.5 -26q-78 -94 -183.5 -149t-259.5 -55q-127 0 -231 47t-179 136t-116 217t-41 288z" />
<glyph unicode="&#x405;" horiz-adv-x="1116" d="M94 158l121 137q78 -68 170 -106.5t190 -38.5q135 0 214 48t79 158q0 51 -22.5 87t-63.5 64t-99 48t-130 43q-98 31 -177 61.5t-133.5 73.5t-83 103.5t-28.5 148.5q0 84 35 152.5t96.5 117t143.5 74t178 25.5q129 0 237.5 -39t196.5 -111q-4 -4 -20.5 -24.5t-36 -45 t-37 -45t-19.5 -22.5q-147 117 -338 117q-121 0 -182 -54.5t-61 -134.5q0 -45 21.5 -76.5t57 -55t80.5 -41t92 -31.5q74 -25 160 -52.5t160 -74t122 -118t48 -184.5q0 -180 -129 -281t-371 -101q-141 0 -263 48t-208 130z" />
<glyph unicode="&#x406;" horiz-adv-x="520" d="M164 0v1333h192v-1333h-192z" />
<glyph unicode="&#x407;" horiz-adv-x="520" d="M-41 1552q0 43 32 73t72 30q41 0 73 -30t32 -73t-32 -73.5t-73 -30.5t-72.5 30.5t-31.5 73.5zM164 0v1333h192v-1333h-192zM365 1552q0 43 31.5 73t74.5 30q41 0 70.5 -30t29.5 -73t-29.5 -73.5t-70.5 -30.5q-43 0 -74.5 30.5t-31.5 73.5z" />
<glyph unicode="&#x408;" horiz-adv-x="1148" d="M51 309l180 66q41 -109 109 -165t182 -56q158 0 223.5 99t65.5 284v796h190v-809q0 -274 -117.5 -409t-363.5 -135q-195 0 -305.5 86t-163.5 243z" />
<glyph unicode="&#x409;" horiz-adv-x="1859" d="M55 145q70 12 111 33t62.5 57.5t27.5 94t6 143.5v858h739v-543h363q207 0 322.5 -102t115.5 -295q0 -195 -114.5 -293t-311.5 -98h-565v1161h-369l4 -604q0 -98 -4 -200.5t-37.5 -185.5t-110.5 -135t-224 -52zM1001 168h359q53 0 100 12.5t81 40t53.5 70.5t19.5 106 q0 111 -72 167.5t-186 56.5h-355v-453z" />
<glyph unicode="&#x40a;" horiz-adv-x="1851" d="M129 0v1331h190v-543h486v543h192v-543h359q205 0 323.5 -102t118.5 -295q0 -104 -33.5 -178t-93 -121t-140.5 -69.5t-175 -22.5h-551v627h-486v-627h-190zM997 168h359q53 0 99 12.5t80 39t53.5 69.5t19.5 104q0 111 -66.5 173.5t-189.5 62.5h-355v-461z" />
<glyph unicode="&#x40b;" horiz-adv-x="1509" d="M55 1163v170h1102v-170h-536v-319l4 -2q80 49 171 71.5t169 22.5q94 0 174 -27.5t138 -82t90 -136.5t32 -190v-500h-182v475q0 158 -79 227.5t-216 69.5q-68 0 -154 -26.5t-147 -81.5v-664h-189v1163h-377z" />
<glyph unicode="&#x40c;" horiz-adv-x="1130" d="M131 0v1333h193v-616l6 -2l542 618h218l-566 -647l561 -686h-235l-520 647l-6 -2v-645h-193zM412 1491l284 207l148 -131l-369 -154z" />
<glyph unicode="&#x40e;" horiz-adv-x="1120" d="M20 1329h197l195 -475q35 -86 71.5 -179t71.5 -179h10q35 72 73 172t79 198q55 135 105 260t83 203h195l-463 -1081q-63 -147 -148.5 -207.5t-179.5 -60.5h-96v157h55q51 0 92 19.5t70 79.5l31 65zM291 1688h131q10 -57 45 -94.5t100 -37.5q70 0 105 42t37 90h133 q-2 -39 -16.5 -84t-46 -83t-83 -62.5t-127.5 -24.5q-78 0 -130 24.5t-84.5 62.5t-47 83t-16.5 84z" />
<glyph unicode="&#x40f;" horiz-adv-x="1294" d="M131 0v1333h191v-1163h653v1163h188v-1333h-420v-346h-196v346h-416z" />
<glyph unicode="&#x410;" horiz-adv-x="1300" d="M33 0l520 1333h209q129 -336 258 -666.5t262 -666.5h-203q-29 76 -57.5 151.5t-56.5 153.5h-619q-29 -78 -57.5 -153.5t-57.5 -151.5h-198zM403 467h502q-61 168 -124.5 325.5t-123.5 340.5h-6z" />
<glyph unicode="&#x411;" horiz-adv-x="1222" d="M135 0v1333h873v-170h-689v-370h367q209 0 329 -99.5t120 -300.5q-2 -188 -118 -290.5t-327 -102.5h-555zM319 170h373q121 0 187.5 58t66.5 169t-67.5 169.5t-184.5 58.5h-375v-455z" />
<glyph unicode="&#x412;" horiz-adv-x="1234" d="M135 0v1333h561q172 0 278.5 -86t106.5 -246q0 -92 -52 -168.5t-136 -107.5v-6q102 -25 173 -111t71 -209q0 -193 -118 -296t-331 -103h-553zM319 170h365q131 0 194.5 60.5t63.5 168.5q0 113 -74.5 171.5t-185.5 58.5h-363v-459zM319 793h361q98 0 154.5 54t56.5 136 q0 84 -51.5 133t-151.5 49h-369v-372z" />
<glyph unicode="&#x413;" horiz-adv-x="1021" d="M131 0v1333h883v-170h-692v-1163h-191z" />
<glyph unicode="&#x414;" horiz-adv-x="1417" d="M41 170h109q57 51 94 121.5t57.5 160t28.5 196t12 229.5l12 454h881v-1167h129l2 -483h-192v319h-943v-319h-190v489zM389 170h658v993h-510l-13 -293q-4 -94 -9 -193t-18.5 -192.5t-38 -174.5t-69.5 -140z" />
<glyph unicode="&#x415;" horiz-adv-x="1069" d="M131 0v1333h879v-170h-688v-370h487v-170h-487v-453h712v-170h-903z" />
<glyph unicode="&#x416;" horiz-adv-x="1708" d="M14 0l541 686l-532 647h217l510 -618l6 2v616h186v-616l6 -2l510 618h217l-532 -647l540 -686h-235l-500 647l-6 -2v-645h-186v645l-6 2l-500 -647h-236z" />
<glyph unicode="&#x417;" horiz-adv-x="1110" d="M16 158l23.5 23.5t37 38t37 38.5t23.5 25q74 -74 161 -103.5t183 -29.5q166 0 243 70.5t77 170.5q0 59 -20.5 102.5t-57.5 72t-87 42t-108 13.5h-206v151h200q59 0 108.5 16.5t85.5 44t56.5 65.5t20.5 81q0 80 -61.5 141.5t-196.5 61.5q-86 0 -182.5 -26t-162.5 -79 l-100 129q86 76 208 112t245 36q213 0 332.5 -90t119.5 -244q0 -102 -59 -188.5t-176 -129.5v-6q68 -18 114 -52t74.5 -76t42 -88t13.5 -91q0 -96 -38 -173t-106.5 -129t-165 -79.5t-211.5 -27.5q-139 0 -262 44t-205 134z" />
<glyph unicode="&#x418;" horiz-adv-x="1333" d="M131 0v1333h188v-1030h5l233 352l455 678h188v-1333h-188v1028h-4l-248 -375l-441 -653h-188z" />
<glyph unicode="&#x419;" horiz-adv-x="1333" d="M131 0v1333h188v-1030h5l233 352l455 678h188v-1333h-188v1028h-4l-248 -375l-441 -653h-188zM379 1688h131q10 -57 45 -94.5t100 -37.5q70 0 105 42t37 90h133q-2 -39 -16.5 -84t-46 -83t-83 -62.5t-127.5 -24.5q-78 0 -130 24.5t-84.5 62.5t-47 83t-16.5 84z" />
<glyph unicode="&#x41a;" horiz-adv-x="1130" d="M131 0v1333h193v-616l6 -2l542 618h218l-566 -647l561 -686h-235l-520 647l-6 -2v-645h-193z" />
<glyph unicode="&#x41b;" horiz-adv-x="1243" d="M61 145q70 12 111 33t62.5 57.5t27.5 94t6 143.5v858h840v-1331h-190v1163h-463v-606q0 -98 -4.5 -200.5t-38 -185.5t-111.5 -135t-225 -52z" />
<glyph unicode="&#x41c;" horiz-adv-x="1484" d="M135 0v1333h197l233 -522l176 -399h9l176 401l233 520h187v-1333h-187v924h-4l-147 -332l-271 -584l-254 563l-155 355h-6v-926h-187z" />
<glyph unicode="&#x41d;" horiz-adv-x="1294" d="M129 0v1333h193v-553h651v553h190v-1333h-190v608h-651v-608h-193z" />
<glyph unicode="&#x41e;" horiz-adv-x="1318" d="M92 666q0 147 38 273t109.5 218t178 144.5t241.5 52.5q129 0 233.5 -49.5t178.5 -140.5t114 -217t40 -279q0 -156 -40 -283t-114 -217t-178.5 -139t-235.5 -49q-135 0 -240.5 51t-178 142t-109.5 217t-37 276zM287 668q0 -106 23.5 -200.5t69.5 -164.5t116.5 -110.5 t162.5 -40.5t162 40.5t116 111.5t69.5 164t23.5 198q0 111 -23.5 206t-69.5 163.5t-117 107.5t-163 39t-161.5 -39t-115.5 -107.5t-69.5 -163t-23.5 -204.5z" />
<glyph unicode="&#x41f;" horiz-adv-x="1294" d="M131 0v1333h1032v-1333h-190v1163h-649v-1163h-193z" />
<glyph unicode="&#x420;" horiz-adv-x="1146" d="M131 0v1333h553q96 0 176 -25.5t138.5 -76.5t91 -128t32.5 -179q0 -104 -32.5 -183t-93 -131.5t-143.5 -79t-183 -26.5h-353v-504h-186zM317 672h361q119 2 184.5 64.5t65.5 183.5t-71 183t-183 62h-357v-493z" />
<glyph unicode="&#x421;" horiz-adv-x="1157" d="M92 670q0 158 41 284.5t117 216t181.5 137.5t232.5 48q143 0 248.5 -49.5t183.5 -143.5l-133 -127q-68 76 -140.5 110t-160.5 34q-90 0 -159 -38t-117 -105.5t-72.5 -162t-24.5 -204.5q0 -109 23.5 -203t71.5 -164t118.5 -109.5t163.5 -39.5q172 0 305 151l133 -119 q-78 -96 -183.5 -151t-258.5 -55q-127 0 -231.5 47t-180.5 136t-117 217t-41 290z" />
<glyph unicode="&#x422;" horiz-adv-x="1052" d="M37 1163v170h991v-170h-403v-1163h-187v1163h-401z" />
<glyph unicode="&#x423;" horiz-adv-x="1120" d="M20 1329h197l195 -475q35 -86 71.5 -179t71.5 -179h10q35 72 73 172t79 198q55 135 105 260t83 203h195l-463 -1081q-63 -147 -148.5 -207.5t-179.5 -60.5h-96v157h55q51 0 92 19.5t70 79.5l31 65z" />
<glyph unicode="&#x424;" horiz-adv-x="1470" d="M96 674q0 117 38 217t107.5 177t170 125t227.5 60v80h186v-80q133 -12 236.5 -60t174.5 -124t107.5 -176t36.5 -217q0 -121 -37.5 -222.5t-109.5 -178t-175.5 -124t-232.5 -57.5v-94h-186v96q-123 12 -223.5 60.5t-171 123t-109.5 175t-39 219.5zM281 676 q0 -78 21.5 -149.5t65.5 -129t111.5 -96.5t159.5 -53v848q-88 -12 -154.5 -50t-111.5 -94.5t-68.5 -127t-23.5 -148.5zM825 246q96 12 166 51t114 97.5t65.5 130t21.5 149.5t-20.5 149.5t-65.5 128t-113.5 96t-167.5 52.5v-854z" />
<glyph unicode="&#x425;" horiz-adv-x="1157" d="M53 0l424 684l-397 649h219l281 -487l284 487h211l-397 -645l422 -688h-217l-308 528l-307 -528h-215z" />
<glyph unicode="&#x426;" horiz-adv-x="1312" d="M131 0v1331h188v-1161h652v1161h190v-1167h127v-486h-190v322h-967z" />
<glyph unicode="&#x427;" horiz-adv-x="1220" d="M86 877v456h184v-424q0 -160 70 -229.5t221 -69.5q35 0 80 7.5t92 20.5t90 33.5t76 47.5v614h188v-1333h-188v543h-2q-41 -25 -90 -42.5t-99.5 -29.5t-100.5 -17t-89 -5q-215 0 -323.5 115.5t-108.5 312.5z" />
<glyph unicode="&#x428;" horiz-adv-x="1724" d="M131 0v1333h193v-1163h442v1163h192v-1163h445v1163h188v-1333h-1460z" />
<glyph unicode="&#x429;" horiz-adv-x="1761" d="M133 0v1333h191v-1165h444v1165h190v-1165h445v1165h192v-1165h125v-490h-192v322h-1395z" />
<glyph unicode="&#x42a;" horiz-adv-x="1544" d="M25 1163v168h649v-543h362q205 0 322 -102t117 -295q0 -98 -31 -171t-86 -122t-134 -73.5t-175 -24.5h-564v1163h-460zM674 170h358q51 0 98.5 12.5t81 39t54 69.5t20.5 104q0 111 -71.5 167t-186.5 56h-354v-448z" />
<glyph unicode="&#x42b;" horiz-adv-x="1574" d="M127 0v1331h190v-543h363q205 0 320.5 -102t115.5 -295q0 -98 -30.5 -171t-86 -122t-134.5 -73.5t-175 -24.5h-563zM317 170h357q51 0 97 12.5t81 39t54.5 69.5t19.5 104q0 111 -71 168.5t-183 57.5h-355v-451zM1253 0v1333h191v-1333h-191z" />
<glyph unicode="&#x42c;" horiz-adv-x="1191" d="M127 0v1331h190v-543h363q205 0 320.5 -102t115.5 -295q0 -98 -30.5 -171t-86 -122t-134.5 -73.5t-175 -24.5h-563zM317 170h357q51 0 97 12.5t81 39t54.5 69.5t19.5 104q0 111 -71 167t-183 56h-355v-448z" />
<glyph unicode="&#x42d;" horiz-adv-x="1167" d="M57 182q2 2 22.5 20.5t43 40t42 40t23.5 20.5q133 -150 306 -149q88 0 155.5 35.5t115.5 97t75.5 144.5t33.5 179h-577v166h573q-8 86 -35.5 160t-74.5 127t-110.5 84t-141.5 31t-151.5 -29t-145.5 -100q-4 2 -22.5 21.5t-40 41t-40 39.5t-20.5 23q88 94 187.5 138 t244.5 44q129 0 231.5 -47t174 -136.5t110.5 -216t39 -286.5q0 -162 -43 -290t-119.5 -217t-182 -136t-232.5 -47q-154 0 -258.5 53t-182.5 149z" />
<glyph unicode="&#x42e;" horiz-adv-x="1648" d="M129 0v1333h193v-551h159q12 125 52 229.5t107 180.5t160 119t214 43q125 0 225 -49.5t170 -138.5t107.5 -215.5t37.5 -282.5q0 -158 -36.5 -285t-106.5 -217t-170 -138t-227 -48t-225.5 45t-166 128t-105.5 199.5t-44 257.5h-151v-610h-193zM666 668q0 -111 20.5 -205 t63.5 -164t108.5 -108.5t155.5 -38.5t155.5 39.5t108.5 109.5t63.5 163t20.5 202q0 115 -21.5 210t-64.5 162.5t-108.5 105.5t-153.5 38q-90 0 -155.5 -38t-108.5 -106.5t-63.5 -163t-20.5 -206.5z" />
<glyph unicode="&#x42f;" horiz-adv-x="1220" d="M88 915q0 104 34 182.5t93 130.5t140 78.5t175 26.5h557v-1333h-188v516h-348l-244 -516h-213l264 535q-129 39 -199.5 132.5t-70.5 247.5zM283 913q0 -117 65.5 -175t188.5 -58h362v485h-358q-115 0 -186.5 -67.5t-71.5 -184.5z" />
<glyph unicode="&#x430;" horiz-adv-x="999" d="M70 291q0 78 28.5 139.5t78.5 104.5t120 65.5t152 22.5q63 0 126.5 -12.5t133.5 -49.5v107q0 201 -217 200q-72 0 -136.5 -17t-130.5 -48l-55 137q76 37 159 58.5t183 21.5q180 0 277.5 -84t97.5 -250v-686h-178v94h-4q-76 -70 -154 -92t-145 -22q-59 0 -120 17t-109 54 t-77.5 96.5t-29.5 143.5zM250 305q0 -88 52 -135t151 -47q72 4 139 39t117 86v172q-53 31 -110.5 50t-135.5 19q-88 0 -150.5 -48t-62.5 -136z" />
<glyph unicode="&#x431;" horiz-adv-x="1105" d="M92 604q0 129 19.5 245t69.5 211t137.5 167.5t220.5 115.5q49 16 93 26.5t88 20t90 19.5t101 27l41 -131q-68 -27 -117 -39.5t-89.5 -21.5t-79.5 -17t-88 -25q-154 -55 -221.5 -156.5t-77.5 -242.5l6 -2q41 84 127 136t184 52q92 0 169 -33.5t132 -96t86 -154t31 -207.5 q0 -119 -33 -215.5t-93.5 -164t-144.5 -104.5t-186 -37q-123 0 -211 49.5t-144.5 135.5t-83 199.5t-26.5 242.5zM299 467q0 -68 16.5 -128t49 -106.5t83 -73t117.5 -26.5q68 0 117 27.5t81 77t48 117t16 147.5q0 70 -16 130t-48 106t-79.5 73t-110.5 27q-117 0 -195.5 -93.5 t-78.5 -277.5z" />
<glyph unicode="&#x432;" horiz-adv-x="991" d="M104 0v999h459q68 0 124 -16t98 -49t65.5 -80t23.5 -111q0 -63 -33.5 -118.5t-99.5 -83.5v-2q78 -23 126 -88.5t48 -147.5q0 -143 -95 -223t-263 -80h-453zM283 145h264q98 0 142 42t44 114q0 76 -52 116t-134 40h-264v-312zM283 602h260q72 0 111.5 36t39.5 89 q0 55 -35.5 89t-111.5 34h-264v-248z" />
<glyph unicode="&#x433;" horiz-adv-x="851" d="M109 0v999h731v-149h-551v-850h-180z" />
<glyph unicode="&#x434;" horiz-adv-x="1142" d="M41 147h102q29 37 49.5 77t36 97.5t24.5 135.5t15 190l19 350h712v-850h93v-440h-172v293h-707v-293h-172v440zM338 147h483v703h-372l-13 -221q-8 -123 -26.5 -248t-71.5 -234z" />
<glyph unicode="&#x435;" horiz-adv-x="1021" d="M90 487q0 123 33 220.5t91 167t138 106.5t174 37q104 0 183 -37t132.5 -103.5t80 -160.5t26.5 -209v-72h-678q10 -150 87 -227.5t188 -77.5q63 0 125.5 24.5t109.5 65.5l94 -112q-76 -70 -160.5 -99.5t-187.5 -29.5q-98 0 -178 32.5t-137 97t-89 160t-32 217.5zM270 569 h500q0 61 -15.5 115.5t-45 94.5t-76.5 63.5t-113 23.5q-98 0 -168.5 -80.5t-81.5 -216.5z" />
<glyph unicode="&#x436;" horiz-adv-x="1425" d="M20 0l422 537l-419 460h206l396 -442v442h176v-442l401 442h201l-420 -460l428 -537h-217l-393 510v-510h-176v510l-394 -510h-211z" />
<glyph unicode="&#x437;" horiz-adv-x="927" d="M41 133l102 115q61 -59 131 -86t146 -27q102 0 168.5 46t66.5 116q0 78 -57 113.5t-145 35.5h-160v142h145q92 0 147.5 40t55.5 95q0 53 -44 96t-155 43q-66 0 -132 -23.5t-120 -66.5l-96 119q76 61 169 92t196 31q186 0 274 -74t88 -184q0 -66 -38 -131.5t-130 -96.5v-6 q49 -12 85 -37.5t57.5 -56.5t32 -65.5t10.5 -65.5q0 -78 -32 -137.5t-87 -98t-132 -58t-167 -19.5q-111 0 -209 38.5t-170 110.5z" />
<glyph unicode="&#x438;" horiz-adv-x="1054" d="M111 0v1001h180v-714h8l129 200l334 514h180v-1001h-180v705h-8l-133 -205l-330 -500h-180z" />
<glyph unicode="&#x439;" horiz-adv-x="1054" d="M111 0v1001h180v-714h8l129 200l334 514h180v-1001h-180v705h-8l-133 -205l-330 -500h-180zM256 1362h131q10 -57 45 -94t100 -37q70 0 105 42t37 89h133q-2 -39 -16.5 -84t-46 -83t-83 -62.5t-126.5 -24.5q-78 0 -130.5 24.5t-85 62.5t-47 83t-16.5 84z" />
<glyph unicode="&#x43a;" horiz-adv-x="931" d="M111 0v997h176v-442l403 442h207l-426 -460l440 -537h-221l-403 510v-510h-176z" />
<glyph unicode="&#x43b;" horiz-adv-x="1036" d="M27 127q63 12 101 30.5t57.5 52.5t25.5 86t6 130v573h705v-999h-179v850h-358v-346q0 -90 -3 -183.5t-35 -169t-102.5 -123.5t-205.5 -48z" />
<glyph unicode="&#x43c;" horiz-adv-x="1212" d="M109 0v999h180l215 -419l102 -209h8l107 219l201 409h178v-999h-180v608h-9l-96 -194l-211 -416l-205 408l-106 212h-4v-618h-180z" />
<glyph unicode="&#x43d;" horiz-adv-x="1064" d="M111 0v1001h180v-403h483v403h180v-1001h-180v446h-483v-446h-180z" />
<glyph unicode="&#x43e;" horiz-adv-x="1075" d="M92 489q0 127 34 225.5t94.5 166t142 102.5t180.5 35q96 0 177 -35t139.5 -100.5t91 -159.5t32.5 -213q0 -127 -35 -225.5t-96 -166t-144.5 -103t-181.5 -35.5t-178 34.5t-137 101t-88 161t-31 212.5zM274 504q0 -172 66 -271.5t195 -99.5q63 0 113 30t85 80t52.5 116.5 t17.5 140.5q0 80 -16.5 146.5t-50.5 114.5t-82.5 75.5t-116.5 27.5q-63 0 -111.5 -27.5t-82.5 -76.5t-51.5 -114.5t-17.5 -141.5z" />
<glyph unicode="&#x43f;" horiz-adv-x="1052" d="M111 0v1001h831v-1001h-182v850h-467v-850h-182z" />
<glyph unicode="&#x440;" horiz-adv-x="1050" d="M113 -401v1402h180v-96h4q66 63 137 89t141 26q74 0 143.5 -28.5t122 -90t84 -157t31.5 -226.5q0 -143 -35.5 -245.5t-93 -167t-130 -94t-146.5 -29.5t-135.5 24.5t-120.5 81.5h-4v-412q-10 -4 -36 -15t-53.5 -23.5t-53 -23.5t-35.5 -15zM291 264q39 -53 101.5 -91 t129.5 -38q123 0 188.5 94.5t65.5 278.5q0 172 -66.5 266t-177.5 94q-78 0 -139 -40t-102 -91v-473z" />
<glyph unicode="&#x441;" horiz-adv-x="917" d="M92 467q0 131 32 234.5t89 173t137 106.5t176 37q104 0 186.5 -34t151.5 -112l-114 -116q-55 57 -108.5 81.5t-117.5 24.5q-61 0 -107 -29.5t-78 -81t-48.5 -123t-16.5 -153.5q0 -147 67 -242.5t189 -95.5q63 0 116.5 26.5t107.5 82.5l114 -109q-66 -74 -147.5 -115.5 t-198.5 -41.5q-90 0 -168 30.5t-136 92t-92 152.5t-34 212z" />
<glyph unicode="&#x442;" horiz-adv-x="854" d="M29 850v149h805v-149h-314v-850h-180v850h-311z" />
<glyph unicode="&#x443;" horiz-adv-x="978" d="M27 999h188l174 -503q8 -27 20.5 -66t27 -82t26.5 -82t22 -65h7q8 27 22 65.5t27.5 81.5t27 82t21.5 66l178 503h180q-29 -80 -69.5 -191.5t-87 -238.5t-95.5 -263t-95 -263t-87 -238.5t-70 -189.5h-170l132 367q-23 57 -53.5 139t-64.5 175t-72 192.5t-71.5 193.5 t-64.5 176t-53 141z" />
<glyph unicode="&#x444;" horiz-adv-x="1384" d="M90 510q0 111 39 202t108.5 157.5t163 104.5t203.5 44v328l180 73l-2 -401q113 -6 207 -43t162 -101.5t105.5 -155.5t37.5 -208q0 -123 -41 -219t-110.5 -163t-162.5 -102.5t-196 -41.5v-312l-180 -73v383q-117 4 -212 39.5t-161.5 103.5t-103.5 164t-37 221zM256 504 q0 -92 28.5 -163t78 -118t112 -72.5t129.5 -29.5v753q-80 -4 -144.5 -33.5t-109.5 -78.5t-69.5 -114.5t-24.5 -143.5zM784 119q63 4 126 29.5t111 73.5t77.5 119t29.5 163q0 78 -23.5 143.5t-67.5 114.5t-107.5 78.5t-145.5 33.5v-755z" />
<glyph unicode="&#x445;" horiz-adv-x="892" d="M29 0l313 516l-289 483h201l190 -354l193 354h199l-293 -477q8 -12 32.5 -52t57.5 -94t68.5 -114.5t68.5 -115t56.5 -94.5t31.5 -52h-207l-211 389l-213 -389h-198z" />
<glyph unicode="&#x446;" horiz-adv-x="1095" d="M111 0v1001h178v-854h483v854h182v-854h93v-440h-173v293h-763z" />
<glyph unicode="&#x447;" horiz-adv-x="1005" d="M78 690v309h180v-278q0 -117 41 -180.5t156 -63.5q72 2 136 32t122 101v389h180v-1001h-180v457h-6q-66 -72 -144 -102.5t-143 -30.5q-176 0 -259 89t-83 279z" />
<glyph unicode="&#x448;" horiz-adv-x="1476" d="M113 0v1004h178v-854h356v854h178v-854h363v854h176v-1004h-1251z" />
<glyph unicode="&#x449;" horiz-adv-x="1497" d="M113 0v1001h176v-851h358v851h178v-851h363v851h178v-851h92v-445h-172v295h-1173z" />
<glyph unicode="&#x44a;" horiz-adv-x="1216" d="M18 850v151h519v-383h258q172 0 270 -79.5t98 -227.5q0 -154 -96 -232.5t-258 -78.5h-449v850h-342zM537 147h262q78 0 131 39t53 125q0 76 -52 119t-134 43h-260v-326z" />
<glyph unicode="&#x44b;" horiz-adv-x="1314" d="M111 0v1001h176v-383h266q170 0 267.5 -81t97.5 -228q0 -160 -95.5 -234.5t-261.5 -74.5h-450zM287 147h266q84 0 134 39t50 125q0 76 -49 119t-137 43h-264v-326zM1028 0v1001h176v-1001h-176z" />
<glyph unicode="&#x44c;" horiz-adv-x="987" d="M111 0v1001h180v-383h264q170 0 266.5 -81t96.5 -228q0 -160 -95.5 -234.5t-259.5 -74.5h-452zM291 147h264q84 0 134 39t50 125q0 76 -50 119t-136 43h-262v-326z" />
<glyph unicode="&#x44d;" horiz-adv-x="933" d="M66 139l108 109q53 -55 107.5 -83t121.5 -28q57 0 102.5 24.5t78 65.5t50 97.5t21.5 117.5h-432v142h432q-2 123 -62.5 200.5t-178.5 77.5q-61 0 -115.5 -21.5t-116.5 -76.5l-100 121q74 68 153.5 100.5t182.5 32.5q211 0 317.5 -128t106.5 -370q0 -129 -31 -229.5 t-88 -169t-136 -105t-175 -36.5q-117 0 -201 40.5t-145 118.5z" />
<glyph unicode="&#x44e;" horiz-adv-x="1353" d="M115 0v999h176v-405h129q10 76 37.5 151.5t78 136t124 97.5t178.5 37q106 0 186 -39t133 -107.5t80 -163.5t27 -206q0 -113 -28 -207t-82 -163t-133 -107.5t-183 -38.5q-115 0 -193 41t-127 107.5t-72.5 148t-29.5 165.5h-125v-446h-176zM584 500q0 -74 14 -140.5 t45 -118t79 -82t116 -30.5q66 0 113.5 29.5t79.5 80t47.5 118t15.5 143.5t-15.5 143.5t-47.5 116.5t-80 77.5t-113 28.5q-68 0 -116 -28.5t-79 -78.5t-45 -117t-14 -142z" />
<glyph unicode="&#x44f;" horiz-adv-x="1011" d="M80 0l209 399q-94 31 -147.5 98.5t-53.5 182.5q0 78 26.5 138.5t74 100t109.5 60t134 20.5h471v-999h-180v375h-264l-187 -375h-192zM262 678q0 -80 52.5 -117t129.5 -37h279v326h-281q-74 0 -127 -47t-53 -125z" />
<glyph unicode="&#x451;" horiz-adv-x="1021" d="M90 487q0 123 33 220.5t91 167t138 106.5t174 37q104 0 183 -37t132.5 -103.5t80 -160.5t26.5 -209v-72h-678q10 -150 87 -227.5t188 -77.5q63 0 125.5 24.5t109.5 65.5l94 -112q-76 -70 -160.5 -99.5t-187.5 -29.5q-98 0 -178 32.5t-137 97t-89 160t-32 217.5zM217 1284 q0 43 32 72.5t73 29.5t72.5 -29.5t31.5 -72.5t-31.5 -73.5t-72.5 -30.5t-73 30.5t-32 73.5zM270 569h500q0 61 -15.5 115.5t-45 94.5t-76.5 63.5t-113 23.5q-98 0 -168.5 -80.5t-81.5 -216.5zM623 1284q0 43 31.5 72.5t74.5 29.5q41 0 70.5 -29.5t29.5 -72.5t-29.5 -73.5 t-70.5 -30.5q-43 0 -74.5 30.5t-31.5 73.5z" />
<glyph unicode="&#x452;" horiz-adv-x="1105" d="M45 1090v120h125v144l180 76v-220h428v-120h-428v-263h6q59 80 137 113t152 33q166 0 267.5 -124t101.5 -351q0 -96 -21.5 -188.5t-75 -171.5t-141.5 -137t-221 -89l-35 143q168 43 241 155t73 271q0 176 -70 258t-180 82q-49 0 -91 -21.5t-74 -59.5t-50.5 -90 t-18.5 -113v-537h-180v1090h-125z" />
<glyph unicode="&#x453;" horiz-adv-x="851" d="M109 0v999h731v-149h-551v-850h-180zM340 1161l147 346l195 -37l-246 -342z" />
<glyph unicode="&#x454;" horiz-adv-x="931" d="M92 498q0 125 33 221t90 162.5t137 101.5t176 35q201 0 334 -148l-108 -116q-53 57 -108.5 82.5t-119.5 25.5q-104 0 -169.5 -78.5t-75.5 -203.5h430v-142h-432q10 -131 75.5 -216t180.5 -85q68 0 119 28t104 83l108 -107q-61 -78 -142 -119.5t-198 -41.5 q-92 0 -172 34.5t-138 101t-91 163t-33 219.5z" />
<glyph unicode="&#x455;" horiz-adv-x="919" d="M78 78l65 135q78 -43 159 -65.5t149 -22.5q39 0 76.5 7t67.5 23.5t48.5 42t18.5 62.5q0 39 -16.5 65.5t-47.5 47t-74 37t-94 32.5q-74 23 -134 50.5t-103 62.5t-67 81t-24 105q0 123 96.5 200t276.5 77q88 0 171 -18.5t159 -59.5l-60 -137q-78 41 -149.5 54t-120.5 13 q-104 0 -153.5 -35.5t-49.5 -84.5q0 -25 8.5 -45.5t31 -39t62.5 -36t105 -35.5q78 -23 144.5 -50.5t114.5 -64.5t75 -88t27 -121q0 -72 -30 -126t-83 -91t-125 -55t-153 -18q-94 0 -191.5 25.5t-179.5 72.5z" />
<glyph unicode="&#x456;" horiz-adv-x="493" d="M137 1270q0 47 32 78.5t79 31.5q45 0 77.5 -31.5t32.5 -78.5q0 -45 -32.5 -78t-77.5 -33q-47 0 -79 33t-32 78zM158 0v999h180v-999h-180z" />
<glyph unicode="&#x457;" horiz-adv-x="499" d="M-55 1282q0 43 31.5 72.5t72.5 29.5t73 -29.5t32 -72.5t-32 -73.5t-73 -30.5t-72.5 30.5t-31.5 73.5zM160 0v997h180v-997h-180zM350 1282q0 43 32 72.5t75 29.5q41 0 70.5 -29.5t29.5 -72.5t-29.5 -73.5t-70.5 -30.5q-43 0 -75 30.5t-32 73.5z" />
<glyph unicode="&#x458;" horiz-adv-x="495" d="M-39 -262q72 12 113 29.5t62.5 45t27.5 67.5t6 97v1022h178v-1015q0 -96 -15.5 -169t-56 -122t-113.5 -76t-190 -29zM152 1270q0 47 31.5 78.5t78.5 31.5q45 0 77 -31.5t32 -78.5q0 -45 -32 -78t-77 -33q-47 0 -78.5 33t-31.5 78z" />
<glyph unicode="&#x459;" horiz-adv-x="1482" d="M16 127q63 12 101.5 30.5t58 52.5t25.5 86t6 130v573h614v-381h256q172 0 270.5 -80.5t98.5 -228.5q0 -160 -96.5 -235.5t-257.5 -75.5h-451v856h-266v-350q0 -90 -3 -183.5t-35 -169t-102.5 -123.5t-205.5 -48zM821 147h262q82 0 132.5 39t50.5 125q0 74 -48.5 117 t-134.5 43h-262v-324z" />
<glyph unicode="&#x45a;" horiz-adv-x="1497" d="M111 0v1001h176v-387h356v385h182v-383h265q164 0 262 -79.5t98 -227.5q0 -160 -95 -235.5t-259 -75.5h-453v471h-356v-469h-176zM825 147h260q86 0 135.5 39t49.5 123q0 76 -49.5 118t-135.5 42h-260v-322z" />
<glyph unicode="&#x45b;" horiz-adv-x="1040" d="M23 1096v121h104v135q47 18 91 36.5t89 38.5v-210h430v-121h-430v-275h4q55 76 136 112t153 36q176 0 259 -102.5t83 -293.5v-573h-180v545q0 131 -52.5 198.5t-164.5 67.5q-72 0 -123 -39t-80 -98q-16 -29 -25.5 -65t-9.5 -72v-537h-180v1096h-104z" />
<glyph unicode="&#x45c;" horiz-adv-x="911" d="M111 0v997h176v-442l403 442h207l-426 -460l440 -537h-221l-403 510v-510h-176zM354 1161l148 346l194 -37l-245 -342z" />
<glyph unicode="&#x45e;" horiz-adv-x="978" d="M27 999h188l174 -503q8 -27 20.5 -66t27 -82t26.5 -82t22 -65h7q8 27 22 65.5t27.5 81.5t27 82t21.5 66l178 503h180q-29 -80 -69.5 -191.5t-87 -238.5t-95.5 -263t-95 -263t-87 -238.5t-70 -189.5h-170l132 367q-23 57 -53.5 139t-64.5 175t-72 192.5t-71.5 193.5 t-64.5 176t-53 141zM225 1407h131q10 -57 45 -94t101 -37q70 0 104.5 42t36.5 89h133q-2 -39 -16.5 -84t-46 -83t-82.5 -62.5t-127 -24.5q-78 0 -130 24.5t-85 62.5t-47.5 83t-16.5 84z" />
<glyph unicode="&#x45f;" horiz-adv-x="1062" d="M115 0v1001h178v-851h475v851h182v-1001h-329v-322h-172v322h-334z" />
<glyph unicode="&#x490;" horiz-adv-x="1021" d="M131 0v1333h703v279h184v-449h-696v-1163h-191z" />
<glyph unicode="&#x491;" horiz-adv-x="866" d="M111 0v999h561v218h166v-367h-553v-850h-174z" />
<glyph unicode="&#x4d9;" horiz-adv-x="1017" d="M84 487v72h676q-14 162 -89 233.5t-186 71.5q-66 0 -118 -23.5t-99 -64.5q-4 6 -18 21.5t-29.5 33t-29 34t-17.5 22.5q39 37 77 61.5t77 40t81 22.5t93 7q92 0 171 -34t138 -99.5t93 -162.5t34 -224q0 -121 -34 -216.5t-92 -163t-138 -103t-172 -35.5q-102 0 -181 38.5 t-131.5 106.5t-79 161t-26.5 201zM256 428q4 -61 19.5 -115.5t46 -96.5t77.5 -65.5t113 -23.5q47 0 89 20.5t75 59.5t54.5 94t27.5 127h-502z" />
<glyph unicode="&#x2000;" horiz-adv-x="849" />
<glyph unicode="&#x2001;" horiz-adv-x="1698" />
<glyph unicode="&#x2002;" horiz-adv-x="849" />
<glyph unicode="&#x2003;" horiz-adv-x="1698" />
<glyph unicode="&#x2004;" horiz-adv-x="566" />
<glyph unicode="&#x2005;" horiz-adv-x="424" />
<glyph unicode="&#x2006;" horiz-adv-x="283" />
<glyph unicode="&#x2007;" horiz-adv-x="283" />
<glyph unicode="&#x2008;" horiz-adv-x="212" />
<glyph unicode="&#x2009;" horiz-adv-x="339" />
<glyph unicode="&#x200a;" horiz-adv-x="94" />
<glyph unicode="&#x2010;" horiz-adv-x="716" d="M111 545v176h497v-176h-497z" />
<glyph unicode="&#x2011;" horiz-adv-x="716" d="M111 545v176h497v-176h-497z" />
<glyph unicode="&#x2012;" horiz-adv-x="716" d="M111 545v176h497v-176h-497z" />
<glyph unicode="&#x2013;" horiz-adv-x="1024" d="M61 561v156h902v-156h-902z" />
<glyph unicode="&#x2014;" horiz-adv-x="2048" d="M61 565v158h1926v-158h-1926z" />
<glyph unicode="&#x2018;" horiz-adv-x="503" d="M119 1079q0 98 54 170t132 121q14 -16 26.5 -32.5t24.5 -32.5q-43 -29 -70.5 -69t-33.5 -87q51 0 86 -27.5t35 -83.5q0 -51 -35 -87t-84 -36q-57 0 -96 44.5t-39 119.5z" />
<glyph unicode="&#x2019;" horiz-adv-x="503" d="M119 1247q0 53 34.5 88t84.5 35q57 0 96 -45t39 -117q0 -100 -54.5 -171.5t-132.5 -121.5l-51 66q43 29 70.5 69t34.5 89q-49 0 -85 25.5t-36 82.5z" />
<glyph unicode="&#x201a;" horiz-adv-x="450" d="M88 100q0 53 35 88t84 35q59 0 97 -44t38 -118q0 -98 -53 -169.5t-133 -118.5l-52 63q43 31 72 70t33 86q-49 0 -85 25.5t-36 82.5z" />
<glyph unicode="&#x201c;" horiz-adv-x="808" d="M115 1079q0 98 54 170t132 121q14 -16 26.5 -32.5t24.5 -32.5q-92 -57 -104 -156q51 0 85 -27.5t34 -83.5q0 -51 -34 -87t-83 -36q-57 0 -96 44.5t-39 119.5zM440 1075q0 98 53.5 171t133.5 120l49 -66q-41 -29 -69.5 -68.5t-35.5 -86.5q47 4 84 -24.5t37 -84.5 q0 -53 -34.5 -89t-84.5 -36q-55 0 -94 45t-39 119z" />
<glyph unicode="&#x201d;" horiz-adv-x="808" d="M117 1249q0 51 35.5 86t83.5 35q55 0 95 -44t40 -118q0 -100 -54.5 -170.5t-134.5 -119.5l-49 65q43 29 70.5 69t34.5 87q-51 0 -86 25.5t-35 84.5zM442 1249q0 51 35 86t84 35q55 0 94 -44t39 -118q0 -100 -53 -170.5t-133 -119.5l-49 65q41 29 69.5 69t34.5 87 q-49 0 -85 25.5t-36 84.5z" />
<glyph unicode="&#x201e;" horiz-adv-x="827" d="M102 100q0 53 35 88t84 35q57 0 95 -44t38 -118q0 -98 -52 -169.5t-134 -118.5l-49 63q41 31 69.5 70t34.5 86q-49 0 -85 26.5t-36 81.5zM475 100q0 53 35 88t84 35q57 0 96 -44t39 -118q0 -98 -53 -169.5t-133 -118.5l-51 63q43 31 71.5 70t32.5 86q-49 0 -85 26.5 t-36 81.5z" />
<glyph unicode="&#x2022;" horiz-adv-x="755" d="M154 635q0 47 17 89t48 72.5t73 49t89 18.5t89 -18.5t72.5 -49t48 -72.5t17.5 -89q0 -49 -17.5 -91t-48 -73t-72.5 -48t-89 -17t-89 17t-73 48t-48 73t-17 91z" />
<glyph unicode="&#x2026;" horiz-adv-x="1499" d="M141 102q0 53 35 86t82 33t82 -33.5t35 -85.5q0 -51 -35 -85.5t-82 -34.5q-49 0 -83 34.5t-34 85.5zM641 102q0 53 35 86t82 33q49 0 81.5 -33.5t32.5 -85.5q0 -51 -32.5 -85.5t-83.5 -34.5q-49 0 -82 34.5t-33 85.5zM1145 102q0 53 36 86t81 33q49 0 82.5 -33.5 t33.5 -85.5q0 -51 -33.5 -85.5t-82.5 -34.5q-47 0 -82 34.5t-35 85.5z" />
<glyph unicode="&#x202f;" horiz-adv-x="339" />
<glyph unicode="&#x2039;" horiz-adv-x="929" d="M236 487l284 422h168l-280 -422l280 -419h-168z" />
<glyph unicode="&#x203a;" horiz-adv-x="929" d="M254 82l281 420l-281 422h170l281 -422l-283 -420h-168z" />
<glyph unicode="&#x205f;" horiz-adv-x="424" />
<glyph unicode="&#x20ac;" d="M111 467v129h837v-129h-504q27 -154 117 -233.5t227 -79.5q72 0 142.5 27.5t130.5 84.5l119 -137q-72 -70 -170.5 -109.5t-227.5 -39.5q-211 0 -356 119.5t-184 367.5h-131zM111 707v129h122q18 123 65.5 220t119 163.5t165 101.5t203.5 35q117 0 210.5 -34t164.5 -99 l-117 -146q-59 53 -122.5 77t-137.5 24q-147 0 -236 -92.5t-114 -249.5h514v-129h-837z" />
<glyph unicode="&#x2122;" horiz-adv-x="1583" d="M57 1217v116h594v-116h-233v-637h-125v637h-236zM725 580v753h143l115 -250l107 -241h4l106 237l117 254h143v-753h-125v530h-4l-92 -207l-147 -328l-152 330l-88 197h-2v-522h-125z" />
<glyph unicode="&#x25fc;" horiz-adv-x="1003" d="M0 0v1004h1004v-1004h-1004z" />
</font>
</defs>
</svg>
